<?xml version="1.0" standalone="no"?>
<!DOCTYPE svg PUBLIC "-//W3C//DTD SVG 20010904//EN"
 "http://www.w3.org/TR/2001/REC-SVG-20010904/DTD/svg10.dtd">
<svg version="1.0" xmlns="http://www.w3.org/2000/svg"
 width="2024.000000pt" height="2024.000000pt" viewBox="0 0 2024.000000 2024.000000"
 preserveAspectRatio="xMidYMid meet">
<metadata>
Created by potrace 1.14, written by Peter Selinger 2001-2017
</metadata>
<g transform="translate(0.000000,2024.000000) scale(0.100000,-0.100000)"
fill="#000000" stroke="none">
<path d="M2723 14778 c-15 -4 -37 -18 -48 -30 -12 -13 -46 -43 -76 -68 -91
-77 -99 -84 -128 -110 -16 -14 -54 -47 -85 -74 -31 -27 -56 -51 -56 -55 0 -3
32 -6 70 -6 39 0 70 4 70 8 0 5 4 5 10 2 5 -3 26 -7 46 -9 31 -2 45 5 104 53
37 31 84 70 104 86 21 17 47 38 58 47 21 18 33 15 63 -17 6 -5 37 -32 70 -60
33 -27 69 -59 80 -70 11 -12 29 -25 40 -29 25 -10 215 -14 215 -4 0 4 8 4 17
1 9 -4 -24 29 -73 72 -49 43 -98 87 -109 97 -11 10 -36 33 -56 51 -20 17 -57
51 -83 75 -30 26 -57 42 -74 43 -15 0 -51 1 -80 2 -29 1 -64 -1 -79 -5z"/>
<path d="M4914 14770 c-136 -30 -167 -207 -50 -280 68 -41 164 -24 202 37 10
15 21 30 25 33 3 3 5 30 4 61 -3 105 -84 170 -181 149z"/>
<path d="M10200 14770 c-51 -9 -86 -36 -109 -83 -46 -97 15 -209 119 -220 150
-17 232 170 118 268 -42 35 -73 44 -128 35z"/>
<path d="M4116 14711 c-2 -3 -3 -124 -2 -268 1 -168 -3 -264 -9 -266 -5 -1
-63 -2 -127 -2 -132 1 -120 10 -120 -80 0 -91 -14 -82 127 -81 81 1 125 -2
126 -9 0 -5 2 -294 2 -642 2 -491 5 -635 15 -645 6 -6 12 -8 12 -2 0 7 57 11
68 4 6 -5 59 -2 77 3 20 7 20 15 19 647 0 445 3 640 10 643 6 1 73 3 149 2
l138 -1 -3 81 -3 80 -145 0 -145 0 0 267 c0 148 -2 269 -5 269 -19 5 -181 5
-184 0z"/>
<path d="M915 14209 c-44 -4 -90 -10 -102 -13 -13 -3 -33 -8 -45 -11 -11 -2
-60 -24 -107 -47 -68 -33 -105 -61 -173 -129 -49 -47 -89 -81 -89 -75 -1 10
-1 22 1 71 0 11 -1 41 -3 67 -2 26 0 53 4 60 4 6 4 19 -1 28 -7 13 -26 16 -97
15 l-88 0 -3 -989 c-1 -624 1 -992 7 -996 6 -3 36 -5 68 -3 32 1 70 2 84 2
l26 1 -1 100 c-1 55 3 100 8 100 5 0 2 8 -5 17 -12 14 -12 16 0 8 10 -6 12 -4
6 6 -11 17 -13 329 -2 329 5 0 5 6 0 12 -10 17 -11 87 -1 115 4 12 4 25 -1 27
-6 4 -7 32 -2 55 1 2 27 -23 58 -54 117 -116 253 -189 398 -212 54 -8 189 -9
249 0 295 40 557 306 614 624 13 76 6 248 -13 318 -9 33 -18 65 -19 70 -6 32
-70 149 -110 202 -45 60 -163 173 -189 182 -7 2 -14 7 -17 10 -9 11 -88 51
-132 67 -62 23 -105 33 -168 40 -30 3 -59 6 -65 8 -5 1 -46 -1 -90 -5z m172
-193 c66 -15 183 -64 183 -77 0 -4 9 -10 19 -14 25 -8 106 -89 140 -140 72
-106 104 -207 104 -324 1 -104 -4 -151 -16 -151 -4 0 -6 -4 -2 -10 3 -5 -6
-37 -20 -72 -114 -281 -391 -425 -679 -353 -188 47 -338 182 -400 360 -53 155
-36 364 41 503 63 112 193 226 298 258 108 34 239 42 332 20z"/>
<path d="M2748 14215 c-2 -1 -28 -5 -58 -8 -177 -17 -304 -74 -434 -197 -124
-117 -203 -260 -233 -425 -15 -83 -7 -256 16 -340 19 -71 74 -201 90 -215 4
-3 19 -23 36 -45 16 -22 41 -53 55 -69 32 -36 145 -126 158 -126 6 0 12 -4 14
-8 5 -14 95 -51 175 -74 121 -33 257 -31 410 5 58 14 179 80 242 132 14 11 47
42 73 69 27 28 48 43 49 35 1 -8 2 -60 3 -116 0 -56 4 -104 7 -107 9 -9 99
-13 99 -4 0 4 10 4 23 -1 14 -5 30 -5 40 0 16 9 17 63 17 728 0 566 -3 720
-12 723 -7 2 -49 4 -93 4 l-80 -1 0 -127 c0 -71 -1 -128 -3 -128 -2 0 -14 12
-28 28 -65 71 -82 88 -128 125 -93 72 -218 124 -326 133 -30 2 -67 6 -82 8
-15 2 -28 3 -30 1z m171 -198 c164 -43 295 -149 373 -304 20 -40 39 -85 42
-100 3 -15 8 -41 12 -58 11 -51 10 -167 -3 -240 -54 -300 -361 -506 -673 -451
-132 23 -278 120 -356 236 -71 105 -105 204 -109 322 -6 175 60 339 184 456
46 43 155 111 189 117 9 2 18 4 20 5 1 2 7 4 12 5 6 1 11 3 13 5 1 1 10 3 20
5 11 2 21 6 24 9 7 6 222 1 252 -7z"/>
<path d="M5717 14214 c-1 -1 -18 -5 -37 -7 -19 -3 -35 -6 -35 -7 0 -1 -8 -3
-18 -5 -41 -8 -125 -60 -166 -103 -139 -146 -138 -389 3 -533 42 -43 185 -141
224 -153 12 -4 22 -12 22 -17 0 -5 9 -9 19 -9 11 0 23 -4 26 -10 3 -5 20 -16
38 -25 157 -76 223 -205 168 -329 -62 -140 -240 -194 -391 -118 -36 18 -87 53
-114 78 l-49 45 -46 -52 c-79 -90 -78 -80 -12 -141 106 -98 221 -141 376 -141
72 0 190 24 205 43 3 3 23 17 45 30 89 54 159 165 181 285 10 55 10 85 1 85
-4 0 -5 4 -2 10 10 16 -22 126 -50 170 -37 59 -105 121 -190 173 -42 26 -80
47 -84 47 -5 0 -11 3 -13 8 -1 4 -25 18 -53 32 -27 13 -52 27 -55 30 -3 3 -25
18 -50 34 -145 93 -177 243 -73 337 63 56 82 63 173 61 78 -1 182 -50 257
-121 l21 -20 56 57 c31 31 56 62 56 68 0 12 -32 42 -98 88 -83 59 -180 101
-247 105 -16 1 -42 3 -58 5 -15 1 -29 1 -30 0z"/>
<path d="M6775 14209 c-102 -14 -126 -22 -172 -56 -18 -13 -33 -22 -33 -19 0
11 -72 -67 -94 -103 -48 -76 -66 -191 -45 -288 7 -32 13 -62 13 -66 1 -4 8
-12 16 -17 8 -5 12 -10 7 -10 -12 0 24 -51 69 -97 44 -45 142 -111 244 -164
80 -41 188 -114 213 -143 18 -19 33 -50 45 -86 11 -34 3 -118 -13 -151 -21
-42 -74 -99 -92 -99 -7 0 -13 -4 -13 -9 0 -4 -21 -15 -47 -24 -63 -20 -164
-15 -226 12 -53 23 -52 23 -122 85 l-49 44 -27 -21 c-14 -12 -25 -24 -23 -26
1 -2 -13 -19 -32 -39 -19 -19 -34 -39 -34 -44 0 -8 59 -68 98 -100 43 -35 140
-77 209 -91 89 -18 225 -13 268 10 11 6 22 11 25 11 35 -4 200 135 200 168 0
8 4 14 9 14 5 0 12 10 16 23 4 12 9 27 10 32 32 92 36 133 21 230 -7 45 -48
137 -79 175 -25 31 -134 114 -192 146 -11 6 -51 28 -90 49 -213 116 -275 191
-260 311 3 30 11 54 16 54 5 0 9 6 9 14 0 24 72 76 125 91 104 29 175 5 351
-120 10 -7 27 5 69 48 30 32 55 61 55 65 0 4 -31 31 -68 60 -86 67 -169 108
-252 125 -53 10 -84 11 -125 6z"/>
<path d="M8218 14215 c-2 -1 -34 -5 -73 -9 -74 -6 -157 -26 -192 -44 -11 -6
-23 -8 -27 -5 -3 3 -6 1 -6 -5 0 -7 -6 -12 -13 -12 -21 0 -129 -76 -184 -129
-120 -117 -208 -292 -228 -451 -14 -112 -3 -254 26 -350 47 -157 165 -320 295
-408 59 -39 154 -86 154 -75 0 3 6 1 13 -5 6 -6 32 -13 57 -17 24 -4 49 -9 53
-12 15 -9 225 -11 270 -3 23 5 58 11 77 14 58 9 161 54 228 99 34 23 62 45 62
49 0 5 4 8 10 8 23 0 124 124 173 213 l27 47 -25 12 c-14 6 -25 16 -25 21 0 6
-3 8 -6 4 -4 -3 -29 6 -57 21 -32 16 -52 22 -54 15 -11 -32 -75 -116 -133
-174 -104 -104 -248 -162 -405 -162 -95 0 -141 8 -209 34 -49 20 -108 56 -114
71 -2 4 -9 8 -15 8 -6 0 -35 25 -63 57 -44 48 -69 88 -116 185 -13 27 -29 108
-33 166 -4 44 -2 52 13 53 9 0 301 1 649 1 707 0 646 -7 638 73 -13 131 -52
260 -106 352 -54 92 -251 276 -297 278 -4 1 -17 6 -28 13 -12 6 -42 18 -67 27
-43 14 -57 17 -137 29 -43 7 -129 13 -132 11z m148 -198 c69 -16 184 -65 184
-78 0 -5 6 -9 13 -9 40 0 160 -159 193 -255 12 -34 13 -39 16 -60 3 -19 -4
-20 -527 -20 -342 -1 -532 3 -537 9 -4 5 0 26 9 45 8 20 16 41 18 46 9 31 30
75 37 75 4 0 8 5 8 11 0 10 55 86 71 99 3 3 21 16 38 30 18 14 38 30 44 35 18
16 86 47 147 65 69 22 207 25 286 7z"/>
<path d="M9780 14208 c-75 -15 -151 -59 -221 -128 -36 -36 -74 -76 -83 -90
l-16 -24 -1 24 c0 14 -1 44 -2 68 -1 23 2 42 6 42 5 0 5 5 1 11 -4 7 -7 24 -8
38 -1 26 -1 26 -93 26 -85 1 -92 -1 -95 -20 -2 -11 -3 -337 -3 -725 1 -645 2
-705 17 -705 9 0 20 -3 23 -7 4 -4 18 -3 31 2 13 5 24 6 24 2 0 -4 15 -6 32
-5 18 1 40 2 49 2 12 1 15 12 15 51 -1 28 3 50 7 50 5 0 5 5 1 11 -14 23 -4
713 12 793 33 177 78 270 166 341 67 55 130 69 246 53 20 -2 31 9 69 70 40 67
45 85 25 88 -4 0 -20 6 -35 12 -60 25 -110 31 -167 20z"/>
<path d="M11315 14207 c-38 -4 -77 -8 -85 -8 -23 -1 -110 -29 -160 -52 -67
-30 -159 -98 -216 -159 -53 -58 -137 -185 -149 -228 -4 -14 -11 -29 -15 -35
-4 -5 -16 -41 -26 -80 -25 -95 -25 -303 -1 -395 20 -76 72 -190 118 -257 55
-84 169 -186 255 -230 44 -23 84 -42 89 -42 6 -1 28 -7 50 -13 55 -15 84 -18
203 -22 91 -3 133 1 220 19 12 3 32 7 45 10 31 6 122 51 182 89 46 30 165 139
165 152 0 3 16 25 35 48 19 24 35 50 35 59 0 8 4 17 9 19 4 2 12 13 15 26 6
16 3 22 -8 22 -9 0 -16 5 -16 12 0 6 -3 9 -6 5 -3 -3 -31 8 -61 25 l-55 31
-19 -24 c-10 -13 -21 -32 -25 -41 -3 -10 -10 -18 -15 -18 -5 0 -9 -5 -9 -11 0
-21 -126 -149 -147 -149 -7 0 -13 -4 -13 -9 0 -4 -26 -20 -58 -34 -187 -84
-385 -82 -536 6 -26 15 -54 34 -62 42 -8 7 -24 22 -37 32 -81 65 -157 210
-172 326 -14 112 -15 107 8 108 12 0 307 1 655 1 l633 1 -5 81 c-8 115 -67
312 -98 324 -4 2 -8 10 -8 17 0 30 -129 173 -203 224 -88 60 -255 129 -279
115 -4 -3 -8 -2 -8 3 0 4 -19 9 -43 10 -23 1 -58 4 -77 5 -19 2 -66 0 -105 -5z
m151 -181 c27 -2 70 -12 94 -21 25 -9 50 -17 55 -19 86 -26 196 -120 251 -215
23 -40 64 -145 64 -164 0 -10 -118 -12 -532 -12 -293 0 -535 4 -537 8 -5 12
35 118 66 173 39 70 131 155 212 198 39 20 71 34 71 31 0 -3 9 -1 19 5 11 5
53 13 93 16 40 4 75 8 77 10 2 2 7 2 10 -1 4 -2 29 -6 57 -9z"/>
<path d="M4855 14172 c-3 -3 -5 -331 -5 -730 0 -640 2 -723 15 -718 8 3 15 2
15 -2 0 -4 29 -7 65 -7 36 0 65 3 65 7 0 4 6 5 13 2 10 -3 14 6 15 31 1 20 4
40 7 45 3 5 1 11 -4 14 -5 4 -6 19 -3 34 4 15 7 50 6 77 -4 91 -4 149 -3 196
1 26 -1 51 -5 57 -3 6 -2 13 4 17 6 4 8 11 4 16 -3 6 -6 32 -5 57 2 122 3 191
2 237 -1 28 -1 71 0 96 1 26 -1 51 -5 57 -3 6 -2 13 4 17 6 4 8 11 4 16 -3 6
-6 32 -5 57 2 122 3 191 2 237 -1 28 -1 70 -1 95 0 100 6 94 -92 96 -48 1 -90
-1 -93 -4z"/>
<path d="M10141 14171 c-4 -3 -8 -330 -7 -725 1 -709 1 -719 21 -726 11 -4 25
-3 32 2 7 5 14 5 17 -1 4 -7 15 -7 31 -1 13 5 27 6 29 1 9 -14 56 0 57 18 5
93 0 1423 -5 1428 -9 9 -162 12 -175 4z"/>
<path d="M599 11375 c-2 -2 -24 -5 -49 -8 -50 -5 -82 -15 -155 -53 -60 -31
-89 -55 -136 -114 -53 -66 -82 -136 -94 -220 -4 -24 -9 -48 -11 -52 -3 -5 -1
-8 3 -8 5 0 8 -20 8 -45 -2 -53 15 -108 57 -192 33 -65 148 -186 251 -262 30
-21 61 -47 70 -56 10 -9 17 -14 17 -12 0 5 46 -32 81 -65 11 -10 23 -18 27
-18 4 0 54 -44 109 -99 141 -137 188 -214 196 -323 5 -62 -27 -160 -70 -213
-32 -40 -121 -102 -159 -110 -10 -2 -33 -8 -51 -14 -59 -18 -155 -6 -225 28
-62 30 -138 91 -138 111 0 6 -4 10 -9 10 -5 0 -33 35 -61 78 -29 42 -54 79
-55 81 -5 5 -65 -23 -65 -30 0 -4 -15 -13 -32 -20 -18 -7 -41 -21 -51 -30 -16
-14 -17 -21 -6 -40 33 -63 108 -161 168 -220 81 -80 176 -132 286 -156 32 -7
227 -7 258 1 109 26 217 92 294 180 153 174 171 406 47 612 -38 64 -37 62
-121 149 -74 76 -148 139 -293 247 -64 47 -123 92 -132 101 -9 10 -19 17 -23
17 -10 0 -98 90 -112 114 -44 74 -56 113 -55 181 0 40 6 81 14 96 23 43 71 99
85 99 7 0 13 4 13 9 0 22 129 49 190 39 84 -13 110 -20 110 -29 0 -5 7 -9 15
-9 17 0 143 -121 170 -162 9 -16 22 -28 28 -28 11 0 157 107 157 116 0 8 -60
82 -110 137 -47 51 -154 126 -205 144 -16 6 -39 14 -50 19 -36 13 -178 28
-186 19z"/>
<path d="M4716 11370 c-2 -3 -3 -182 -2 -398 0 -217 -1 -398 -4 -402 -3 -4
-25 15 -50 44 -105 122 -261 209 -415 231 -39 6 -184 6 -211 1 -12 -2 -38 -7
-59 -10 -20 -4 -41 -9 -46 -12 -5 -3 -21 -7 -35 -10 -32 -6 -148 -63 -152 -75
-2 -5 -10 -9 -17 -9 -8 0 -54 -39 -103 -87 -137 -134 -195 -238 -227 -411 -12
-63 -12 -244 0 -292 3 -14 8 -36 11 -50 7 -37 27 -94 36 -104 4 -6 8 -18 8
-28 0 -10 4 -18 9 -18 5 0 11 -8 14 -17 6 -19 32 -64 57 -97 26 -34 143 -150
177 -173 76 -54 189 -101 283 -119 57 -10 209 -12 259 -2 25 5 57 12 71 14 14
3 44 14 68 24 23 10 42 17 42 14 0 -3 13 4 29 15 16 12 32 21 35 21 14 0 114
80 164 131 41 42 52 49 53 33 1 -10 2 -64 2 -119 2 -99 2 -100 27 -102 14 0
28 -2 33 -3 7 -1 84 -2 111 -1 11 1 13 164 12 1009 l-1 1007 -88 0 c-49 1 -90
-2 -91 -5z m-491 -703 c85 -8 207 -58 272 -111 45 -36 101 -98 134 -150 80
-122 102 -232 86 -417 -5 -52 -35 -158 -48 -169 -3 -3 -12 -20 -20 -37 -8 -18
-17 -33 -21 -33 -5 0 -8 -6 -8 -13 0 -7 -31 -42 -68 -77 -135 -128 -322 -187
-497 -158 -61 11 -180 55 -200 74 -7 8 -18 14 -24 14 -6 0 -11 5 -11 10 0 6
-5 10 -10 10 -10 0 -78 65 -111 107 -44 54 -91 156 -115 248 -16 60 -12 198 8
268 70 256 261 414 533 440 17 1 35 2 40 0 6 -1 33 -4 60 -6z"/>
<path d="M7203 11371 c-10 -7 -12 -1995 -2 -2006 9 -8 168 -10 176 -1 3 3 7
176 8 383 1 208 6 409 10 447 10 95 56 236 77 236 4 0 8 6 8 14 0 8 28 43 63
79 103 105 192 147 324 152 181 7 289 -52 354 -192 15 -34 31 -74 34 -90 2
-15 8 -39 11 -53 3 -14 7 -239 8 -500 l2 -475 66 -5 c36 -3 78 -3 94 0 l29 5
-1 430 c0 237 -4 462 -8 500 -4 39 -7 77 -8 85 -1 38 -32 141 -61 198 -27 55
-96 138 -151 180 -27 21 -128 69 -161 76 -66 14 -82 16 -145 16 -77 1 -138 -7
-185 -24 -121 -45 -216 -108 -299 -198 l-62 -68 0 405 c1 223 -1 406 -4 406
-20 5 -170 5 -177 0z"/>
<path d="M16852 11369 c-83 -10 -199 -43 -278 -79 -35 -16 -68 -30 -72 -31 -4
-2 -11 -7 -17 -11 -5 -5 -38 -26 -73 -48 -66 -42 -186 -155 -239 -225 -56 -75
-122 -200 -152 -290 -46 -139 -51 -171 -55 -332 -8 -297 87 -529 304 -745 54
-54 102 -98 106 -98 4 0 16 -7 26 -17 32 -29 215 -123 240 -123 8 0 19 -5 26
-12 7 -7 12 -9 12 -5 0 3 11 2 26 -3 14 -6 39 -12 57 -15 18 -3 46 -9 62 -12
54 -12 390 -6 390 7 0 1 11 3 25 6 45 8 146 43 211 73 113 52 250 161 349 276
39 46 120 169 120 183 0 6 3 12 8 12 4 0 12 15 18 33 7 17 21 57 32 88 12 31
24 71 27 89 3 18 8 37 10 41 7 10 19 154 18 214 -1 94 -6 165 -12 165 -3 0 -6
16 -7 35 -1 36 -14 86 -47 175 -20 55 -76 171 -87 180 -4 3 -22 28 -40 55 -69
101 -213 226 -343 299 -54 30 -167 77 -167 70 0 -3 -9 0 -20 6 -63 34 -318 55
-458 39z m287 -199 c254 -43 489 -217 604 -445 31 -62 68 -175 62 -186 -3 -4
-2 -10 3 -13 11 -7 16 -57 16 -186 0 -159 -16 -236 -78 -373 -108 -234 -360
-420 -621 -455 -103 -13 -267 -5 -343 17 -18 5 -36 11 -40 12 -71 18 -223 99
-267 142 -7 7 -25 24 -41 38 -104 93 -182 215 -228 355 -17 53 -19 59 -31 134
-7 42 -8 185 -2 240 10 82 65 261 86 280 3 3 17 27 31 53 43 82 212 257 249
257 6 0 11 4 11 8 0 26 321 144 348 129 4 -3 15 -2 25 2 25 9 137 4 216 -9z"/>
<path d="M14774 11318 c-5 -7 -17 -29 -26 -48 -28 -57 -128 -270 -158 -335
-15 -33 -56 -118 -90 -190 -34 -71 -61 -130 -60 -130 1 0 -14 -31 -33 -70 -19
-38 -54 -110 -77 -160 -23 -49 -62 -131 -86 -182 -24 -50 -44 -97 -44 -102 0
-6 -4 -11 -10 -11 -5 0 -10 -5 -10 -12 0 -6 -12 -36 -26 -67 -90 -191 -121
-257 -166 -351 -28 -58 -66 -139 -85 -180 -18 -41 -38 -83 -44 -93 -6 -11 -8
-21 -6 -23 8 -8 208 -7 215 1 4 4 7 10 7 13 1 4 33 73 72 155 40 81 72 150 73
152 1 2 20 42 42 87 23 46 42 85 43 88 0 3 16 37 34 76 l33 70 425 0 425 -1
43 -90 c23 -49 69 -144 101 -210 32 -66 58 -122 59 -125 0 -3 20 -45 45 -95
24 -49 43 -92 43 -95 1 -22 95 -46 112 -28 3 3 23 2 43 -2 21 -4 46 -4 55 -1
14 5 14 10 -5 51 -12 25 -22 47 -23 50 -1 3 -15 34 -32 70 -17 36 -46 99 -66
140 -56 121 -101 217 -160 342 -30 64 -52 119 -49 122 3 3 0 6 -6 6 -7 0 -12
4 -12 10 0 9 -15 41 -121 267 -22 45 -57 122 -79 170 -22 48 -49 105 -60 126
-11 22 -20 45 -20 53 0 8 -4 14 -10 14 -5 0 -10 7 -10 15 0 8 -11 34 -25 59
-14 25 -25 52 -25 60 0 9 -4 16 -10 16 -5 0 -10 6 -10 13 0 6 -22 57 -48 112
-26 55 -65 139 -87 187 -32 69 -44 87 -61 88 -12 0 -26 -6 -30 -12z m46 -450
c7 -18 12 -36 11 -40 0 -5 4 -8 9 -8 6 0 10 -4 10 -10 0 -5 19 -49 42 -97 24
-49 43 -90 44 -93 0 -3 14 -34 31 -70 17 -36 56 -119 87 -185 31 -66 61 -128
67 -139 14 -25 1 -32 -48 -28 -21 1 -42 3 -48 2 -120 -4 -375 -1 -383 4 -7 4
-12 4 -12 -1 0 -9 -147 -9 -156 0 -4 3 7 34 24 69 16 35 50 106 75 158 25 52
74 156 109 230 35 74 75 159 88 188 13 28 27 52 31 52 4 0 13 -15 19 -32z"/>
<path d="M18429 11316 c-2 -52 0 -1948 3 -1951 5 -5 48 -7 126 -6 l72 1 0 457
0 458 78 -82 c42 -45 124 -132 182 -193 58 -62 125 -134 150 -160 25 -26 104
-110 175 -186 72 -76 164 -173 205 -217 l75 -79 124 1 c68 0 125 2 127 4 2 2
-27 35 -64 74 -37 38 -112 118 -167 177 -55 60 -122 132 -150 161 -27 29 -93
98 -145 154 -52 56 -124 133 -160 170 -36 37 -112 119 -170 181 -58 63 -115
123 -127 134 -13 11 -23 23 -23 27 0 4 18 25 41 46 22 21 64 61 93 88 29 28
97 91 151 140 53 50 121 113 150 140 54 51 107 101 281 262 156 145 214 200
214 205 0 3 -57 6 -126 6 l-126 0 -41 -37 c-23 -20 -51 -45 -63 -56 -80 -76
-304 -288 -329 -311 -16 -15 -91 -84 -165 -155 -74 -70 -146 -137 -160 -149
l-25 -22 -3 365 -2 365 -100 0 c-68 0 -100 -4 -101 -12z"/>
<path d="M20019 11311 c-4 -92 0 -1943 4 -1947 9 -10 180 -5 186 5 4 5 6 447
6 983 l0 973 -98 1 c-83 1 -97 -1 -98 -15z"/>
<path d="M6030 10854 c-8 -2 -49 -5 -90 -8 -71 -5 -115 -11 -115 -16 0 -1 -13
-4 -30 -6 -39 -7 -177 -77 -229 -116 -114 -88 -214 -219 -261 -343 -11 -27
-20 -52 -20 -55 -1 -3 -5 -25 -9 -50 -5 -25 -10 -54 -12 -65 -11 -52 -5 -206
10 -280 8 -40 50 -160 60 -175 6 -8 20 -31 30 -50 39 -71 151 -193 209 -228
15 -9 27 -20 27 -24 0 -4 6 -8 14 -8 8 0 21 -6 28 -13 7 -7 16 -14 20 -16 4
-1 28 -10 52 -21 96 -41 167 -54 296 -54 126 0 205 17 310 67 86 41 250 172
250 199 0 5 4 7 9 4 5 -4 9 -56 9 -117 0 -60 2 -112 5 -115 6 -6 32 -6 131 -1
l50 2 0 713 c1 392 -1 718 -4 725 -3 8 -34 12 -92 13 l-88 0 -1 -30 c0 -17 0
-75 0 -128 0 -55 -4 -98 -10 -98 -5 0 -9 5 -9 11 0 17 -128 138 -184 173 -61
40 -138 74 -179 82 -17 2 -34 7 -38 9 -4 3 -31 8 -61 11 -29 3 -55 7 -58 8 -3
1 -12 1 -20 0z m140 -199 c55 -9 172 -72 231 -124 124 -110 189 -253 195 -426
8 -255 -114 -459 -331 -556 -27 -13 -54 -24 -60 -25 -5 -1 -37 -9 -70 -16
-162 -39 -367 17 -485 131 -28 26 -52 45 -55 43 -3 -3 -5 0 -5 6 0 7 -15 32
-34 56 -64 85 -110 230 -110 351 0 99 40 225 99 315 99 149 243 237 422 258
62 7 88 5 203 -13z"/>
<path d="M9527 10854 c-1 -1 -29 -5 -62 -7 -33 -3 -72 -10 -87 -16 -16 -6 -28
-9 -28 -6 0 2 -21 -4 -47 -14 -245 -88 -434 -307 -486 -562 -13 -62 -15 -246
-4 -309 41 -226 191 -424 410 -544 26 -14 47 -23 47 -21 0 3 12 -1 28 -9 68
-35 271 -53 371 -34 25 5 57 11 70 14 42 9 143 53 195 86 54 35 95 69 157 132
l39 39 1 -74 c0 -41 0 -96 -1 -123 -1 -41 1 -48 14 -43 9 4 16 3 16 -1 0 -7
126 -6 146 2 7 3 10 22 9 45 -2 23 1 44 6 47 5 3 6 11 2 17 -10 16 -10 107 0
107 5 0 5 5 1 12 -10 17 -12 149 -3 169 5 9 5 19 2 23 -10 9 -10 147 -1 152 5
3 5 11 1 17 -4 6 -7 203 -8 437 l0 425 -80 1 c-44 0 -86 -2 -93 -4 -9 -3 -13
-20 -12 -51 1 -25 1 -81 1 -124 l-1 -78 -82 84 c-81 82 -208 167 -250 167 -10
0 -18 4 -18 8 0 4 -8 8 -17 9 -10 0 -29 4 -43 7 -43 10 -187 25 -193 20z m119
-188 c168 -17 353 -145 428 -296 95 -190 94 -389 -2 -579 -29 -57 -138 -181
-159 -181 -7 0 -13 -4 -13 -8 0 -15 -123 -71 -190 -88 -99 -25 -246 -22 -317
7 -70 29 -130 59 -151 76 -60 47 -112 97 -112 108 0 7 -6 15 -12 18 -7 2 -31
38 -52 78 -160 298 -47 665 249 809 83 40 226 74 270 63 6 -1 33 -4 61 -7z"/>
<path d="M11175 10845 c-22 -6 -44 -12 -48 -12 -52 -8 -181 -109 -233 -184
l-29 -42 -5 104 -5 104 -92 0 -93 1 0 -728 c0 -575 3 -728 13 -729 28 -2 170
1 173 3 1 2 4 192 7 423 2 231 7 429 10 440 3 11 8 43 11 70 4 28 12 66 18 85
7 19 13 37 13 40 6 21 28 63 53 101 67 98 144 145 237 142 33 -1 71 -3 84 -5
20 -2 31 8 67 67 24 38 44 72 44 76 0 10 -81 41 -120 46 -19 2 -42 5 -50 7 -9
2 -34 -2 -55 -9z"/>
<path d="M2068 10829 c-93 -26 -183 -69 -256 -124 -28 -20 -162 -158 -162
-166 0 -4 -6 -14 -14 -21 -32 -33 -101 -191 -110 -255 -4 -21 -9 -50 -11 -63
-5 -23 -6 -130 -2 -237 1 -24 5 -43 8 -43 3 0 6 -6 7 -12 5 -65 83 -232 135
-292 173 -199 341 -285 566 -291 152 -4 265 24 391 97 64 36 93 60 177 140
l41 40 -1 -112 c-1 -69 2 -115 9 -120 10 -9 101 -13 154 -8 l24 3 1 710 c0
391 -1 717 -3 726 -3 12 -19 15 -90 15 -48 0 -89 -3 -92 -7 -3 -4 -4 -62 -4
-128 l1 -122 -71 74 c-108 111 -195 163 -339 200 -83 22 -272 20 -359 -4z
m337 -170 c94 -21 192 -77 269 -154 79 -81 104 -117 135 -200 30 -79 36 -116
35 -225 -1 -158 -27 -244 -108 -355 -38 -52 -114 -122 -148 -138 -16 -6 -28
-15 -28 -18 0 -7 -50 -23 -62 -21 -5 1 -8 -2 -8 -6 0 -5 -17 -14 -37 -20 -223
-66 -447 -6 -597 159 -72 80 -132 202 -152 309 -16 88 0 251 29 288 5 6 6 12
3 12 -4 0 10 33 30 73 71 135 198 239 354 288 64 20 210 24 285 8z"/>
<path d="M11539 10780 c-4 -202 4 -885 11 -885 1 0 3 -16 5 -35 1 -19 3 -35 4
-35 1 0 4 -16 7 -35 13 -99 77 -223 161 -308 47 -48 186 -126 243 -136 14 -3
36 -8 50 -11 52 -12 243 -12 303 0 94 20 103 22 151 43 134 60 249 192 292
338 24 80 23 77 40 219 7 54 12 826 6 861 -3 19 -10 20 -99 20 l-95 -1 4 -37
c2 -21 -1 -38 -5 -38 -5 0 -4 -6 2 -13 6 -8 9 -16 6 -18 -2 -3 -4 -63 -4 -134
-1 -131 -1 -320 -1 -352 -1 -10 -1 -65 -1 -123 -1 -171 -11 -295 -28 -328 -44
-88 -60 -113 -100 -150 -114 -106 -282 -142 -461 -97 -8 2 -16 4 -17 5 -2 2
-6 3 -10 4 -5 1 -29 12 -55 25 -68 35 -133 102 -167 174 -47 99 -51 144 -51
670 0 224 -3 408 -8 408 -4 1 -46 2 -94 3 l-88 2 -1 -36z"/>
<path d="M4794 8047 c-109 -35 -143 -177 -61 -255 94 -89 237 -41 260 88 5 28
-18 107 -36 124 -47 44 -108 60 -163 43z"/>
<path d="M988 7495 c-2 -2 -33 -5 -70 -6 -117 -4 -286 -67 -368 -139 -52 -45
-106 -99 -124 -124 -10 -14 -22 -24 -25 -21 -8 9 -7 145 1 145 4 0 5 7 1 17
-3 9 -7 32 -7 52 l-1 36 -90 0 -90 0 -3 -995 -2 -995 87 2 c49 1 91 2 95 3 4
0 8 10 8 23 0 12 0 31 0 42 0 11 0 67 0 125 0 129 0 102 -3 248 -1 67 2 122 6
122 5 0 5 6 0 13 -11 17 -11 119 0 135 6 7 6 12 0 12 -8 0 -10 24 -4 49 1 2
27 -23 59 -55 107 -108 267 -193 395 -211 261 -36 478 36 658 218 39 40 139
177 139 192 0 2 8 22 17 43 9 22 18 44 19 49 57 192 51 389 -16 550 -7 17 -14
35 -15 40 -12 54 -235 305 -271 305 -8 0 -14 4 -14 9 0 7 -96 54 -155 76 -38
14 -90 25 -145 31 -30 3 -60 7 -67 9 -6 2 -13 2 -15 0z m98 -198 c69 -16 184
-65 184 -78 0 -5 6 -9 14 -9 14 0 146 -128 146 -142 0 -5 12 -26 26 -47 14
-21 36 -72 50 -112 45 -133 38 -289 -20 -423 -21 -51 -91 -153 -131 -191 -42
-42 -156 -115 -177 -115 -10 0 -18 -5 -18 -12 0 -6 -3 -9 -6 -5 -3 3 -17 1
-31 -4 -84 -32 -229 -29 -338 5 -188 60 -325 200 -380 389 -18 61 -24 203 -12
277 31 195 162 361 347 440 30 13 65 24 77 24 12 1 24 4 27 7 12 12 186 9 242
-4z"/>
<path d="M2680 7488 c-177 -20 -312 -87 -440 -219 -95 -97 -93 -95 -140 -182
-38 -71 -63 -143 -77 -222 -9 -50 -9 -230 0 -270 4 -16 9 -41 12 -54 30 -151
133 -312 269 -420 35 -28 69 -51 75 -51 6 0 11 -3 11 -8 0 -17 169 -79 245
-89 84 -12 236 -6 304 11 72 20 201 75 201 87 0 4 9 10 20 14 24 7 68 44 132
109 27 28 48 43 49 35 1 -8 2 -61 3 -119 1 -101 2 -105 23 -105 12 0 25 -4 28
-7 4 -4 18 -3 31 2 13 5 25 6 28 2 3 -5 21 -6 40 -4 l36 4 0 723 c0 569 -3
724 -12 727 -7 2 -49 4 -93 4 l-80 -1 0 -127 c0 -71 -1 -128 -3 -128 -2 0 -14
12 -28 28 -65 71 -82 88 -128 125 -136 106 -320 156 -506 135z m239 -192 c97
-23 205 -85 264 -151 57 -63 70 -79 89 -113 40 -70 48 -87 48 -103 0 -9 3 -19
7 -23 4 -3 8 -14 10 -24 34 -180 17 -322 -53 -451 -118 -216 -373 -334 -614
-285 -344 71 -547 430 -434 770 15 46 31 84 36 84 4 0 8 6 8 13 0 41 131 175
219 224 97 55 177 74 296 69 55 -2 111 -6 124 -10z"/>
<path d="M4384 7484 c-32 -7 -81 -24 -108 -39 -49 -28 -144 -116 -184 -170
l-22 -30 1 85 c1 140 12 126 -88 125 -104 0 -115 -5 -103 -44 4 -16 6 -32 3
-35 -6 -5 -8 -89 -3 -111 1 -5 1 -14 0 -20 -2 -14 -2 -208 0 -220 1 -5 1 -14
0 -20 -2 -14 -2 -208 0 -220 1 -5 1 -14 0 -20 -2 -14 -2 -208 0 -220 1 -5 1
-14 0 -20 -2 -14 -2 -208 0 -220 1 -5 2 -12 1 -15 -1 -3 -3 -67 -3 -143 -1
-91 3 -142 11 -150 8 -8 11 -8 11 0 0 8 9 9 29 3 15 -4 34 -5 40 -1 7 4 32 5
56 1 l45 -7 0 36 c0 20 2 201 3 403 1 203 4 368 7 368 3 0 5 17 4 37 0 33 5
72 20 148 25 123 111 246 207 297 45 24 119 30 184 14 29 -7 31 -4 73 67 23
41 42 76 42 79 0 10 -83 41 -126 48 -22 3 -67 1 -100 -6z"/>
<path d="M5638 7495 c-1 -1 -23 -5 -48 -8 -92 -11 -150 -38 -223 -107 -80 -74
-117 -168 -112 -282 4 -80 10 -109 37 -165 37 -79 126 -158 263 -233 33 -18
76 -42 95 -53 19 -11 48 -27 64 -35 53 -27 119 -89 141 -133 9 -16 17 -54 19
-84 6 -86 -39 -165 -126 -220 -16 -9 -28 -15 -28 -12 0 3 -12 0 -27 -8 -17 -9
-51 -13 -97 -11 -87 3 -158 35 -237 106 l-54 49 -57 -62 c-32 -34 -58 -66 -58
-70 0 -18 104 -106 160 -136 112 -60 261 -82 380 -56 88 19 199 97 255 180 69
101 90 254 51 360 -5 11 -13 34 -19 50 -13 35 -140 165 -183 187 -51 27 -238
134 -269 153 -43 28 -105 90 -122 122 -35 68 -23 159 30 213 40 41 67 63 67
55 0 -3 12 1 28 8 45 23 142 13 217 -24 36 -17 65 -35 65 -40 0 -5 5 -9 10 -9
6 0 22 -11 36 -25 14 -14 30 -25 37 -25 12 0 117 105 117 117 0 9 -62 61 -120
100 -69 47 -157 83 -218 89 -26 3 -52 7 -59 9 -6 2 -13 2 -15 0z"/>
<path d="M4749 7446 c-1 -6 -2 -332 -3 -725 -1 -544 2 -715 11 -718 21 -8 78
-9 101 -1 12 4 22 4 22 -1 0 -5 12 -6 28 -2 l27 7 0 718 c0 394 -2 720 -5 724
-8 12 -180 9 -181 -2z"/>
</g>
</svg>
