<svg width="20" height="22" viewBox="0 0 20 22" fill="none" xmlns="http://www.w3.org/2000/svg">
<path d="M7.12527 9.88889V4.33333C7.12527 2.49238 8.57525 1 10.3639 1C12.1526 1 13.6025 2.49238 13.6025 4.33333V9.85252M8.63663 21H12.0912C14.5096 21 15.7188 21 16.6425 20.5156C17.455 20.0895 18.1156 19.4096 18.5296 18.5733C19.0003 17.6226 19.0003 16.378 19.0003 13.8889V11.2222C19.0003 9.97766 19.0003 9.35538 18.7649 8.88002C18.5579 8.46188 18.2276 8.12193 17.8214 7.90887C17.3595 7.66667 16.7549 7.66667 15.5457 7.66667H5.18208C3.97288 7.66667 3.36828 7.66667 2.90642 7.90887C2.50016 8.12193 2.16987 8.46188 1.96287 8.88002C1.72754 9.35538 1.72754 9.97766 1.72754 11.2222V13.8889C1.72754 16.378 1.72754 17.6226 2.19819 18.5733C2.61219 19.4096 3.27279 20.0895 4.08531 20.5156C5.00902 21 6.21822 21 8.63663 21Z" stroke="#2F4842" stroke-width="2" stroke-linecap="round" stroke-linejoin="round"/>
</svg>
