<svg width="22" height="22" viewBox="0 0 22 22" fill="none" xmlns="http://www.w3.org/2000/svg">
<path d="M15.7381 21H6.26135C3.36126 21 1 18.6391 1 15.7386V6.26135C1 3.36131 3.36131 1 6.26135 1H15.7381C18.6382 1 20.9995 3.36087 20.9995 6.26135V15.7386C20.9995 18.6387 18.6382 21 15.7381 21Z" stroke="#F0E4D8" stroke-width="2"/>
<path d="M18.2278 5.04483C18.2278 5.79234 17.6214 6.39823 16.8739 6.39823C16.1264 6.39823 15.52 5.79234 15.52 5.04483C15.52 4.29732 16.1264 3.69043 16.8739 3.69043C17.6214 3.69043 18.2278 4.29682 18.2278 5.04483Z" fill="#F0E4D8"/>
<path d="M15.6088 10.9978C15.6088 13.5444 13.5444 15.6088 10.9978 15.6088C8.45115 15.6088 6.38672 13.5444 6.38672 10.9978C6.38672 8.45115 8.45115 6.38672 10.9978 6.38672C13.5444 6.38672 15.6088 8.45115 15.6088 10.9978Z" stroke="#F0E4D8" stroke-width="2"/>
</svg>
