<svg width="23" height="22" viewBox="0 0 23 22" fill="none" xmlns="http://www.w3.org/2000/svg">
<path d="M16.1218 20.6669H6.89616C3.94953 20.6669 1.55078 18.2685 1.55078 15.3215V6.09538C1.55078 3.14879 3.94957 0.75 6.89616 0.75H16.1218C19.0684 0.75 21.4671 3.14834 21.4671 6.09538V15.3215C21.4671 18.2681 19.0684 20.6669 16.1218 20.6669Z" stroke="#F0E4D8" stroke-width="1.5"/>
<path d="M18.5454 4.91158C18.5454 5.63928 17.9551 6.22911 17.2274 6.22911C16.4997 6.22911 15.9094 5.63928 15.9094 4.91158C15.9094 4.18389 16.4997 3.59309 17.2274 3.59309C17.9551 3.59309 18.5454 4.1834 18.5454 4.91158Z" fill="#F0E4D8"/>
<path d="M16.2198 10.7064C16.2198 13.309 14.11 15.4187 11.5075 15.4187C8.90494 15.4187 6.79517 13.309 6.79517 10.7064C6.79517 8.10389 8.90494 5.99412 11.5075 5.99412C14.11 5.99412 16.2198 8.10389 16.2198 10.7064Z" stroke="#F0E4D8" stroke-width="1.5"/>
</svg>
