<svg width="220" height="15" viewBox="0 0 220 15" fill="none" xmlns="http://www.w3.org/2000/svg">
<path d="M0.157227 4.03125H1.17529V5.49609C1.58057 4.93945 2.04688 4.52197 2.57422 4.24365C3.10156 3.96533 3.68994 3.82617 4.33936 3.82617C5.47217 3.82617 6.44141 4.23389 7.24707 5.04932C8.05273 5.86475 8.45557 6.84619 8.45557 7.99365C8.45557 9.16553 8.05518 10.1616 7.25439 10.9819C6.4585 11.7974 5.49658 12.2051 4.36865 12.2051C3.73389 12.2051 3.15039 12.0732 2.61816 11.8096C2.08594 11.5459 1.60498 11.1528 1.17529 10.6304V14.915H0.157227V4.03125ZM4.25879 4.81494C3.37012 4.81494 2.62061 5.125 2.01025 5.74512C1.40479 6.36523 1.10205 7.13672 1.10205 8.05957C1.10205 8.66504 1.23633 9.20947 1.50488 9.69287C1.77832 10.1763 2.1665 10.5596 2.66943 10.8428C3.17725 11.126 3.71191 11.2676 4.27344 11.2676C4.8252 11.2676 5.34277 11.126 5.82617 10.8428C6.31445 10.5547 6.70264 10.1543 6.99072 9.6416C7.27881 9.12891 7.42285 8.5918 7.42285 8.03027C7.42285 7.46387 7.27881 6.92676 6.99072 6.41895C6.70752 5.91113 6.32422 5.51807 5.84082 5.23975C5.35742 4.95654 4.83008 4.81494 4.25879 4.81494ZM21.5293 1.07227H22.562V4.03125H24.188V4.91016H22.562V12H21.5293V4.91016H20.1304V4.03125H21.5293V1.07227ZM26.0776 0.75C26.312 0.75 26.5122 0.833008 26.6782 0.999023C26.8442 1.16504 26.9272 1.36523 26.9272 1.59961C26.9272 1.8291 26.8442 2.02686 26.6782 2.19287C26.5122 2.35889 26.312 2.44189 26.0776 2.44189C25.8481 2.44189 25.6504 2.35889 25.4844 2.19287C25.3184 2.02686 25.2354 1.8291 25.2354 1.59961C25.2354 1.36523 25.3184 1.16504 25.4844 0.999023C25.6504 0.833008 25.8481 0.75 26.0776 0.75ZM25.5649 4.03125H26.5977V12H25.5649V4.03125ZM47.0908 9.35596L47.9551 9.81006C47.6719 10.3667 47.3447 10.8159 46.9736 11.1577C46.6025 11.4995 46.1851 11.7607 45.7212 11.9414C45.2573 12.1172 44.7324 12.2051 44.1465 12.2051C42.8477 12.2051 41.832 11.7803 41.0996 10.9307C40.3672 10.0762 40.001 9.11182 40.001 8.0376C40.001 7.02686 40.311 6.12598 40.9312 5.33496C41.7173 4.3291 42.7695 3.82617 44.0879 3.82617C45.4453 3.82617 46.5293 4.34131 47.3398 5.37158C47.916 6.09912 48.209 7.00732 48.2188 8.09619H41.0557C41.0752 9.02393 41.3706 9.78564 41.9419 10.3813C42.5132 10.9722 43.2188 11.2676 44.0586 11.2676C44.4639 11.2676 44.8569 11.1968 45.2378 11.0552C45.6235 10.9136 45.9507 10.7256 46.2192 10.4912C46.4878 10.2568 46.7783 9.87842 47.0908 9.35596ZM47.0908 7.20996C46.9541 6.66309 46.7539 6.22607 46.4902 5.89893C46.2314 5.57178 45.8872 5.30811 45.4575 5.10791C45.0278 4.90771 44.5762 4.80762 44.1025 4.80762C43.3213 4.80762 42.6499 5.05908 42.0884 5.56201C41.6782 5.92822 41.3682 6.47754 41.1582 7.20996H47.0908ZM49.7495 4.03125H50.7969V5.1958C51.1094 4.73682 51.439 4.39502 51.7856 4.17041C52.1323 3.94092 52.4937 3.82617 52.8696 3.82617C53.1528 3.82617 53.4556 3.9165 53.7778 4.09717L53.2432 4.96143C53.0283 4.86865 52.8477 4.82227 52.7012 4.82227C52.3594 4.82227 52.0298 4.96387 51.7124 5.24707C51.395 5.52539 51.1533 5.95996 50.9873 6.55078C50.8604 7.00488 50.7969 7.92285 50.7969 9.30469V12H49.7495V4.03125ZM55.0083 0.75C55.2427 0.75 55.4429 0.833008 55.6089 0.999023C55.7749 1.16504 55.8579 1.36523 55.8579 1.59961C55.8579 1.8291 55.7749 2.02686 55.6089 2.19287C55.4429 2.35889 55.2427 2.44189 55.0083 2.44189C54.7788 2.44189 54.5811 2.35889 54.415 2.19287C54.249 2.02686 54.166 1.8291 54.166 1.59961C54.166 1.36523 54.249 1.16504 54.415 0.999023C54.5811 0.833008 54.7788 0.75 55.0083 0.75ZM54.4956 4.03125H55.5283V12H54.4956V4.03125ZM64.3613 9.35596L65.2256 9.81006C64.9424 10.3667 64.6152 10.8159 64.2441 11.1577C63.873 11.4995 63.4556 11.7607 62.9917 11.9414C62.5278 12.1172 62.0029 12.2051 61.417 12.2051C60.1182 12.2051 59.1025 11.7803 58.3701 10.9307C57.6377 10.0762 57.2715 9.11182 57.2715 8.0376C57.2715 7.02686 57.5815 6.12598 58.2017 5.33496C58.9878 4.3291 60.04 3.82617 61.3584 3.82617C62.7158 3.82617 63.7998 4.34131 64.6104 5.37158C65.1865 6.09912 65.4795 7.00732 65.4893 8.09619H58.3262C58.3457 9.02393 58.6411 9.78564 59.2124 10.3813C59.7837 10.9722 60.4893 11.2676 61.3291 11.2676C61.7344 11.2676 62.1274 11.1968 62.5083 11.0552C62.894 10.9136 63.2212 10.7256 63.4897 10.4912C63.7583 10.2568 64.0488 9.87842 64.3613 9.35596ZM64.3613 7.20996C64.2246 6.66309 64.0244 6.22607 63.7607 5.89893C63.502 5.57178 63.1577 5.30811 62.728 5.10791C62.2983 4.90771 61.8467 4.80762 61.373 4.80762C60.5918 4.80762 59.9204 5.05908 59.3589 5.56201C58.9487 5.92822 58.6387 6.47754 58.4287 7.20996H64.3613ZM97.2471 0.955078V12H96.2363V10.6304C95.8066 11.1528 95.3232 11.5459 94.7861 11.8096C94.2539 12.0732 93.6704 12.2051 93.0356 12.2051C91.9077 12.2051 90.9434 11.7974 90.1426 10.9819C89.3467 10.1616 88.9487 9.16553 88.9487 7.99365C88.9487 6.84619 89.3516 5.86475 90.1572 5.04932C90.9629 4.23389 91.9321 3.82617 93.0649 3.82617C93.7192 3.82617 94.3101 3.96533 94.8374 4.24365C95.3696 4.52197 95.8359 4.93945 96.2363 5.49609V0.955078H97.2471ZM93.1455 4.81494C92.5742 4.81494 92.0469 4.95654 91.5635 5.23975C91.0801 5.51807 90.6943 5.91113 90.4062 6.41895C90.123 6.92676 89.9814 7.46387 89.9814 8.03027C89.9814 8.5918 90.1255 9.12891 90.4136 9.6416C90.7017 10.1543 91.0874 10.5547 91.5708 10.8428C92.0591 11.126 92.5815 11.2676 93.1382 11.2676C93.6997 11.2676 94.2319 11.126 94.7349 10.8428C95.2378 10.5596 95.6235 10.1763 95.8921 9.69287C96.1655 9.20947 96.3022 8.66504 96.3022 8.05957C96.3022 7.13672 95.9971 6.36523 95.3867 5.74512C94.7812 5.125 94.0342 4.81494 93.1455 4.81494ZM109.83 0.955078H110.855V5.45947C111.271 4.9126 111.727 4.50488 112.225 4.23633C112.723 3.96289 113.263 3.82617 113.844 3.82617C114.439 3.82617 114.967 3.97754 115.426 4.28027C115.89 4.58301 116.231 4.99072 116.451 5.50342C116.671 6.01123 116.781 6.80957 116.781 7.89844V12H115.755V8.19873C115.755 7.28076 115.719 6.66797 115.646 6.36035C115.519 5.83301 115.287 5.4375 114.95 5.17383C114.618 4.90527 114.181 4.771 113.639 4.771C113.019 4.771 112.462 4.97607 111.969 5.38623C111.48 5.79639 111.158 6.3042 111.002 6.90967C110.904 7.30029 110.855 8.02295 110.855 9.07764V12H109.83V0.955078ZM128.851 4.03125H129.898V5.1958C130.211 4.73682 130.541 4.39502 130.887 4.17041C131.234 3.94092 131.595 3.82617 131.971 3.82617C132.254 3.82617 132.557 3.9165 132.879 4.09717L132.345 4.96143C132.13 4.86865 131.949 4.82227 131.803 4.82227C131.461 4.82227 131.131 4.96387 130.814 5.24707C130.497 5.52539 130.255 5.95996 130.089 6.55078C129.962 7.00488 129.898 7.92285 129.898 9.30469V12H128.851V4.03125ZM133.619 4.03125H134.652V7.75195C134.652 8.66016 134.701 9.28516 134.798 9.62695C134.945 10.1152 135.223 10.501 135.633 10.7842C136.048 11.0674 136.542 11.209 137.113 11.209C137.684 11.209 138.167 11.0723 138.563 10.7988C138.963 10.5205 139.239 10.1567 139.391 9.70752C139.493 9.3999 139.544 8.74805 139.544 7.75195V4.03125H140.592V7.94238C140.592 9.04102 140.462 9.86865 140.204 10.4253C139.95 10.9819 139.564 11.4189 139.046 11.7363C138.534 12.0488 137.889 12.2051 137.113 12.2051C136.336 12.2051 135.687 12.0488 135.165 11.7363C134.647 11.4189 134.259 10.9795 134 10.418C133.746 9.85156 133.619 9.00195 133.619 7.86914V4.03125ZM163.443 0.955078C165.074 0.955078 166.439 1.49951 167.538 2.58838C168.636 3.67725 169.186 5.01758 169.186 6.60938C169.186 8.18652 168.636 9.52441 167.538 10.623C166.444 11.7217 165.108 12.271 163.531 12.271C161.935 12.271 160.587 11.7241 159.488 10.6304C158.39 9.53662 157.84 8.21338 157.84 6.66064C157.84 5.62549 158.089 4.66602 158.587 3.78223C159.09 2.89844 159.774 2.20752 160.638 1.70947C161.502 1.20654 162.438 0.955078 163.443 0.955078ZM163.495 2.00977C162.699 2.00977 161.944 2.21729 161.231 2.63232C160.519 3.04736 159.962 3.60645 159.562 4.30957C159.161 5.0127 158.961 5.79639 158.961 6.66064C158.961 7.93994 159.403 9.02148 160.287 9.90527C161.175 10.7842 162.245 11.2236 163.495 11.2236C164.33 11.2236 165.101 11.021 165.809 10.6157C166.522 10.2104 167.076 9.65625 167.472 8.95312C167.872 8.25 168.072 7.46875 168.072 6.60938C168.072 5.75488 167.872 4.9834 167.472 4.29492C167.076 3.60156 166.517 3.04736 165.794 2.63232C165.072 2.21729 164.305 2.00977 163.495 2.00977ZM171.346 1.22607H172.445V5.26904L176.744 1.22607H178.202L173.023 6.06006L178.604 12H177.176L172.445 6.97559V12H171.346V1.22607ZM180.055 1.22607H181.131V12H180.055V1.22607ZM187.613 4.03125H188.631V5.49609C189.037 4.93945 189.503 4.52197 190.03 4.24365C190.558 3.96533 191.146 3.82617 191.795 3.82617C192.928 3.82617 193.897 4.23389 194.703 5.04932C195.509 5.86475 195.912 6.84619 195.912 7.99365C195.912 9.16553 195.511 10.1616 194.71 10.9819C193.915 11.7974 192.953 12.2051 191.825 12.2051C191.19 12.2051 190.606 12.0732 190.074 11.8096C189.542 11.5459 189.061 11.1528 188.631 10.6304V14.915H187.613V4.03125ZM191.715 4.81494C190.826 4.81494 190.077 5.125 189.466 5.74512C188.861 6.36523 188.558 7.13672 188.558 8.05957C188.558 8.66504 188.692 9.20947 188.961 9.69287C189.234 10.1763 189.623 10.5596 190.125 10.8428C190.633 11.126 191.168 11.2676 191.729 11.2676C192.281 11.2676 192.799 11.126 193.282 10.8428C193.771 10.5547 194.159 10.1543 194.447 9.6416C194.735 9.12891 194.879 8.5918 194.879 8.03027C194.879 7.46387 194.735 6.92676 194.447 6.41895C194.164 5.91113 193.78 5.51807 193.297 5.23975C192.813 4.95654 192.286 4.81494 191.715 4.81494ZM207.704 4.03125H208.751V5.1958C209.063 4.73682 209.393 4.39502 209.74 4.17041C210.086 3.94092 210.448 3.82617 210.824 3.82617C211.107 3.82617 211.41 3.9165 211.732 4.09717L211.197 4.96143C210.982 4.86865 210.802 4.82227 210.655 4.82227C210.313 4.82227 209.984 4.96387 209.667 5.24707C209.349 5.52539 209.107 5.95996 208.941 6.55078C208.814 7.00488 208.751 7.92285 208.751 9.30469V12H207.704V4.03125ZM212.962 0.75C213.197 0.75 213.397 0.833008 213.563 0.999023C213.729 1.16504 213.812 1.36523 213.812 1.59961C213.812 1.8291 213.729 2.02686 213.563 2.19287C213.397 2.35889 213.197 2.44189 212.962 2.44189C212.733 2.44189 212.535 2.35889 212.369 2.19287C212.203 2.02686 212.12 1.8291 212.12 1.59961C212.12 1.36523 212.203 1.16504 212.369 0.999023C212.535 0.833008 212.733 0.75 212.962 0.75ZM212.45 4.03125H213.482V12H212.45V4.03125Z" fill="#909090"/>
<path d="M18.3213 4.03125V12H17.3105V10.6304C16.8809 11.1528 16.3975 11.5459 15.8604 11.8096C15.3281 12.0732 14.7446 12.2051 14.1099 12.2051C12.9819 12.2051 12.0176 11.7974 11.2168 10.9819C10.4209 10.1616 10.0229 9.16553 10.0229 7.99365C10.0229 6.84619 10.4258 5.86475 11.2314 5.04932C12.0371 4.23389 13.0063 3.82617 14.1392 3.82617C14.7935 3.82617 15.3843 3.96533 15.9116 4.24365C16.4438 4.52197 16.9102 4.93945 17.3105 5.49609V4.03125H18.3213ZM14.2197 4.81494C13.6484 4.81494 13.1211 4.95654 12.6377 5.23975C12.1543 5.51807 11.7686 5.91113 11.4805 6.41895C11.1973 6.92676 11.0557 7.46387 11.0557 8.03027C11.0557 8.5918 11.1997 9.12891 11.4878 9.6416C11.7759 10.1543 12.1616 10.5547 12.645 10.8428C13.1333 11.126 13.6558 11.2676 14.2124 11.2676C14.7739 11.2676 15.3062 11.126 15.8091 10.8428C16.312 10.5596 16.6978 10.1763 16.9663 9.69287C17.2397 9.20947 17.3765 8.66504 17.3765 8.05957C17.3765 7.13672 17.0713 6.36523 16.4609 5.74512C15.8555 5.125 15.1084 4.81494 14.2197 4.81494ZM13.8755 0.706055H14.8936L17.0176 2.58838H15.6992L14.4102 1.4751L13.0625 2.58838H11.7002L13.8755 0.706055ZM32.728 4.90283L32.0688 5.58398C31.522 5.05176 30.9873 4.78564 30.4648 4.78564C30.1328 4.78564 29.8472 4.89551 29.6079 5.11523C29.3735 5.33496 29.2563 5.59131 29.2563 5.88428C29.2563 6.14307 29.354 6.38965 29.5493 6.62402C29.7446 6.86328 30.1548 7.14404 30.7798 7.46631C31.5415 7.86182 32.0591 8.24268 32.3325 8.60889C32.6011 8.97998 32.7354 9.39746 32.7354 9.86133C32.7354 10.5156 32.5059 11.0698 32.0469 11.5239C31.5879 11.978 31.0142 12.2051 30.3257 12.2051C29.8667 12.2051 29.4272 12.105 29.0073 11.9048C28.5923 11.7046 28.248 11.4287 27.9746 11.0771L28.6191 10.3447C29.1416 10.9355 29.6958 11.231 30.2817 11.231C30.6919 11.231 31.041 11.0991 31.3291 10.8354C31.6172 10.5718 31.7612 10.2617 31.7612 9.90527C31.7612 9.6123 31.666 9.35107 31.4756 9.12158C31.2852 8.89697 30.8555 8.61377 30.1865 8.27197C29.4688 7.90088 28.9805 7.53467 28.7217 7.17334C28.4629 6.81201 28.3335 6.39941 28.3335 5.93555C28.3335 5.33008 28.5386 4.82715 28.9487 4.42676C29.3638 4.02637 29.8862 3.82617 30.5161 3.82617C31.2485 3.82617 31.9858 4.18506 32.728 4.90283ZM38.5581 4.90283L37.8989 5.58398C37.3521 5.05176 36.8174 4.78564 36.2949 4.78564C35.9629 4.78564 35.6772 4.89551 35.438 5.11523C35.2036 5.33496 35.0864 5.59131 35.0864 5.88428C35.0864 6.14307 35.1841 6.38965 35.3794 6.62402C35.5747 6.86328 35.9849 7.14404 36.6099 7.46631C37.3716 7.86182 37.8892 8.24268 38.1626 8.60889C38.4312 8.97998 38.5654 9.39746 38.5654 9.86133C38.5654 10.5156 38.3359 11.0698 37.877 11.5239C37.418 11.978 36.8442 12.2051 36.1558 12.2051C35.6968 12.2051 35.2573 12.105 34.8374 11.9048C34.4224 11.7046 34.0781 11.4287 33.8047 11.0771L34.4492 10.3447C34.9717 10.9355 35.5259 11.231 36.1118 11.231C36.522 11.231 36.8711 11.0991 37.1592 10.8354C37.4473 10.5718 37.5913 10.2617 37.5913 9.90527C37.5913 9.6123 37.4961 9.35107 37.3057 9.12158C37.1152 8.89697 36.6855 8.61377 36.0166 8.27197C35.2988 7.90088 34.8105 7.53467 34.5518 7.17334C34.293 6.81201 34.1636 6.39941 34.1636 5.93555C34.1636 5.33008 34.3687 4.82715 34.7788 4.42676C35.1938 4.02637 35.7163 3.82617 36.3462 3.82617C37.0786 3.82617 37.8159 4.18506 38.5581 4.90283ZM70.6235 9.99316L71.5391 9.44385C72.1836 10.6304 72.9282 11.2236 73.7729 11.2236C74.1343 11.2236 74.4736 11.1406 74.791 10.9746C75.1084 10.8037 75.3501 10.5767 75.5161 10.2935C75.6821 10.0103 75.7651 9.70996 75.7651 9.39258C75.7651 9.03125 75.6431 8.67725 75.3989 8.33057C75.062 7.85205 74.4468 7.27588 73.5532 6.60205C72.6548 5.92334 72.0957 5.43262 71.876 5.12988C71.4951 4.62207 71.3047 4.07275 71.3047 3.48193C71.3047 3.01318 71.417 2.58594 71.6416 2.2002C71.8662 1.81445 72.1812 1.51172 72.5864 1.29199C72.9966 1.06738 73.4409 0.955078 73.9194 0.955078C74.4272 0.955078 74.9009 1.08203 75.3403 1.33594C75.7847 1.58496 76.2534 2.04639 76.7466 2.72021L75.8677 3.38672C75.4624 2.84961 75.1157 2.49561 74.8276 2.32471C74.5444 2.15381 74.2344 2.06836 73.8975 2.06836C73.4629 2.06836 73.1064 2.2002 72.8281 2.46387C72.5547 2.72754 72.418 3.05225 72.418 3.43799C72.418 3.67236 72.4668 3.89941 72.5645 4.11914C72.6621 4.33887 72.8403 4.57812 73.0991 4.83691C73.2407 4.97363 73.7046 5.33252 74.4907 5.91357C75.4233 6.60205 76.063 7.21484 76.4097 7.75195C76.7563 8.28906 76.9297 8.82861 76.9297 9.37061C76.9297 10.1519 76.6318 10.8306 76.0361 11.4067C75.4453 11.9829 74.7251 12.271 73.8755 12.271C73.2212 12.271 72.6279 12.0977 72.0957 11.751C71.5635 11.3994 71.0728 10.8135 70.6235 9.99316ZM86.9785 4.03125V12H85.9678V10.6304C85.5381 11.1528 85.0547 11.5459 84.5176 11.8096C83.9854 12.0732 83.4019 12.2051 82.7671 12.2051C81.6392 12.2051 80.6748 11.7974 79.874 10.9819C79.0781 10.1616 78.6802 9.16553 78.6802 7.99365C78.6802 6.84619 79.083 5.86475 79.8887 5.04932C80.6943 4.23389 81.6636 3.82617 82.7964 3.82617C83.4507 3.82617 84.0415 3.96533 84.5688 4.24365C85.1011 4.52197 85.5674 4.93945 85.9678 5.49609V4.03125H86.9785ZM82.877 4.81494C82.3057 4.81494 81.7783 4.95654 81.2949 5.23975C80.8115 5.51807 80.4258 5.91113 80.1377 6.41895C79.8545 6.92676 79.7129 7.46387 79.7129 8.03027C79.7129 8.5918 79.8569 9.12891 80.145 9.6416C80.4331 10.1543 80.8188 10.5547 81.3022 10.8428C81.7905 11.126 82.313 11.2676 82.8696 11.2676C83.4312 11.2676 83.9634 11.126 84.4663 10.8428C84.9692 10.5596 85.355 10.1763 85.6235 9.69287C85.897 9.20947 86.0337 8.66504 86.0337 8.05957C86.0337 7.13672 85.7285 6.36523 85.1182 5.74512C84.5127 5.125 83.7656 4.81494 82.877 4.81494ZM107.516 4.03125V12H106.505V10.6304C106.075 11.1528 105.592 11.5459 105.055 11.8096C104.522 12.0732 103.939 12.2051 103.304 12.2051C102.176 12.2051 101.212 11.7974 100.411 10.9819C99.6152 10.1616 99.2173 9.16553 99.2173 7.99365C99.2173 6.84619 99.6201 5.86475 100.426 5.04932C101.231 4.23389 102.201 3.82617 103.333 3.82617C103.988 3.82617 104.579 3.96533 105.106 4.24365C105.638 4.52197 106.104 4.93945 106.505 5.49609V4.03125H107.516ZM103.414 4.81494C102.843 4.81494 102.315 4.95654 101.832 5.23975C101.349 5.51807 100.963 5.91113 100.675 6.41895C100.392 6.92676 100.25 7.46387 100.25 8.03027C100.25 8.5918 100.394 9.12891 100.682 9.6416C100.97 10.1543 101.356 10.5547 101.839 10.8428C102.328 11.126 102.85 11.2676 103.407 11.2676C103.968 11.2676 104.5 11.126 105.003 10.8428C105.506 10.5596 105.892 10.1763 106.161 9.69287C106.434 9.20947 106.571 8.66504 106.571 8.05957C106.571 7.13672 106.266 6.36523 105.655 5.74512C105.05 5.125 104.303 4.81494 103.414 4.81494ZM126.925 4.03125V12H125.914V10.6304C125.484 11.1528 125.001 11.5459 124.464 11.8096C123.932 12.0732 123.348 12.2051 122.713 12.2051C121.585 12.2051 120.621 11.7974 119.82 10.9819C119.024 10.1616 118.626 9.16553 118.626 7.99365C118.626 6.84619 119.029 5.86475 119.835 5.04932C120.641 4.23389 121.61 3.82617 122.743 3.82617C123.397 3.82617 123.988 3.96533 124.515 4.24365C125.047 4.52197 125.514 4.93945 125.914 5.49609V4.03125H126.925ZM122.823 4.81494C122.252 4.81494 121.725 4.95654 121.241 5.23975C120.758 5.51807 120.372 5.91113 120.084 6.41895C119.801 6.92676 119.659 7.46387 119.659 8.03027C119.659 8.5918 119.803 9.12891 120.091 9.6416C120.379 10.1543 120.765 10.5547 121.249 10.8428C121.737 11.126 122.259 11.2676 122.816 11.2676C123.377 11.2676 123.91 11.126 124.413 10.8428C124.916 10.5596 125.301 10.1763 125.57 9.69287C125.843 9.20947 125.98 8.66504 125.98 8.05957C125.98 7.13672 125.675 6.36523 125.064 5.74512C124.459 5.125 123.712 4.81494 122.823 4.81494ZM151.607 1.22607L156.632 12H155.475L153.783 8.45508H149.139L147.455 12H146.253L151.344 1.22607H151.607ZM151.476 3.51123L149.623 7.41504H153.307L151.476 3.51123ZM205.777 4.03125V12H204.767V10.6304C204.337 11.1528 203.854 11.5459 203.316 11.8096C202.784 12.0732 202.201 12.2051 201.566 12.2051C200.438 12.2051 199.474 11.7974 198.673 10.9819C197.877 10.1616 197.479 9.16553 197.479 7.99365C197.479 6.84619 197.882 5.86475 198.688 5.04932C199.493 4.23389 200.462 3.82617 201.595 3.82617C202.25 3.82617 202.84 3.96533 203.368 4.24365C203.9 4.52197 204.366 4.93945 204.767 5.49609V4.03125H205.777ZM201.676 4.81494C201.104 4.81494 200.577 4.95654 200.094 5.23975C199.61 5.51807 199.225 5.91113 198.937 6.41895C198.653 6.92676 198.512 7.46387 198.512 8.03027C198.512 8.5918 198.656 9.12891 198.944 9.6416C199.232 10.1543 199.618 10.5547 200.101 10.8428C200.589 11.126 201.112 11.2676 201.668 11.2676C202.23 11.2676 202.762 11.126 203.265 10.8428C203.768 10.5596 204.154 10.1763 204.422 9.69287C204.696 9.20947 204.833 8.66504 204.833 8.05957C204.833 7.13672 204.527 6.36523 203.917 5.74512C203.312 5.125 202.564 4.81494 201.676 4.81494ZM219.613 4.90283L218.954 5.58398C218.407 5.05176 217.872 4.78564 217.35 4.78564C217.018 4.78564 216.732 4.89551 216.493 5.11523C216.258 5.33496 216.141 5.59131 216.141 5.88428C216.141 6.14307 216.239 6.38965 216.434 6.62402C216.629 6.86328 217.04 7.14404 217.665 7.46631C218.426 7.86182 218.944 8.24268 219.217 8.60889C219.486 8.97998 219.62 9.39746 219.62 9.86133C219.62 10.5156 219.391 11.0698 218.932 11.5239C218.473 11.978 217.899 12.2051 217.21 12.2051C216.751 12.2051 216.312 12.105 215.892 11.9048C215.477 11.7046 215.133 11.4287 214.859 11.0771L215.504 10.3447C216.026 10.9355 216.581 11.231 217.167 11.231C217.577 11.231 217.926 11.0991 218.214 10.8354C218.502 10.5718 218.646 10.2617 218.646 9.90527C218.646 9.6123 218.551 9.35107 218.36 9.12158C218.17 8.89697 217.74 8.61377 217.071 8.27197C216.354 7.90088 215.865 7.53467 215.606 7.17334C215.348 6.81201 215.218 6.39941 215.218 5.93555C215.218 5.33008 215.423 4.82715 215.833 4.42676C216.249 4.02637 216.771 3.82617 217.401 3.82617C218.133 3.82617 218.871 4.18506 219.613 4.90283Z" fill="#2F4842"/>
</svg>
