<svg width="118" height="56" viewBox="0 0 118 56" fill="none" xmlns="http://www.w3.org/2000/svg">
<path d="M1.22856 3.54007H2.30937V5.0952C2.73963 4.50425 3.23468 4.06104 3.79453 3.76556C4.35438 3.47009 4.97902 3.32235 5.66846 3.32235C6.8711 3.32235 7.90008 3.7552 8.75541 4.62089C9.61073 5.48658 10.0384 6.52852 10.0384 7.74671C10.0384 8.99082 9.61332 10.0483 8.76318 10.9192C7.91823 11.7849 6.89702 12.2177 5.69957 12.2177C5.02568 12.2177 4.40621 12.0778 3.84118 11.7978C3.27615 11.5179 2.76555 11.1006 2.30937 10.5459V15.0947H1.22856V3.54007ZM5.58293 4.37207C4.63948 4.37207 3.84377 4.70124 3.1958 5.35958C2.55301 6.01792 2.23162 6.83695 2.23162 7.81669C2.23162 8.45948 2.37417 9.03747 2.65928 9.55066C2.94957 10.0639 3.36168 10.4708 3.89561 10.7714C4.43472 11.0721 5.00235 11.2224 5.59848 11.2224C6.18425 11.2224 6.73373 11.0721 7.24693 10.7714C7.7653 10.4656 8.17741 10.0405 8.48326 9.49623C8.7891 8.95194 8.94202 8.38172 8.94202 7.78559C8.94202 7.18427 8.7891 6.61405 8.48326 6.07494C8.1826 5.53583 7.77567 5.11853 7.26248 4.82306C6.74928 4.5224 6.18943 4.37207 5.58293 4.37207ZM23.918 0.398698H25.0143V3.54007H26.7405V4.47315H25.0143V12H23.918V4.47315H22.4328V3.54007H23.918V0.398698ZM28.7467 0.0565689C28.9955 0.0565689 29.208 0.144693 29.3843 0.320942C29.5605 0.49719 29.6486 0.709725 29.6486 0.958547C29.6486 1.20218 29.5605 1.41213 29.3843 1.58838C29.208 1.76462 28.9955 1.85275 28.7467 1.85275C28.503 1.85275 28.2931 1.76462 28.1168 1.58838C27.9406 1.41213 27.8525 1.20218 27.8525 0.958547C27.8525 0.709725 27.9406 0.49719 28.1168 0.320942C28.2931 0.144693 28.503 0.0565689 28.7467 0.0565689ZM28.2024 3.54007H29.2987V12H28.2024V3.54007ZM51.0551 9.19298L51.9726 9.67507C51.6719 10.266 51.3246 10.7429 50.9306 11.1058C50.5367 11.4687 50.0935 11.746 49.601 11.9378C49.1085 12.1244 48.5513 12.2177 47.9292 12.2177C46.5504 12.2177 45.4721 11.7667 44.6946 10.8648C43.917 9.95759 43.5282 8.93379 43.5282 7.79336C43.5282 6.72032 43.8574 5.76391 44.5157 4.92414C45.3503 3.85628 46.4674 3.32235 47.867 3.32235C49.3081 3.32235 50.4589 3.86924 51.3194 4.96302C51.9311 5.7354 52.2421 6.69958 52.2525 7.85557H44.6479C44.6686 8.84049 44.9823 9.64916 45.5888 10.2816C46.1953 10.9088 46.9443 11.2224 47.8359 11.2224C48.2662 11.2224 48.6835 11.1473 49.0878 10.9969C49.4973 10.8466 49.8446 10.647 50.1298 10.3982C50.4149 10.1494 50.7233 9.74765 51.0551 9.19298ZM51.0551 6.91471C50.9099 6.33413 50.6974 5.87018 50.4175 5.52287C50.1427 5.17555 49.7773 4.89563 49.3211 4.68309C48.8649 4.47056 48.3854 4.36429 47.8826 4.36429C47.0532 4.36429 46.3404 4.63126 45.7443 5.16518C45.3088 5.55397 44.9797 6.13714 44.7568 6.91471H51.0551ZM53.8776 3.54007H54.9895V4.7764C55.3213 4.28913 55.6712 3.92626 56.0393 3.68781C56.4073 3.44417 56.7909 3.32235 57.1901 3.32235C57.4907 3.32235 57.8121 3.41825 58.1542 3.61005L57.5866 4.52758C57.3585 4.42909 57.1667 4.37984 57.0112 4.37984C56.6484 4.37984 56.2985 4.53017 55.9615 4.83083C55.6246 5.12631 55.368 5.58766 55.1917 6.2149C55.0569 6.69699 54.9895 7.67154 54.9895 9.13855V12H53.8776V3.54007ZM59.4606 0.0565689C59.7094 0.0565689 59.9219 0.144693 60.0982 0.320942C60.2744 0.49719 60.3625 0.709725 60.3625 0.958547C60.3625 1.20218 60.2744 1.41213 60.0982 1.58838C59.9219 1.76462 59.7094 1.85275 59.4606 1.85275C59.2169 1.85275 59.007 1.76462 58.8307 1.58838C58.6545 1.41213 58.5664 1.20218 58.5664 0.958547C58.5664 0.709725 58.6545 0.49719 58.8307 0.320942C59.007 0.144693 59.2169 0.0565689 59.4606 0.0565689ZM58.9163 3.54007H60.0126V12H58.9163V3.54007ZM69.3901 9.19298L70.3076 9.67507C70.007 10.266 69.6596 10.7429 69.2657 11.1058C68.8717 11.4687 68.4285 11.746 67.936 11.9378C67.4436 12.1244 66.8863 12.2177 66.2643 12.2177C64.8854 12.2177 63.8072 11.7667 63.0296 10.8648C62.252 9.95759 61.8632 8.93379 61.8632 7.79336C61.8632 6.72032 62.1924 5.76391 62.8507 4.92414C63.6853 3.85628 64.8024 3.32235 66.2021 3.32235C67.6432 3.32235 68.794 3.86924 69.6545 4.96302C70.2661 5.7354 70.5772 6.69958 70.5875 7.85557H62.9829C63.0037 8.84049 63.3173 9.64916 63.9238 10.2816C64.5303 10.9088 65.2794 11.2224 66.171 11.2224C66.6012 11.2224 67.0185 11.1473 67.4228 10.9969C67.8324 10.8466 68.1797 10.647 68.4648 10.3982C68.7499 10.1494 69.0583 9.74765 69.3901 9.19298ZM69.3901 6.91471C69.2449 6.33413 69.0324 5.87018 68.7525 5.52287C68.4777 5.17555 68.1123 4.89563 67.6561 4.68309C67.1999 4.47056 66.7204 4.36429 66.2176 4.36429C65.3882 4.36429 64.6754 4.63126 64.0793 5.16518C63.6439 5.55397 63.3147 6.13714 63.0918 6.91471H69.3901ZM28.4745 20.2743V32H27.4015V30.5459C26.9453 31.1006 26.4321 31.5179 25.8619 31.7978C25.2968 32.0778 24.6774 32.2177 24.0035 32.2177C22.806 32.2177 21.7822 31.7849 20.9321 30.9192C20.0871 30.0483 19.6647 28.9908 19.6647 27.7467C19.6647 26.5285 20.0923 25.4866 20.9477 24.6209C21.803 23.7552 22.832 23.3224 24.0346 23.3224C24.7292 23.3224 25.3565 23.4701 25.9163 23.7656C26.4813 24.061 26.9764 24.5043 27.4015 25.0952V20.2743H28.4745ZM24.1201 24.3721C23.5136 24.3721 22.9538 24.5224 22.4406 24.8231C21.9274 25.1185 21.5179 25.5358 21.212 26.0749C20.9114 26.6141 20.761 27.1843 20.761 27.7856C20.761 28.3817 20.914 28.9519 21.2198 29.4962C21.5256 30.0405 21.9352 30.4656 22.4484 30.7714C22.9667 31.0721 23.5214 31.2224 24.1124 31.2224C24.7085 31.2224 25.2735 31.0721 25.8075 30.7714C26.3414 30.4708 26.7509 30.0639 27.036 29.5507C27.3263 29.0375 27.4714 28.4595 27.4714 27.8167C27.4714 26.837 27.1475 26.0179 26.4995 25.3596C25.8567 24.7012 25.0636 24.3721 24.1201 24.3721ZM41.8331 20.2743H42.9217V25.0563C43.3623 24.4757 43.847 24.0429 44.3758 23.7578C44.9045 23.4675 45.4773 23.3224 46.0942 23.3224C46.7266 23.3224 47.2864 23.483 47.7737 23.8044C48.2662 24.1258 48.629 24.5587 48.8623 25.103C49.0956 25.6421 49.2122 26.4896 49.2122 27.6456V32H48.1236V27.9644C48.1236 26.9899 48.0848 26.3393 48.007 26.0127C47.8722 25.4529 47.626 25.033 47.2683 24.7531C46.9158 24.468 46.4519 24.3254 45.8765 24.3254C45.2181 24.3254 44.6272 24.5431 44.1036 24.9786C43.5852 25.414 43.2431 25.9531 43.0772 26.5959C42.9735 27.0106 42.9217 27.7778 42.9217 28.8975V32H41.8331V20.2743ZM62.0265 23.5401H63.1385V24.7764C63.4702 24.2891 63.8201 23.9263 64.1882 23.6878C64.5562 23.4442 64.9398 23.3224 65.339 23.3224C65.6396 23.3224 65.961 23.4183 66.3031 23.6101L65.7355 24.5276C65.5074 24.4291 65.3156 24.3798 65.1601 24.3798C64.7973 24.3798 64.4474 24.5302 64.1104 24.8308C63.7735 25.1263 63.5169 25.5877 63.3406 26.2149C63.2058 26.697 63.1385 27.6715 63.1385 29.1386V32H62.0265V23.5401ZM67.0885 23.5401H68.1849V27.4901C68.1849 28.4543 68.2367 29.1178 68.3404 29.4807C68.4959 29.9991 68.7914 30.4086 69.2268 30.7092C69.6674 31.0099 70.191 31.1602 70.7975 31.1602C71.404 31.1602 71.9172 31.0151 72.3371 30.7248C72.7621 30.4293 73.055 30.0431 73.2157 29.5662C73.3246 29.2396 73.379 28.5476 73.379 27.4901V23.5401H74.4909V27.6923C74.4909 28.8586 74.3536 29.7373 74.0788 30.3282C73.8093 30.9192 73.3997 31.3831 72.8503 31.7201C72.306 32.0518 71.6217 32.2177 70.7975 32.2177C69.9733 32.2177 69.2838 32.0518 68.7292 31.7201C68.1797 31.3831 67.7676 30.9166 67.4928 30.3205C67.2233 29.7191 67.0885 28.8172 67.0885 27.6145V23.5401ZM98.751 20.2743C100.482 20.2743 101.931 20.8523 103.098 22.0083C104.264 23.1642 104.847 24.5872 104.847 26.2771C104.847 27.9515 104.264 29.3718 103.098 30.5382C101.936 31.7045 100.519 32.2877 98.8443 32.2877C97.1492 32.2877 95.7185 31.7071 94.5522 30.5459C93.3858 29.3848 92.8026 27.98 92.8026 26.3315C92.8026 25.2326 93.067 24.214 93.5958 23.2757C94.1297 22.3374 94.8554 21.6039 95.7729 21.0752C96.6905 20.5413 97.6832 20.2743 98.751 20.2743ZM98.8055 21.394C97.9605 21.394 97.1596 21.6143 96.4028 22.0549C95.6459 22.4955 95.055 23.0891 94.6299 23.8355C94.2048 24.582 93.9923 25.414 93.9923 26.3315C93.9923 27.6897 94.4614 28.8379 95.3997 29.7762C96.3432 30.7092 97.4784 31.1758 98.8055 31.1758C99.6919 31.1758 100.511 30.9607 101.263 30.5304C102.019 30.1001 102.608 29.5118 103.028 28.7653C103.453 28.0189 103.665 27.1895 103.665 26.2771C103.665 25.3699 103.453 24.5509 103.028 23.82C102.608 23.0839 102.014 22.4955 101.247 22.0549C100.48 21.6143 99.666 21.394 98.8055 21.394ZM107.141 20.562H108.307V24.8542L112.872 20.562H114.419L108.922 25.6939L114.847 32H113.33L108.307 26.6659V32H107.141V20.562ZM116.386 20.562H117.529V32H116.386V20.562ZM1.22856 43.5401H2.30937V45.0952C2.73963 44.5043 3.23468 44.061 3.79453 43.7656C4.35438 43.4701 4.97902 43.3224 5.66846 43.3224C6.8711 43.3224 7.90008 43.7552 8.75541 44.6209C9.61073 45.4866 10.0384 46.5285 10.0384 47.7467C10.0384 48.9908 9.61332 50.0483 8.76318 50.9192C7.91823 51.7849 6.89702 52.2177 5.69957 52.2177C5.02568 52.2177 4.40621 52.0778 3.84118 51.7978C3.27615 51.5179 2.76555 51.1006 2.30937 50.5459V55.0947H1.22856V43.5401ZM5.58293 44.3721C4.63948 44.3721 3.84377 44.7012 3.1958 45.3596C2.55301 46.0179 2.23162 46.837 2.23162 47.8167C2.23162 48.4595 2.37417 49.0375 2.65928 49.5507C2.94957 50.0639 3.36168 50.4708 3.89561 50.7714C4.43472 51.0721 5.00235 51.2224 5.59848 51.2224C6.18425 51.2224 6.73373 51.0721 7.24693 50.7714C7.7653 50.4656 8.17741 50.0405 8.48326 49.4962C8.7891 48.9519 8.94202 48.3817 8.94202 47.7856C8.94202 47.1843 8.7891 46.6141 8.48326 46.0749C8.1826 45.5358 7.77567 45.1185 7.26248 44.8231C6.74928 44.5224 6.18943 44.3721 5.58293 44.3721ZM22.5572 43.5401H23.6691V44.7764C24.0009 44.2891 24.3508 43.9263 24.7189 43.6878C25.0869 43.4442 25.4705 43.3224 25.8697 43.3224C26.1703 43.3224 26.4917 43.4183 26.8338 43.6101L26.2662 44.5276C26.0381 44.4291 25.8463 44.3798 25.6908 44.3798C25.328 44.3798 24.978 44.5302 24.6411 44.8308C24.3042 45.1263 24.0476 45.5877 23.8713 46.2149C23.7365 46.697 23.6691 47.6715 23.6691 49.1386V52H22.5572V43.5401ZM28.1402 40.0566C28.389 40.0566 28.6015 40.1447 28.7778 40.3209C28.954 40.4972 29.0421 40.7097 29.0421 40.9585C29.0421 41.2022 28.954 41.4121 28.7778 41.5884C28.6015 41.7646 28.389 41.8527 28.1402 41.8527C27.8965 41.8527 27.6866 41.7646 27.5103 41.5884C27.3341 41.4121 27.246 41.2022 27.246 40.9585C27.246 40.7097 27.3341 40.4972 27.5103 40.3209C27.6866 40.1447 27.8965 40.0566 28.1402 40.0566ZM27.5959 43.5401H28.6922V52H27.5959V43.5401Z" fill="#909090"/>
<path d="M20.5122 3.54007V12H19.4392V10.5459C18.983 11.1006 18.4698 11.5179 17.8996 11.7978C17.3346 12.0778 16.7151 12.2177 16.0412 12.2177C14.8438 12.2177 13.82 11.7849 12.9698 10.9192C12.1249 10.0483 11.7024 8.99082 11.7024 7.74671C11.7024 6.52852 12.13 5.48658 12.9854 4.62089C13.8407 3.7552 14.8697 3.32235 16.0723 3.32235C16.7669 3.32235 17.3942 3.47009 17.954 3.76556C18.5191 4.06104 19.0141 4.50425 19.4392 5.0952V3.54007H20.5122ZM16.1578 4.37207C15.5513 4.37207 14.9915 4.5224 14.4783 4.82306C13.9651 5.11853 13.5556 5.53583 13.2497 6.07494C12.9491 6.61405 12.7988 7.18427 12.7988 7.78559C12.7988 8.38172 12.9517 8.95194 13.2575 9.49623C13.5634 10.0405 13.9729 10.4656 14.4861 10.7714C15.0045 11.0721 15.5591 11.2224 16.1501 11.2224C16.7462 11.2224 17.3112 11.0721 17.8452 10.7714C18.3791 10.4708 18.7886 10.0639 19.0737 9.55066C19.364 9.03747 19.5092 8.45948 19.5092 7.81669C19.5092 6.83695 19.1852 6.01792 18.5372 5.35958C17.8944 4.70124 17.1013 4.37207 16.1578 4.37207ZM15.7924 0.00991483H16.8732L19.1282 2.00826H17.7285L16.36 0.82636L14.9293 2.00826H13.483L15.7924 0.00991483ZM35.807 4.46537L35.1072 5.18851C34.5266 4.62348 33.9589 4.34096 33.4043 4.34096C33.0518 4.34096 32.7485 4.4576 32.4945 4.69087C32.2457 4.92414 32.1213 5.19629 32.1213 5.50731C32.1213 5.78205 32.225 6.04384 32.4323 6.29266C32.6397 6.54666 33.0751 6.84473 33.7386 7.18686C34.5473 7.60675 35.0968 8.01108 35.3871 8.39986C35.6722 8.79383 35.8147 9.23704 35.8147 9.7295C35.8147 10.4241 35.5711 11.0125 35.0838 11.4946C34.5966 11.9767 33.9875 12.2177 33.2565 12.2177C32.7693 12.2177 32.3027 12.1115 31.8569 11.8989C31.4163 11.6864 31.0508 11.3935 30.7606 11.0203L31.4448 10.2427C31.9995 10.8699 32.5878 11.1836 33.2099 11.1836C33.6453 11.1836 34.016 11.0436 34.3218 10.7637C34.6277 10.4837 34.7806 10.1546 34.7806 9.77616C34.7806 9.46513 34.6795 9.1878 34.4773 8.94416C34.2752 8.70571 33.819 8.40505 33.1088 8.04218C32.3468 7.64822 31.8284 7.25943 31.5537 6.87583C31.2789 6.49223 31.1416 6.0542 31.1416 5.56174C31.1416 4.91896 31.3593 4.38503 31.7947 3.95996C32.2353 3.53489 32.79 3.32235 33.4587 3.32235C34.2363 3.32235 35.019 3.70336 35.807 4.46537ZM41.9964 4.46537L41.2966 5.18851C40.716 4.62348 40.1484 4.34096 39.5937 4.34096C39.2412 4.34096 38.938 4.4576 38.684 4.69087C38.4351 4.92414 38.3107 5.19629 38.3107 5.50731C38.3107 5.78205 38.4144 6.04384 38.6218 6.29266C38.8291 6.54666 39.2645 6.84473 39.9281 7.18686C40.7367 7.60675 41.2862 8.01108 41.5765 8.39986C41.8616 8.79383 42.0042 9.23704 42.0042 9.7295C42.0042 10.4241 41.7605 11.0125 41.2733 11.4946C40.786 11.9767 40.1769 12.2177 39.446 12.2177C38.9587 12.2177 38.4922 12.1115 38.0464 11.8989C37.6057 11.6864 37.2403 11.3935 36.95 11.0203L37.6342 10.2427C38.1889 10.8699 38.7773 11.1836 39.3993 11.1836C39.8348 11.1836 40.2054 11.0436 40.5112 10.7637C40.8171 10.4837 40.97 10.1546 40.97 9.77616C40.97 9.46513 40.8689 9.1878 40.6668 8.94416C40.4646 8.70571 40.0084 8.40505 39.2982 8.04218C38.5362 7.64822 38.0178 7.25943 37.7431 6.87583C37.4684 6.49223 37.331 6.0542 37.331 5.56174C37.331 4.91896 37.5487 4.38503 37.9842 3.95996C38.4248 3.53489 38.9794 3.32235 39.6481 3.32235C40.4257 3.32235 41.2085 3.70336 41.9964 4.46537ZM0.209943 29.8695L1.1819 29.2863C1.86616 30.5459 2.65669 31.1758 3.55348 31.1758C3.93708 31.1758 4.29735 31.0877 4.6343 30.9114C4.97125 30.73 5.22784 30.4889 5.40409 30.1883C5.58034 29.8876 5.66846 29.5688 5.66846 29.2319C5.66846 28.8483 5.53887 28.4724 5.27968 28.1044C4.922 27.5964 4.26884 26.9847 3.32021 26.2693C2.3664 25.5488 1.77285 25.0278 1.53958 24.7064C1.13525 24.1673 0.933081 23.5841 0.933081 22.9569C0.933081 22.4593 1.05231 22.0057 1.29076 21.5962C1.52922 21.1866 1.86357 20.8652 2.29382 20.632C2.72926 20.3935 3.20098 20.2743 3.709 20.2743C4.24811 20.2743 4.75094 20.4091 5.21748 20.6786C5.6892 20.943 6.18684 21.4329 6.7104 22.1482L5.77732 22.8558C5.34707 22.2856 4.97902 21.9098 4.67318 21.7283C4.37252 21.5469 4.04335 21.4562 3.68567 21.4562C3.22431 21.4562 2.8459 21.5962 2.55042 21.8761C2.26013 22.156 2.11498 22.5007 2.11498 22.9102C2.11498 23.1591 2.16682 23.4001 2.2705 23.6334C2.37417 23.8666 2.56338 24.1207 2.83812 24.3954C2.98845 24.5405 3.48091 24.9215 4.3155 25.5384C5.3056 26.2693 5.98468 26.9199 6.35272 27.4901C6.72077 28.0603 6.9048 28.6331 6.9048 29.2085C6.9048 30.0379 6.58859 30.7585 5.95616 31.3702C5.32893 31.9819 4.56432 32.2877 3.66234 32.2877C2.96771 32.2877 2.33789 32.1037 1.77285 31.7356C1.20782 31.3624 0.686851 30.7403 0.209943 29.8695ZM17.573 23.5401V32H16.5V30.5459C16.0438 31.1006 15.5306 31.5179 14.9604 31.7978C14.3954 32.0778 13.7759 32.2177 13.102 32.2177C11.9046 32.2177 10.8808 31.7849 10.0306 30.9192C9.18566 30.0483 8.76318 28.9908 8.76318 27.7467C8.76318 26.5285 9.19084 25.4866 10.0462 24.6209C10.9015 23.7552 11.9305 23.3224 13.1331 23.3224C13.8277 23.3224 14.455 23.4701 15.0148 23.7656C15.5799 24.061 16.0749 24.5043 16.5 25.0952V23.5401H17.573ZM13.2186 24.3721C12.6121 24.3721 12.0523 24.5224 11.5391 24.8231C11.0259 25.1185 10.6164 25.5358 10.3105 26.0749C10.0099 26.6141 9.85955 27.1843 9.85955 27.7856C9.85955 28.3817 10.0125 28.9519 10.3183 29.4962C10.6242 30.0405 11.0337 30.4656 11.5469 30.7714C12.0653 31.0721 12.6199 31.2224 13.2109 31.2224C13.807 31.2224 14.372 31.0721 14.906 30.7714C15.4399 30.4708 15.8494 30.0639 16.1345 29.5507C16.4248 29.0375 16.57 28.4595 16.57 27.8167C16.57 26.837 16.246 26.0179 15.598 25.3596C14.9552 24.7012 14.1621 24.3721 13.2186 24.3721ZM39.376 23.5401V32H38.303V30.5459C37.8468 31.1006 37.3336 31.5179 36.7634 31.7978C36.1983 32.0778 35.5789 32.2177 34.905 32.2177C33.7075 32.2177 32.6837 31.7849 31.8336 30.9192C30.9886 30.0483 30.5662 28.9908 30.5662 27.7467C30.5662 26.5285 30.9938 25.4866 31.8491 24.6209C32.7045 23.7552 33.7335 23.3224 34.9361 23.3224C35.6307 23.3224 36.258 23.4701 36.8178 23.7656C37.3828 24.061 37.8779 24.5043 38.303 25.0952V23.5401H39.376ZM35.0216 24.3721C34.4151 24.3721 33.8553 24.5224 33.3421 24.8231C32.8289 25.1185 32.4194 25.5358 32.1135 26.0749C31.8129 26.6141 31.6625 27.1843 31.6625 27.7856C31.6625 28.3817 31.8155 28.9519 32.1213 29.4962C32.4271 30.0405 32.8367 30.4656 33.3499 30.7714C33.8682 31.0721 34.4229 31.2224 35.0138 31.2224C35.61 31.2224 36.175 31.0721 36.7089 30.7714C37.2429 30.4708 37.6524 30.0639 37.9375 29.5507C38.2278 29.0375 38.3729 28.4595 38.3729 27.8167C38.3729 26.837 38.049 26.0179 37.401 25.3596C36.7582 24.7012 35.9651 24.3721 35.0216 24.3721ZM59.9815 23.5401V32H58.9085V30.5459C58.4523 31.1006 57.9391 31.5179 57.3689 31.7978C56.8039 32.0778 56.1844 32.2177 55.5105 32.2177C54.3131 32.2177 53.2893 31.7849 52.4391 30.9192C51.5942 30.0483 51.1717 28.9908 51.1717 27.7467C51.1717 26.5285 51.5994 25.4866 52.4547 24.6209C53.31 23.7552 54.339 23.3224 55.5416 23.3224C56.2362 23.3224 56.8635 23.4701 57.4233 23.7656C57.9884 24.061 58.4834 24.5043 58.9085 25.0952V23.5401H59.9815ZM55.6272 24.3721C55.0206 24.3721 54.4608 24.5224 53.9476 24.8231C53.4344 25.1185 53.0249 25.5358 52.7191 26.0749C52.4184 26.6141 52.2681 27.1843 52.2681 27.7856C52.2681 28.3817 52.421 28.9519 52.7268 29.4962C53.0327 30.0405 53.4422 30.4656 53.9554 30.7714C54.4738 31.0721 55.0284 31.2224 55.6194 31.2224C56.2155 31.2224 56.7805 31.0721 57.3145 30.7714C57.8484 30.4708 58.2579 30.0639 58.543 29.5507C58.8333 29.0375 58.9785 28.4595 58.9785 27.8167C58.9785 26.837 58.6545 26.0179 58.0065 25.3596C57.3637 24.7012 56.5706 24.3721 55.6272 24.3721ZM86.1855 20.562L91.5196 32H90.2911L88.4949 28.2366H83.5651L81.7767 32H80.5015L85.9056 20.562H86.1855ZM86.0456 22.988L84.0783 27.1324H87.9895L86.0456 22.988ZM20.5122 43.5401V52H19.4392V50.5459C18.983 51.1006 18.4698 51.5179 17.8996 51.7978C17.3346 52.0778 16.7151 52.2177 16.0412 52.2177C14.8438 52.2177 13.82 51.7849 12.9698 50.9192C12.1249 50.0483 11.7024 48.9908 11.7024 47.7467C11.7024 46.5285 12.13 45.4866 12.9854 44.6209C13.8407 43.7552 14.8697 43.3224 16.0723 43.3224C16.7669 43.3224 17.3942 43.4701 17.954 43.7656C18.5191 44.061 19.0141 44.5043 19.4392 45.0952V43.5401H20.5122ZM16.1578 44.3721C15.5513 44.3721 14.9915 44.5224 14.4783 44.8231C13.9651 45.1185 13.5556 45.5358 13.2497 46.0749C12.9491 46.6141 12.7988 47.1843 12.7988 47.7856C12.7988 48.3817 12.9517 48.9519 13.2575 49.4962C13.5634 50.0405 13.9729 50.4656 14.4861 50.7714C15.0045 51.0721 15.5591 51.2224 16.1501 51.2224C16.7462 51.2224 17.3112 51.0721 17.8452 50.7714C18.3791 50.4708 18.7886 50.0639 19.0737 49.5507C19.364 49.0375 19.5092 48.4595 19.5092 47.8167C19.5092 46.837 19.1852 46.0179 18.5372 45.3596C17.8944 44.7012 17.1013 44.3721 16.1578 44.3721ZM35.2005 44.4654L34.5007 45.1885C33.9201 44.6235 33.3524 44.341 32.7978 44.341C32.4453 44.341 32.142 44.4576 31.888 44.6909C31.6392 44.9241 31.5148 45.1963 31.5148 45.5073C31.5148 45.7821 31.6185 46.0438 31.8258 46.2927C32.0332 46.5467 32.4686 46.8447 33.1321 47.1869C33.9408 47.6067 34.4903 48.0111 34.7806 48.3999C35.0657 48.7938 35.2082 49.237 35.2082 49.7295C35.2082 50.4241 34.9646 51.0125 34.4773 51.4946C33.9901 51.9767 33.381 52.2177 32.65 52.2177C32.1628 52.2177 31.6962 52.1115 31.2504 51.8989C30.8098 51.6864 30.4443 51.3935 30.1541 51.0203L30.8383 50.2427C31.393 50.8699 31.9813 51.1836 32.6034 51.1836C33.0388 51.1836 33.4095 51.0436 33.7153 50.7637C34.0212 50.4837 34.1741 50.1546 34.1741 49.7762C34.1741 49.4651 34.073 49.1878 33.8708 48.9442C33.6687 48.7057 33.2125 48.405 32.5023 48.0422C31.7403 47.6482 31.2219 47.2594 30.9472 46.8758C30.6724 46.4922 30.5351 46.0542 30.5351 45.5617C30.5351 44.919 30.7528 44.385 31.1882 43.96C31.6288 43.5349 32.1835 43.3224 32.8522 43.3224C33.6298 43.3224 34.4125 43.7034 35.2005 44.4654Z" fill="#2F4842"/>
</svg>
