<svg width="237" height="110" viewBox="0 0 237 110" fill="none" xmlns="http://www.w3.org/2000/svg">
<path d="M2.46926 7.99652H4.64157V11.1222C5.50633 9.93442 6.50133 9.04361 7.62656 8.44974C8.75179 7.85587 10.0073 7.55893 11.393 7.55893C13.8101 7.55893 15.8782 8.4289 17.5973 10.1688C19.3165 11.9088 20.176 14.003 20.176 16.4514C20.176 18.9519 19.3217 21.0773 17.613 22.8277C15.9147 24.5676 13.8622 25.4376 11.4555 25.4376C10.101 25.4376 8.85598 25.1563 7.72033 24.5937C6.58468 24.0311 5.55843 23.1923 4.64157 22.0775V31.22H2.46926V7.99652ZM11.221 9.66874C9.32482 9.66874 7.72554 10.3303 6.42319 11.6535C5.13126 12.9767 4.48529 14.6229 4.48529 16.592C4.48529 17.884 4.77181 19.0457 5.34484 20.0771C5.9283 21.1086 6.75659 21.9265 7.82973 22.5307C8.91328 23.135 10.0541 23.4372 11.2523 23.4372C12.4296 23.4372 13.534 23.135 14.5655 22.5307C15.6074 21.916 16.4357 21.0617 17.0504 19.9677C17.6651 18.8737 17.9724 17.7277 17.9724 16.5295C17.9724 15.3209 17.6651 14.1749 17.0504 13.0913C16.4461 12.0078 15.6282 11.169 14.5967 10.5752C13.5653 9.97088 12.44 9.66874 11.221 9.66874ZM48.0723 1.68273H50.2759V7.99652H53.7454V9.87191H50.2759V25H48.0723V9.87191H45.0873V7.99652H48.0723V1.68273ZM57.7774 0.99509C58.2775 0.99509 58.7047 1.17221 59.059 1.52645C59.4132 1.88069 59.5903 2.30786 59.5903 2.80796C59.5903 3.29764 59.4132 3.71961 59.059 4.07385C58.7047 4.42808 58.2775 4.6052 57.7774 4.6052C57.2878 4.6052 56.8658 4.42808 56.5116 4.07385C56.1573 3.71961 55.9802 3.29764 55.9802 2.80796C55.9802 2.30786 56.1573 1.88069 56.5116 1.52645C56.8658 1.17221 57.2878 0.99509 57.7774 0.99509ZM56.6835 7.99652H58.887V25H56.6835V7.99652ZM87.471 7.99652H89.7058V10.4814C90.3727 9.50204 91.0759 8.77272 91.8157 8.29346C92.5554 7.80377 93.3264 7.55893 94.1286 7.55893C94.7329 7.55893 95.3789 7.75168 96.0665 8.13718L94.9257 9.9813C94.4672 9.78335 94.0817 9.68437 93.7692 9.68437C93.0399 9.68437 92.3366 9.98651 91.6594 10.5908C90.9822 11.1847 90.4664 12.1119 90.1122 13.3726C89.8413 14.3416 89.7058 16.3003 89.7058 19.2488V25H87.471V7.99652ZM98.6921 0.99509C99.1922 0.99509 99.6193 1.17221 99.9736 1.52645C100.328 1.88069 100.505 2.30786 100.505 2.80796C100.505 3.29764 100.328 3.71961 99.9736 4.07385C99.6193 4.42808 99.1922 4.6052 98.6921 4.6052C98.2024 4.6052 97.7804 4.42808 97.4262 4.07385C97.0719 3.71961 96.8948 3.29764 96.8948 2.80796C96.8948 2.30786 97.0719 1.88069 97.4262 1.52645C97.7804 1.17221 98.2024 0.99509 98.6921 0.99509ZM97.5981 7.99652H99.8017V25H97.5981V7.99652ZM118.649 19.3582L120.493 20.3272C119.889 21.5149 119.191 22.4734 118.399 23.2028C117.607 23.9321 116.717 24.4895 115.727 24.875C114.737 25.2501 113.617 25.4376 112.367 25.4376C109.595 25.4376 107.428 24.5312 105.865 22.7183C104.303 20.895 103.521 18.8373 103.521 16.5451C103.521 14.3885 104.183 12.4662 105.506 10.7783C107.183 8.63207 109.429 7.55893 112.242 7.55893C115.138 7.55893 117.451 8.65812 119.181 10.8565C120.41 12.4089 121.035 14.3468 121.056 16.6702H105.772C105.813 18.6497 106.444 20.2751 107.663 21.5462C108.882 22.8068 110.387 23.4372 112.179 23.4372C113.044 23.4372 113.883 23.2861 114.695 22.984C115.518 22.6818 116.216 22.2807 116.79 21.7806C117.363 21.2805 117.982 20.473 118.649 19.3582ZM118.649 14.7792C118.358 13.6123 117.93 12.6798 117.368 11.9817C116.816 11.2837 116.081 10.721 115.164 10.2939C114.247 9.8667 113.284 9.65311 112.273 9.65311C110.606 9.65311 109.173 10.1897 107.975 11.2628C107.1 12.0442 106.438 13.2163 105.99 14.7792H118.649ZM0.421961 59.7179L2.37549 58.5458C3.75077 61.0775 5.33963 62.3434 7.14209 62.3434C7.91308 62.3434 8.63718 62.1663 9.3144 61.8121C9.99163 61.4474 10.5074 60.9629 10.8616 60.3586C11.2158 59.7543 11.393 59.1136 11.393 58.4364C11.393 57.6654 11.1325 56.91 10.6115 56.1703C9.89265 55.1492 8.57988 53.9198 6.67324 52.482C4.75618 51.0338 3.56323 49.9867 3.09438 49.3408C2.28172 48.2572 1.87538 47.0851 1.87538 45.8244C1.87538 44.8242 2.11502 43.9126 2.59428 43.0895C3.07355 42.2664 3.74556 41.6204 4.61032 41.1516C5.4855 40.6723 6.43361 40.4327 7.45465 40.4327C8.5382 40.4327 9.54883 40.7036 10.4865 41.2453C11.4346 41.7767 12.4348 42.7613 13.4871 44.1991L11.6117 45.6212C10.747 44.4752 10.0073 43.7198 9.39255 43.3552C8.78826 42.9905 8.12666 42.8082 7.40777 42.8082C6.48049 42.8082 5.71992 43.0895 5.12605 43.6521C4.5426 44.2147 4.25087 44.9076 4.25087 45.7306C4.25087 46.2307 4.35506 46.7152 4.56343 47.1841C4.77181 47.6529 5.1521 48.1634 5.70429 48.7156C6.00644 49.0074 6.99622 49.7731 8.67365 51.013C10.6636 52.482 12.0285 53.7896 12.7682 54.9356C13.508 56.0817 13.8778 57.233 13.8778 58.3895C13.8778 60.0565 13.2423 61.5047 11.9712 62.7341C10.7105 63.9635 9.17375 64.5782 7.36088 64.5782C5.96476 64.5782 4.69888 64.2084 3.56323 63.4686C2.42758 62.7185 1.38049 61.4682 0.421961 59.7179ZM35.3197 46.9965V64H33.163V61.0775C32.2462 62.1923 31.2147 63.0311 30.0687 63.5937C28.933 64.1563 27.688 64.4376 26.3335 64.4376C23.9268 64.4376 21.8691 63.5676 20.1604 61.8277C18.4621 60.0773 17.613 57.9519 17.613 55.4514C17.613 53.003 18.4725 50.9088 20.1916 49.1688C21.9107 47.4289 23.9789 46.5589 26.396 46.5589C27.7921 46.5589 29.0528 46.8559 30.178 47.4497C31.3137 48.0436 32.3087 48.9344 33.163 50.1222V46.9965H35.3197ZM26.5679 48.6687C25.3489 48.6687 24.2237 48.9709 23.1922 49.5752C22.1608 50.169 21.3377 51.0078 20.723 52.0913C20.1187 53.1749 19.8166 54.3209 19.8166 55.5295C19.8166 56.7277 20.1239 57.8737 20.7386 58.9677C21.3533 60.0617 22.1764 60.916 23.2079 61.5307C24.2498 62.135 25.3646 62.4372 26.5523 62.4372C27.7505 62.4372 28.8861 62.135 29.9593 61.5307C31.0324 60.9265 31.8555 60.1086 32.4285 59.0771C33.012 58.0457 33.3037 56.884 33.3037 55.592C33.3037 53.6229 32.6525 51.9767 31.3502 50.6535C30.0582 49.3303 28.4642 48.6687 26.5679 48.6687ZM79.1412 46.9965V64H76.9845V61.0775C76.0676 62.1923 75.0362 63.0311 73.8901 63.5937C72.7545 64.1563 71.5094 64.4376 70.155 64.4376C67.7482 64.4376 65.6905 63.5676 63.9818 61.8277C62.2836 60.0773 61.4344 57.9519 61.4344 55.4514C61.4344 53.003 62.294 50.9088 64.0131 49.1688C65.7322 47.4289 67.8003 46.5589 70.2175 46.5589C71.6136 46.5589 72.8743 46.8559 73.9995 47.4497C75.1352 48.0436 76.1302 48.9344 76.9845 50.1222V46.9965H79.1412ZM70.3894 48.6687C69.1704 48.6687 68.0452 48.9709 67.0137 49.5752C65.9822 50.169 65.1592 51.0078 64.5445 52.0913C63.9402 53.1749 63.638 54.3209 63.638 55.5295C63.638 56.7277 63.9454 57.8737 64.5601 58.9677C65.1748 60.0617 65.9979 60.916 67.0293 61.5307C68.0712 62.135 69.186 62.4372 70.3738 62.4372C71.5719 62.4372 72.7076 62.135 73.7807 61.5307C74.8539 60.9265 75.6769 60.1086 76.25 59.0771C76.8334 58.0457 77.1251 56.884 77.1251 55.592C77.1251 53.6229 76.474 51.9767 75.1716 50.6535C73.8797 49.3303 72.2856 48.6687 70.3894 48.6687ZM120.556 46.9965V64H118.399V61.0775C117.482 62.1923 116.451 63.0311 115.305 63.5937C114.169 64.1563 112.924 64.4376 111.57 64.4376C109.163 64.4376 107.105 63.5676 105.397 61.8277C103.698 60.0773 102.849 57.9519 102.849 55.4514C102.849 53.003 103.709 50.9088 105.428 49.1688C107.147 47.4289 109.215 46.5589 111.632 46.5589C113.028 46.5589 114.289 46.8559 115.414 47.4497C116.55 48.0436 117.545 48.9344 118.399 50.1222V46.9965H120.556ZM111.804 48.6687C110.585 48.6687 109.46 48.9709 108.428 49.5752C107.397 50.169 106.574 51.0078 105.959 52.0913C105.355 53.1749 105.053 54.3209 105.053 55.5295C105.053 56.7277 105.36 57.8737 105.975 58.9677C106.59 60.0617 107.413 60.916 108.444 61.5307C109.486 62.135 110.601 62.4372 111.788 62.4372C112.987 62.4372 114.122 62.135 115.195 61.5307C116.269 60.9265 117.092 60.1086 117.665 59.0771C118.248 58.0457 118.54 56.884 118.54 55.592C118.54 53.6229 117.889 51.9767 116.586 50.6535C115.294 49.3303 113.7 48.6687 111.804 48.6687ZM173.223 41.0109L183.944 64H181.475L177.864 56.436H167.956L164.362 64H161.799L172.66 41.0109H173.223ZM172.942 45.8869L168.988 54.2167H176.849L172.942 45.8869ZM41.2272 85.9965V103H39.0705V100.078C38.1536 101.192 37.1222 102.031 35.9761 102.594C34.8405 103.156 33.5954 103.438 32.241 103.438C29.8342 103.438 27.7765 102.568 26.0678 100.828C24.3696 99.0773 23.5204 96.9519 23.5204 94.4514C23.5204 92.003 24.38 89.9088 26.0991 88.1688C27.8182 86.4289 29.8863 85.5589 32.3035 85.5589C33.6996 85.5589 34.9603 85.8559 36.0855 86.4497C37.2212 87.0436 38.2161 87.9344 39.0705 89.1222V85.9965H41.2272ZM32.4754 87.6687C31.2564 87.6687 30.1312 87.9709 29.0997 88.5752C28.0682 89.169 27.2452 90.0078 26.6304 91.0913C26.0262 92.1749 25.724 93.3209 25.724 94.5295C25.724 95.7277 26.0314 96.8737 26.6461 97.9677C27.2608 99.0617 28.0839 99.916 29.1153 100.531C30.1572 101.135 31.272 101.437 32.4598 101.437C33.6579 101.437 34.7936 101.135 35.8667 100.531C36.9398 99.9265 37.7629 99.1086 38.336 98.0771C38.9194 97.0457 39.2111 95.884 39.2111 94.592C39.2111 92.6229 38.56 90.9767 37.2576 89.6535C35.9657 88.3303 34.3716 87.6687 32.4754 87.6687ZM70.7488 87.8563L69.3423 89.3097C68.1754 88.1741 67.0345 87.6062 65.9197 87.6062C65.2113 87.6062 64.6018 87.8406 64.0912 88.3095C63.5911 88.7783 63.3411 89.3253 63.3411 89.9505C63.3411 90.5027 63.5495 91.0288 63.9662 91.5289C64.383 92.0394 65.2581 92.6385 66.5917 93.3261C68.2171 94.1701 69.3215 94.9827 69.9049 95.7641C70.478 96.556 70.7645 97.4468 70.7645 98.4366C70.7645 99.8327 70.2748 101.015 69.2954 101.984C68.3161 102.953 67.0918 103.438 65.6228 103.438C64.6434 103.438 63.7057 103.224 62.8097 102.797C61.9241 102.37 61.1896 101.781 60.6061 101.031L61.9814 99.468C63.0962 100.729 64.2788 101.359 65.529 101.359C66.4042 101.359 67.1491 101.078 67.7639 100.515C68.3786 99.9525 68.6859 99.2909 68.6859 98.5303C68.6859 97.9052 68.4828 97.3478 68.0764 96.8581C67.6701 96.3789 66.7532 95.7746 65.3259 95.0452C63.7943 94.2534 62.7524 93.472 62.2002 92.701C61.648 91.93 61.3719 91.0496 61.3719 90.0599C61.3719 88.7679 61.8095 87.6948 62.6847 86.8404C63.5703 85.9861 64.6851 85.5589 66.0291 85.5589C67.5919 85.5589 69.1652 86.3247 70.7488 87.8563Z" fill="#37514D"/>
<path d="M41.2272 7.99652V25H39.0705V22.0775C38.1536 23.1923 37.1222 24.0311 35.9761 24.5937C34.8405 25.1563 33.5954 25.4376 32.241 25.4376C29.8342 25.4376 27.7765 24.5676 26.0678 22.8277C24.3696 21.0773 23.5204 18.9519 23.5204 16.4514C23.5204 14.003 24.38 11.9088 26.0991 10.1688C27.8182 8.4289 29.8863 7.55893 32.3035 7.55893C33.6996 7.55893 34.9603 7.85587 36.0855 8.44974C37.2212 9.04361 38.2161 9.93442 39.0705 11.1222V7.99652H41.2272ZM32.4754 9.66874C31.2564 9.66874 30.1312 9.97088 29.0997 10.5752C28.0682 11.169 27.2452 12.0078 26.6304 13.0913C26.0262 14.1749 25.724 15.3209 25.724 16.5295C25.724 17.7277 26.0314 18.8737 26.6461 19.9677C27.2608 21.0617 28.0839 21.916 29.1153 22.5307C30.1572 23.135 31.272 23.4372 32.4598 23.4372C33.6579 23.4372 34.7936 23.135 35.8667 22.5307C36.9398 21.9265 37.7629 21.1086 38.336 20.0771C38.9194 19.0457 39.2111 17.884 39.2111 16.592C39.2111 14.6229 38.56 12.9767 37.2576 11.6535C35.9657 10.3303 34.3716 9.66874 32.4754 9.66874ZM31.7409 0.901321H33.9132L38.4454 4.91777H35.6323L32.8817 2.54228L30.0061 4.91777H27.0993L31.7409 0.901321ZM71.9678 9.85628L70.5613 11.3097C69.3944 10.1741 68.2535 9.60623 67.1387 9.60623C66.4303 9.60623 65.8208 9.84065 65.3102 10.3095C64.8101 10.7783 64.5601 11.3253 64.5601 11.9505C64.5601 12.5027 64.7685 13.0288 65.1852 13.5289C65.602 14.0394 66.4771 14.6385 67.8107 15.3261C69.4361 16.1701 70.5405 16.9827 71.1239 17.7641C71.697 18.556 71.9835 19.4468 71.9835 20.4366C71.9835 21.8327 71.4938 23.0152 70.5144 23.9842C69.5351 24.9531 68.3108 25.4376 66.8418 25.4376C65.8624 25.4376 64.9247 25.224 64.0287 24.7968C63.1431 24.3697 62.4086 23.781 61.8251 23.0308L63.2004 21.468C64.3152 22.7287 65.4978 23.359 66.748 23.359C67.6232 23.359 68.3682 23.0777 68.9829 22.5151C69.5976 21.9525 69.9049 21.2909 69.9049 20.5303C69.9049 19.9052 69.7018 19.3478 69.2954 18.8581C68.8891 18.3789 67.9722 17.7746 66.5449 17.0452C65.0133 16.2534 63.9714 15.472 63.4192 14.701C62.867 13.93 62.5909 13.0496 62.5909 12.0599C62.5909 10.7679 63.0285 9.69479 63.9037 8.84045C64.7893 7.9861 65.9041 7.55893 67.2481 7.55893C68.811 7.55893 70.3842 8.32471 71.9678 9.85628ZM84.4079 9.85628L83.0013 11.3097C81.8344 10.1741 80.6936 9.60623 79.5788 9.60623C78.8703 9.60623 78.2608 9.84065 77.7503 10.3095C77.2502 10.7783 77.0001 11.3253 77.0001 11.9505C77.0001 12.5027 77.2085 13.0288 77.6252 13.5289C78.042 14.0394 78.9172 14.6385 80.2508 15.3261C81.8761 16.1701 82.9805 16.9827 83.564 17.7641C84.137 18.556 84.4235 19.4468 84.4235 20.4366C84.4235 21.8327 83.9338 23.0152 82.9545 23.9842C81.9751 24.9531 80.7509 25.4376 79.2818 25.4376C78.3025 25.4376 77.3648 25.224 76.4688 24.7968C75.5832 24.3697 74.8486 23.781 74.2652 23.0308L75.6405 21.468C76.7553 22.7287 77.9378 23.359 79.1881 23.359C80.0632 23.359 80.8082 23.0777 81.4229 22.5151C82.0376 21.9525 82.345 21.2909 82.345 20.5303C82.345 19.9052 82.1418 19.3478 81.7355 18.8581C81.3291 18.3789 80.4123 17.7746 78.9849 17.0452C77.4533 16.2534 76.4115 15.472 75.8593 14.701C75.3071 13.93 75.031 13.0496 75.031 12.0599C75.031 10.7679 75.4686 9.69479 76.3437 8.84045C77.2293 7.9861 78.3441 7.55893 79.6882 7.55893C81.251 7.55893 82.8242 8.32471 84.4079 9.85628ZM57.2305 40.4327V64H55.0738V61.0775C54.1569 62.1923 53.1254 63.0311 51.9794 63.5937C50.8437 64.1563 49.5987 64.4376 48.2442 64.4376C45.8375 64.4376 43.7798 63.5676 42.0711 61.8277C40.3728 60.0773 39.5237 57.9519 39.5237 55.4514C39.5237 53.003 40.3833 50.9088 42.1024 49.1688C43.8215 47.4289 45.8896 46.5589 48.3068 46.5589C49.7029 46.5589 50.9635 46.8559 52.0888 47.4497C53.2244 48.0436 54.2194 48.9344 55.0738 50.1222V40.4327H57.2305ZM48.4787 48.6687C47.2597 48.6687 46.1344 48.9709 45.103 49.5752C44.0715 50.169 43.2484 51.0078 42.6337 52.0913C42.0294 53.1749 41.7273 54.3209 41.7273 55.5295C41.7273 56.7277 42.0346 57.8737 42.6493 58.9677C43.2641 60.0617 44.0871 60.916 45.1186 61.5307C46.1605 62.135 47.2753 62.4372 48.463 62.4372C49.6612 62.4372 50.7968 62.135 51.87 61.5307C52.9431 60.9265 53.7662 60.1086 54.3392 59.0771C54.9227 58.0457 55.2144 56.884 55.2144 55.592C55.2144 53.6229 54.5632 51.9767 53.2609 50.6535C51.969 49.3303 50.3749 48.6687 48.4787 48.6687ZM84.0797 40.4327H86.2676V50.044C87.1532 48.8771 88.1274 48.0071 89.1901 47.4341C90.2528 46.8507 91.4041 46.5589 92.644 46.5589C93.915 46.5589 95.0403 46.8819 96.0196 47.5279C97.0094 48.1738 97.7387 49.0438 98.2076 50.1378C98.6764 51.2213 98.9109 52.9248 98.9109 55.2482V64H96.7229V55.889C96.7229 53.9302 96.6448 52.6227 96.4885 51.9663C96.2176 50.8411 95.7227 49.9971 95.0038 49.4345C94.2953 48.8615 93.3628 48.575 92.2064 48.575C90.8832 48.575 89.6954 49.0126 88.6431 49.8877C87.6013 50.7629 86.9136 51.8465 86.5802 53.1384C86.3718 53.9719 86.2676 55.5139 86.2676 57.7643V64H84.0797V40.4327ZM124.666 46.9965H126.901V49.4814C127.568 48.502 128.271 47.7727 129.011 47.2935C129.75 46.8038 130.521 46.5589 131.324 46.5589C131.928 46.5589 132.574 46.7517 133.262 47.1372L132.121 48.9813C131.662 48.7833 131.277 48.6844 130.964 48.6844C130.235 48.6844 129.532 48.9865 128.854 49.5908C128.177 50.1847 127.662 51.1119 127.307 52.3726C127.036 53.3416 126.901 55.3003 126.901 58.2488V64H124.666V46.9965ZM134.84 46.9965H137.044V54.9356C137.044 56.8735 137.148 58.2071 137.356 58.9365C137.669 59.9783 138.263 60.8014 139.138 61.4057C140.023 62.01 141.076 62.3122 142.295 62.3122C143.514 62.3122 144.545 62.0204 145.389 61.437C146.243 60.8431 146.832 60.0669 147.155 59.1084C147.374 58.452 147.483 57.0611 147.483 54.9356V46.9965H149.718V55.342C149.718 57.6862 149.442 59.4522 148.89 60.6399C148.348 61.8277 147.525 62.7602 146.421 63.4374C145.327 64.1042 143.951 64.4376 142.295 64.4376C140.638 64.4376 139.252 64.1042 138.138 63.4374C137.033 62.7602 136.205 61.8225 135.653 60.6243C135.111 59.4157 134.84 57.6029 134.84 55.1857V46.9965ZM198.478 40.4327C201.958 40.4327 204.87 41.5944 207.214 43.9178C209.558 46.2412 210.731 49.1011 210.731 52.4976C210.731 55.8629 209.558 58.7177 207.214 61.0619C204.88 63.4061 202.031 64.5782 198.666 64.5782C195.259 64.5782 192.383 63.4113 190.039 61.0775C187.695 58.7437 186.523 55.9202 186.523 52.607C186.523 50.3983 187.054 48.351 188.117 46.4652C189.19 44.5794 190.648 43.1051 192.492 42.0424C194.337 40.9692 196.332 40.4327 198.478 40.4327ZM198.587 42.6831C196.889 42.6831 195.28 43.1259 193.758 44.0115C192.237 44.8971 191.049 46.0901 190.195 47.5904C189.341 49.0907 188.914 50.7629 188.914 52.607C188.914 55.3368 189.857 57.6445 191.742 59.5303C193.639 61.4057 195.92 62.3434 198.587 62.3434C200.369 62.3434 202.015 61.911 203.526 61.0463C205.047 60.1815 206.23 58.999 207.074 57.4987C207.928 55.9984 208.355 54.3314 208.355 52.4976C208.355 50.6744 207.928 49.0282 207.074 47.5591C206.23 46.0797 205.037 44.8971 203.495 44.0115C201.953 43.1259 200.317 42.6831 198.587 42.6831ZM215.341 41.0109H217.685V49.6377L226.859 41.0109H229.969L218.92 51.3255L230.828 64H227.781L217.685 53.2791V64H215.341V41.0109ZM233.923 41.0109H236.22V64H233.923V41.0109ZM2.46926 85.9965H4.64157V89.1222C5.50633 87.9344 6.50133 87.0436 7.62656 86.4497C8.75179 85.8559 10.0073 85.5589 11.393 85.5589C13.8101 85.5589 15.8782 86.4289 17.5973 88.1688C19.3165 89.9088 20.176 92.003 20.176 94.4514C20.176 96.9519 19.3217 99.0773 17.613 100.828C15.9147 102.568 13.8622 103.438 11.4555 103.438C10.101 103.438 8.85598 103.156 7.72033 102.594C6.58468 102.031 5.55843 101.192 4.64157 100.078V109.22H2.46926V85.9965ZM11.221 87.6687C9.32482 87.6687 7.72554 88.3303 6.42319 89.6535C5.13126 90.9767 4.48529 92.6229 4.48529 94.592C4.48529 95.884 4.77181 97.0457 5.34484 98.0771C5.9283 99.1086 6.75659 99.9265 7.82973 100.531C8.91328 101.135 10.0541 101.437 11.2523 101.437C12.4296 101.437 13.534 101.135 14.5655 100.531C15.6074 99.916 16.4357 99.0617 17.0504 97.9677C17.6651 96.8737 17.9724 95.7277 17.9724 94.5295C17.9724 93.3209 17.6651 92.1749 17.0504 91.0913C16.4461 90.0078 15.6282 89.169 14.5967 88.5752C13.5653 87.9709 12.44 87.6687 11.221 87.6687ZM45.3374 85.9965H47.5722V88.4814C48.239 87.502 48.9423 86.7727 49.682 86.2935C50.4218 85.8038 51.1928 85.5589 51.995 85.5589C52.5993 85.5589 53.2453 85.7517 53.9329 86.1372L52.792 87.9813C52.3336 87.7833 51.9481 87.6844 51.6356 87.6844C50.9062 87.6844 50.203 87.9865 49.5258 88.5908C48.8485 89.1847 48.3328 90.1119 47.9786 91.3726C47.7077 92.3416 47.5722 94.3003 47.5722 97.2488V103H45.3374V85.9965ZM56.5584 78.9951C57.0585 78.9951 57.4857 79.1722 57.84 79.5264C58.1942 79.8807 58.3713 80.3079 58.3713 80.808C58.3713 81.2976 58.1942 81.7196 57.84 82.0738C57.4857 82.4281 57.0585 82.6052 56.5584 82.6052C56.0688 82.6052 55.6468 82.4281 55.2926 82.0738C54.9383 81.7196 54.7612 81.2976 54.7612 80.808C54.7612 80.3079 54.9383 79.8807 55.2926 79.5264C55.6468 79.1722 56.0688 78.9951 56.5584 78.9951ZM55.4645 85.9965H57.668V103H55.4645V85.9965Z" fill="#EEE6DE"/>
</svg>
