<svg width="18" height="18" viewBox="0 0 18 18" fill="none" xmlns="http://www.w3.org/2000/svg">
<path d="M1 3.22222C1 10.8315 7.16852 17 14.7778 17C15.1211 17 15.4615 16.9874 15.7985 16.9628C16.1852 16.9344 16.3786 16.9203 16.5546 16.8189C16.7004 16.735 16.8387 16.5862 16.9118 16.4347C17 16.2517 17 16.0383 17 15.6115V13.1073C17 12.7484 17 12.5689 16.9409 12.4151C16.8888 12.2792 16.804 12.1582 16.6941 12.0627C16.5697 11.9547 16.4011 11.8933 16.0638 11.7707L13.2133 10.7341C12.8209 10.5914 12.6247 10.5201 12.4385 10.5322C12.2743 10.5429 12.1164 10.5989 11.9822 10.694C11.83 10.8019 11.7226 10.9809 11.5077 11.339L11.5077 11.339L10.7778 12.5556C8.42234 11.4888 6.5128 9.57678 5.44444 7.22222L6.66101 6.49229C7.01907 6.27745 7.1981 6.17003 7.30598 6.01783C7.40111 5.88363 7.45713 5.72566 7.46781 5.56151C7.47992 5.37535 7.40857 5.17913 7.26587 4.78671L6.22932 1.93619C6.10667 1.5989 6.04534 1.43025 5.93726 1.30586C5.84179 1.19599 5.7208 1.11124 5.58491 1.05907C5.43107 1 5.25162 1 4.89273 1H2.38846C1.96167 1 1.74828 1 1.56531 1.08822C1.41378 1.1613 1.26501 1.29957 1.18107 1.44536C1.07972 1.62139 1.06556 1.81477 1.03723 2.20153C1.01256 2.53854 1 2.87892 1 3.22222Z" stroke="#F0E4D8" stroke-width="1.5" stroke-linecap="round" stroke-linejoin="round"/>
</svg>
