<svg width="1640" height="169" viewBox="0 0 1640 169" fill="none" xmlns="http://www.w3.org/2000/svg">
<path d="M0.932099 134.245L-0.096893 132.53L-1.7456 133.519L-0.822094 135.205L0.932099 134.245ZM14.5066 126.1L16.2641 125.145L15.2676 123.311L13.4776 124.385L14.5066 126.1ZM62.7234 148.797L63.6504 150.569L63.661 150.563L63.6716 150.557L62.7234 148.797ZM71.7368 109.593L70.1015 110.745L70.1016 110.745L71.7368 109.593ZM44.3706 83.9646L43.1651 85.5604L43.1664 85.5614L44.3706 83.9646ZM19.5021 62.1367L21.1207 60.9619L21.1115 60.9493L21.1021 60.9367L19.5021 62.1367ZM16.027 18.6982L17.7553 19.7046L16.027 18.6982ZM30.0359 5.23229L30.9891 6.99052L30.9965 6.98649L30.0359 5.23229ZM70.8681 5.88387L69.8675 7.6156L69.8789 7.62215L69.8903 7.62856L70.8681 5.88387ZM91.7186 26.4086L92.927 28.0022L94.4938 26.8141L93.3325 25.2274L91.7186 26.4086ZM78.687 36.2908L77.0905 37.4955L78.298 39.0958L79.8955 37.8844L78.687 36.2908ZM63.2663 20.5444L62.233 22.2567L62.2395 22.2606L62.2459 22.2645L63.2663 20.5444ZM33.6196 22.6077L32.2441 21.1558L32.2377 21.1619L32.2313 21.168L33.6196 22.6077ZM29.7101 47.1504L31.5377 46.3382L29.7101 47.1504ZM37.6376 57.7929L36.2234 59.2071L36.2358 59.2195L36.2484 59.2317L37.6376 57.7929ZM58.2709 73.7565L57.0821 75.3649L57.0831 75.3656L58.2709 73.7565ZM86.7231 101.014L85.0428 102.099L86.7231 101.014ZM81.1847 155.204L79.7943 153.766L79.7884 153.772L81.1847 155.204ZM22.7599 160.308L21.6576 161.977L21.6683 161.984L22.7599 160.308ZM1.96109 135.96L15.5356 127.815L13.4776 124.385L-0.096893 132.53L1.96109 135.96ZM12.7492 127.055C22.4315 144.879 33.9977 154.489 47.6285 154.489V150.489C36.2097 150.489 25.6947 142.506 16.2641 125.145L12.7492 127.055ZM47.6285 154.489C53.3058 154.489 58.6558 153.181 63.6504 150.569L61.7964 147.024C57.3792 149.335 52.666 150.489 47.6285 150.489V154.489ZM63.6716 150.557C68.6676 147.867 72.5349 144.255 75.1998 139.709L71.749 137.686C69.4909 141.538 66.1908 144.658 61.7752 147.036L63.6716 150.557ZM75.1998 139.709C77.8347 135.214 79.1667 130.414 79.1667 125.34H75.1667C75.1667 129.677 74.0371 133.782 71.749 137.686L75.1998 139.709ZM79.1667 125.34C79.1667 119.502 77.187 113.859 73.3721 108.442L70.1016 110.745C73.5265 115.608 75.1667 120.462 75.1667 125.34H79.1667ZM73.3722 108.442C68.1927 101.086 58.8672 92.3915 45.5748 82.3677L43.1664 85.5614C56.3715 95.5194 65.2901 103.911 70.1015 110.745L73.3722 108.442ZM45.5761 82.3687C32.2123 72.2732 24.1739 65.1687 21.1207 60.9619L17.8835 63.3115C21.3459 68.0821 29.8866 75.5294 43.1651 85.5604L45.5761 82.3687ZM21.1021 60.9367C15.6942 53.7262 13.0315 45.9969 13.0315 37.7026H9.03155C9.03155 46.9284 12.0159 55.4885 17.9021 63.3367L21.1021 60.9367ZM13.0315 37.7026C13.0315 31.0875 14.612 25.1029 17.7553 19.7046L14.2986 17.6918C10.7814 23.7324 9.03155 30.4173 9.03155 37.7026H13.0315ZM17.7553 19.7046C20.8948 14.3129 25.2915 10.0796 30.9891 6.99051L29.0826 3.47408C22.7623 6.90075 17.8197 11.6448 14.2986 17.6918L17.7553 19.7046ZM30.9965 6.98649C36.7763 3.82134 43.0331 2.23687 49.8004 2.23687V-1.76313C42.3778 -1.76313 35.4582 -0.0173281 29.0753 3.4781L30.9965 6.98649ZM49.8004 2.23687C56.9787 2.23687 63.6561 4.02678 69.8675 7.6156L71.8686 4.15214C65.0485 0.211625 57.6808 -1.76313 49.8004 -1.76313V2.23687ZM69.8903 7.62856C76.1185 11.1191 82.8667 17.7003 90.1046 27.5898L93.3325 25.2274C85.9461 15.1351 78.7941 8.03322 71.8459 4.13919L69.8903 7.62856ZM90.5101 24.815L77.4785 34.6972L79.8955 37.8844L92.927 28.0022L90.5101 24.815ZM80.2835 35.0862C74.2438 27.0817 68.9102 21.567 64.2867 18.8243L62.2459 22.2645C66.1654 24.5896 71.1123 29.5725 77.0905 37.4955L80.2835 35.0862ZM64.2997 18.832C59.7827 16.1063 54.8271 14.7435 49.4746 14.7435V18.7435C54.113 18.7435 58.3518 19.9146 62.233 22.2567L64.2997 18.832ZM49.4746 14.7435C42.5933 14.7435 36.7925 16.8467 32.2441 21.1558L34.9951 24.0596C38.6999 20.5497 43.4692 18.7435 49.4746 18.7435V14.7435ZM32.2313 21.168C27.7793 25.461 25.5382 30.798 25.5382 37.051H29.5382C29.5382 31.8651 31.3513 27.5734 35.0078 24.0474L32.2313 21.168ZM25.5382 37.051C25.5382 40.8133 26.3239 44.4559 27.8825 47.9627L31.5377 46.3382C30.2004 43.3292 29.5382 40.2389 29.5382 37.051H25.5382ZM27.8825 47.9627C29.4681 51.5303 32.2941 55.2777 36.2234 59.2071L39.0518 56.3787C35.3071 52.6339 32.8481 49.2864 31.5377 46.3382L27.8825 47.9627ZM36.2484 59.2317C38.4671 61.3738 45.4808 66.7899 57.0821 75.3649L59.4597 72.1482C47.7491 63.4925 41.0073 58.2662 39.0268 56.3541L36.2484 59.2317ZM57.0831 75.3656C70.8482 85.5273 80.1001 94.4411 85.0428 102.099L88.4035 99.9296C83.0658 91.6598 73.3494 82.4019 59.4587 72.1475L57.0831 75.3656ZM85.0428 102.099C90.0124 109.798 92.4335 117.427 92.4335 125.014H96.4335C96.4335 116.528 93.7143 108.158 88.4035 99.9296L85.0428 102.099ZM92.4335 125.014C92.4335 136.02 88.2636 145.574 79.7943 153.766L82.5752 156.641C91.7708 147.747 96.4335 137.175 96.4335 125.014H92.4335ZM79.7884 153.772C71.4139 161.939 61.2414 166.018 49.1488 166.018V170.018C62.2506 170.018 73.4353 165.555 82.5811 156.636L79.7884 153.772ZM49.1488 166.018C39.8228 166.018 31.4079 163.554 23.8515 158.632L21.6683 161.984C29.8946 167.342 39.0723 170.018 49.1488 170.018V166.018ZM23.8623 158.639C16.3398 153.67 9.25808 145.285 2.68629 133.284L-0.822094 135.205C5.92726 147.53 13.3974 156.52 21.6576 161.977L23.8623 158.639ZM243.428 45.8473H245.428V43.8473H243.428V45.8473ZM243.428 164V166H245.428V164H243.428ZM228.441 164H226.441V166H228.441V164ZM228.441 143.693H230.441V138.112L226.897 142.422L228.441 143.693ZM206.939 161.176L206.058 159.381L206.051 159.384L206.939 161.176ZM138.089 148.905L136.654 150.298L136.662 150.306L138.089 148.905ZM138.306 60.9422L136.884 59.5365L138.306 60.9422ZM207.699 48.9966L206.766 50.7654L206.773 50.7689L207.699 48.9966ZM228.441 67.5665L226.818 68.7344L230.441 73.7721V67.5665H228.441ZM228.441 45.8473V43.8473H226.441V45.8473H228.441ZM159.157 63.7657L160.155 65.4989L160.161 65.4951L160.168 65.4913L159.157 63.7657ZM141.999 81.2497L140.259 80.2628L140.255 80.2691L140.252 80.2755L141.999 81.2497ZM159.265 146.842L158.242 148.56L158.252 148.566L158.262 148.572L159.265 146.842ZM206.179 146.842L205.198 145.099L206.179 146.842ZM223.337 129.792L221.596 128.807L221.593 128.814L221.589 128.821L223.337 129.792ZM215.844 71.2588L214.413 72.656L214.419 72.6618L215.844 71.2588ZM241.428 45.8473V164H245.428V45.8473H241.428ZM243.428 162H228.441V166H243.428V162ZM230.441 164V143.693H226.441V164H230.441ZM226.897 142.422C220.683 149.977 213.734 155.613 206.058 159.381L207.821 162.972C216.072 158.921 223.457 152.901 229.986 144.963L226.897 142.422ZM206.051 159.384C198.455 163.148 190.11 165.041 180.985 165.041V169.041C190.683 169.041 199.641 167.024 207.827 162.969L206.051 159.384ZM180.985 165.041C164.806 165.041 151.019 159.217 139.516 147.504L136.662 150.306C148.906 162.774 163.716 169.041 180.985 169.041V165.041ZM139.525 147.512C128.096 135.733 122.388 121.468 122.388 104.598H118.388C118.388 122.479 124.481 137.751 136.654 150.298L139.525 147.512ZM122.388 104.598C122.388 88.1101 128.154 74.0634 139.729 62.3478L136.884 59.5365C124.568 72.0017 118.388 87.0588 118.388 104.598H122.388ZM139.729 62.3478C151.304 50.6326 165.165 44.8066 181.419 44.8066V40.8066C164.081 40.8066 149.2 47.0709 136.884 59.5365L139.729 62.3478ZM181.419 44.8066C190.827 44.8066 199.262 46.8049 206.766 50.7653L208.633 47.2278C200.499 42.9349 191.413 40.8066 181.419 40.8066V44.8066ZM206.773 50.7689C214.351 54.7319 221.037 60.6981 226.818 68.7344L230.065 66.3987C223.972 57.9284 216.83 51.5146 208.626 47.2243L206.773 50.7689ZM230.441 67.5665V45.8473H226.441V67.5665H230.441ZM228.441 47.8473H243.428V43.8473H228.441V47.8473ZM182.614 55.4671C173.795 55.4671 165.626 57.6576 158.146 62.04L160.168 65.4913C167.022 61.4756 174.491 59.4671 182.614 59.4671V55.4671ZM158.159 62.0324C150.667 66.3457 144.698 72.4381 140.259 80.2628L143.738 82.2365C147.842 75.0026 153.312 69.439 160.155 65.4989L158.159 62.0324ZM140.252 80.2755C135.891 88.0944 133.7 96.3924 133.7 105.141H137.7C137.7 97.093 139.708 89.4636 143.745 82.2238L140.252 80.2755ZM133.7 105.141C133.7 113.826 135.932 122.126 140.364 130.012L143.851 128.052C139.739 120.735 137.7 113.107 137.7 105.141H133.7ZM140.364 130.012C144.798 137.904 150.76 144.101 158.242 148.56L160.289 145.124C153.436 141.039 147.959 135.364 143.851 128.052L140.364 130.012ZM158.262 148.572C165.802 152.945 173.894 155.14 182.505 155.14V151.14C174.609 151.14 167.208 149.137 160.269 145.112L158.262 148.572ZM182.505 155.14C191.184 155.14 199.413 152.947 207.16 148.584L205.198 145.099C198.032 149.134 190.477 151.14 182.505 151.14V155.14ZM207.16 148.584C214.925 144.212 220.916 138.268 225.086 130.763L221.589 128.821C217.795 135.651 212.347 141.073 205.198 145.099L207.16 148.584ZM225.078 130.777C229.317 123.282 231.419 114.866 231.419 105.575H227.419C227.419 114.239 225.466 121.967 221.596 128.807L225.078 130.777ZM231.419 105.575C231.419 91.4024 226.711 79.4488 217.269 69.8559L214.419 72.6618C223.076 81.4577 227.419 92.3818 227.419 105.575H231.419ZM217.275 69.8616C207.911 60.2708 196.313 55.4671 182.614 55.4671V59.4671C195.267 59.4671 205.823 63.8579 214.413 72.656L217.275 69.8616ZM395.679 0.236866H397.679V-1.76313H395.679V0.236866ZM395.679 164V166H397.679V164H395.679ZM380.693 164H378.693V166H380.693V164ZM380.693 143.693H382.693V138.112L379.148 142.422L380.693 143.693ZM359.191 161.176L358.31 159.381L358.303 159.384L359.191 161.176ZM290.341 148.905L288.906 150.298L288.914 150.306L290.341 148.905ZM290.558 60.9422L289.136 59.5365L290.558 60.9422ZM359.951 48.9966L359.018 50.7654L359.024 50.7689L359.951 48.9966ZM380.693 67.5665L379.07 68.7344L382.693 73.7721V67.5665H380.693ZM380.693 0.236866V-1.76313H378.693V0.236866H380.693ZM311.409 63.7657L312.407 65.4989L312.413 65.4951L312.42 65.4913L311.409 63.7657ZM294.251 81.2497L292.511 80.2628L292.507 80.2691L292.504 80.2755L294.251 81.2497ZM311.517 146.842L310.493 148.56L310.504 148.566L310.514 148.572L311.517 146.842ZM358.431 146.842L357.45 145.099L358.431 146.842ZM375.589 129.792L373.848 128.807L373.845 128.814L373.841 128.821L375.589 129.792ZM368.096 71.2588L366.665 72.656L366.671 72.6618L368.096 71.2588ZM393.679 0.236866V164H397.679V0.236866H393.679ZM395.679 162H380.693V166H395.679V162ZM382.693 164V143.693H378.693V164H382.693ZM379.148 142.422C372.935 149.977 365.986 155.613 358.31 159.381L360.072 162.972C368.324 158.921 375.709 152.901 382.238 144.963L379.148 142.422ZM358.303 159.384C350.707 163.148 342.362 165.041 333.237 165.041V169.041C342.935 169.041 351.893 167.024 360.079 162.969L358.303 159.384ZM333.237 165.041C317.057 165.041 303.271 159.217 291.768 147.504L288.914 150.306C301.158 162.774 315.968 169.041 333.237 169.041V165.041ZM291.777 147.512C280.348 135.733 274.64 121.468 274.64 104.598H270.64C270.64 122.479 276.733 137.751 288.906 150.298L291.777 147.512ZM274.64 104.598C274.64 88.1101 280.406 74.0634 291.981 62.3478L289.136 59.5365C276.82 72.0017 270.64 87.0588 270.64 104.598H274.64ZM291.981 62.3478C303.556 50.6326 317.417 44.8066 333.671 44.8066V40.8066C316.333 40.8066 301.452 47.0709 289.136 59.5365L291.981 62.3478ZM333.671 44.8066C343.079 44.8066 351.514 46.8049 359.018 50.7653L360.885 47.2278C352.751 42.9349 343.665 40.8066 333.671 40.8066V44.8066ZM359.024 50.7689C366.603 54.7319 373.289 60.6981 379.07 68.7344L382.317 66.3987C376.224 57.9284 369.082 51.5146 360.878 47.2243L359.024 50.7689ZM382.693 67.5665V0.236866H378.693V67.5665H382.693ZM380.693 2.23687H395.679V-1.76313H380.693V2.23687ZM334.866 55.4671C326.047 55.4671 317.878 57.6576 310.398 62.04L312.42 65.4913C319.274 61.4756 326.743 59.4671 334.866 59.4671V55.4671ZM310.411 62.0324C302.919 66.3457 296.95 72.4381 292.511 80.2628L295.99 82.2365C300.094 75.0026 305.563 69.439 312.407 65.4989L310.411 62.0324ZM292.504 80.2755C288.143 88.0944 285.952 96.3924 285.952 105.141H289.952C289.952 97.093 291.96 89.4636 295.997 82.2238L292.504 80.2755ZM285.952 105.141C285.952 113.826 288.184 122.126 292.616 130.012L296.103 128.052C291.991 120.735 289.952 113.107 289.952 105.141H285.952ZM292.616 130.012C297.05 137.904 303.012 144.101 310.493 148.56L312.541 145.124C305.688 141.039 300.211 135.364 296.103 128.052L292.616 130.012ZM310.514 148.572C318.054 152.945 326.146 155.14 334.757 155.14V151.14C326.861 151.14 319.46 149.137 312.521 145.112L310.514 148.572ZM334.757 155.14C343.436 155.14 351.664 152.947 359.412 148.584L357.45 145.099C350.284 149.134 342.729 151.14 334.757 151.14V155.14ZM359.412 148.584C367.176 144.212 373.168 138.268 377.337 130.763L373.841 128.821C370.047 135.651 364.599 141.073 357.45 145.099L359.412 148.584ZM377.33 130.777C381.569 123.282 383.671 114.866 383.671 105.575H379.671C379.671 114.239 377.718 121.967 373.848 128.807L377.33 130.777ZM383.671 105.575C383.671 91.4024 378.963 79.4488 369.521 69.8559L366.671 72.6618C375.328 81.4577 379.671 92.3818 379.671 105.575H383.671ZM369.527 69.8616C360.163 60.2708 348.565 55.4671 334.866 55.4671V59.4671C347.519 59.4671 358.075 63.8579 366.665 72.656L369.527 69.8616ZM547.931 45.8473H549.931V43.8473H547.931V45.8473ZM547.931 164V166H549.931V164H547.931ZM532.945 164H530.945V166H532.945V164ZM532.945 143.693H534.945V138.112L531.4 142.422L532.945 143.693ZM511.443 161.176L510.562 159.381L510.555 159.384L511.443 161.176ZM442.593 148.905L441.158 150.298L441.166 150.306L442.593 148.905ZM442.81 60.9422L441.388 59.5365L442.81 60.9422ZM512.203 48.9966L511.27 50.7654L511.276 50.7689L512.203 48.9966ZM532.945 67.5665L531.321 68.7344L534.945 73.7721V67.5665H532.945ZM532.945 45.8473V43.8473H530.945V45.8473H532.945ZM463.661 63.7657L464.659 65.4989L464.665 65.4951L464.672 65.4913L463.661 63.7657ZM446.502 81.2497L444.763 80.2628L444.759 80.2691L444.756 80.2755L446.502 81.2497ZM463.769 146.842L462.745 148.56L462.756 148.566L462.766 148.572L463.769 146.842ZM510.683 146.842L509.702 145.099L510.683 146.842ZM527.841 129.792L526.1 128.807L526.096 128.814L526.093 128.821L527.841 129.792ZM520.348 71.2588L518.917 72.656L518.923 72.6618L520.348 71.2588ZM545.931 45.8473V164H549.931V45.8473H545.931ZM547.931 162H532.945V166H547.931V162ZM534.945 164V143.693H530.945V164H534.945ZM531.4 142.422C525.187 149.977 518.238 155.613 510.562 159.381L512.324 162.972C520.576 158.921 527.961 152.901 534.49 144.963L531.4 142.422ZM510.555 159.384C502.959 163.148 494.614 165.041 485.489 165.041V169.041C495.187 169.041 504.145 167.024 512.331 162.969L510.555 159.384ZM485.489 165.041C469.309 165.041 455.523 159.217 444.02 147.504L441.166 150.306C453.41 162.774 468.22 169.041 485.489 169.041V165.041ZM444.028 147.512C432.6 135.733 426.892 121.468 426.892 104.598H422.892C422.892 122.479 428.985 137.751 441.158 150.298L444.028 147.512ZM426.892 104.598C426.892 88.1101 432.658 74.0634 444.233 62.3478L441.388 59.5365C429.072 72.0017 422.892 87.0588 422.892 104.598H426.892ZM444.233 62.3478C455.808 50.6326 469.668 44.8066 485.923 44.8066V40.8066C468.585 40.8066 453.704 47.0709 441.388 59.5365L444.233 62.3478ZM485.923 44.8066C495.331 44.8066 503.766 46.8049 511.27 50.7653L513.137 47.2278C505.003 42.9349 495.917 40.8066 485.923 40.8066V44.8066ZM511.276 50.7689C518.855 54.7319 525.541 60.6981 531.321 68.7344L534.569 66.3987C528.476 57.9284 521.334 51.5146 513.13 47.2243L511.276 50.7689ZM534.945 67.5665V45.8473H530.945V67.5665H534.945ZM532.945 47.8473H547.931V43.8473H532.945V47.8473ZM487.117 55.4671C478.299 55.4671 470.13 57.6576 462.65 62.04L464.672 65.4913C471.526 61.4756 478.995 59.4671 487.117 59.4671V55.4671ZM462.663 62.0324C455.171 66.3457 449.202 72.4381 444.763 80.2628L448.242 82.2365C452.346 75.0026 457.815 69.439 464.659 65.4989L462.663 62.0324ZM444.756 80.2755C440.395 88.0944 438.204 96.3924 438.204 105.141H442.204C442.204 97.093 444.212 89.4636 448.249 82.2238L444.756 80.2755ZM438.204 105.141C438.204 113.826 440.436 122.126 444.867 130.012L448.355 128.052C444.243 120.735 442.204 113.107 442.204 105.141H438.204ZM444.867 130.012C449.302 137.904 455.264 144.101 462.745 148.56L464.793 145.124C457.94 141.039 452.463 135.364 448.355 128.052L444.867 130.012ZM462.766 148.572C470.306 152.945 478.398 155.14 487.009 155.14V151.14C479.113 151.14 471.712 149.137 464.773 145.112L462.766 148.572ZM487.009 155.14C495.688 155.14 503.916 152.947 511.664 148.584L509.702 145.099C502.535 149.134 494.981 151.14 487.009 151.14V155.14ZM511.664 148.584C519.428 144.212 525.42 138.268 529.589 130.763L526.093 128.821C522.298 135.651 516.851 141.073 509.702 145.099L511.664 148.584ZM529.582 130.777C533.821 123.282 535.922 114.866 535.922 105.575H531.922C531.922 114.239 529.97 121.967 526.1 128.807L529.582 130.777ZM535.922 105.575C535.922 91.4024 531.215 79.4488 521.773 69.8559L518.923 72.6618C527.58 81.4577 531.922 92.3818 531.922 105.575H535.922ZM521.779 69.8616C512.415 60.2708 500.817 55.4671 487.117 55.4671V59.4671C499.77 59.4671 510.327 63.8579 518.917 72.656L521.779 69.8616ZM582.248 0.236866V-1.76313H580.248V0.236866H582.248ZM597.451 0.236866H599.451V-1.76313H597.451V0.236866ZM597.451 67.0236H595.451V72.9671L599.044 68.2326L597.451 67.0236ZM617.759 48.888L618.708 50.6484L618.715 50.6448L618.721 50.6411L617.759 48.888ZM665.215 49.5396L664.114 51.2091L664.122 51.2144L665.215 49.5396ZM680.419 67.6751L678.58 68.463L678.583 68.4694L680.419 67.6751ZM685.306 164V166H687.306V164H685.306ZM670.102 164H668.102V166H670.102V164ZM668.473 80.3809L670.419 79.9177L670.418 79.9128L668.473 80.3809ZM658.157 62.7883L656.899 64.3433L656.911 64.3534L656.924 64.3633L658.157 62.7883ZM613.958 65.9376L612.679 64.3999L612.671 64.4062L613.958 65.9376ZM599.623 88.5256L597.687 88.0259L597.685 88.0332L597.683 88.0405L599.623 88.5256ZM597.451 164V166H599.451V164H597.451ZM582.248 164H580.248V166H582.248V164ZM582.248 2.23687H597.451V-1.76313H582.248V2.23687ZM595.451 0.236866V67.0236H599.451V0.236866H595.451ZM599.044 68.2326C605.062 60.3042 611.623 54.4688 618.708 50.6484L616.81 47.1276C609.126 51.2709 602.149 57.5259 595.858 65.8145L599.044 68.2326ZM618.721 50.6411C625.804 46.7526 633.472 44.8066 641.759 44.8066V40.8066C632.815 40.8066 624.483 42.9148 616.796 47.1348L618.721 50.6411ZM641.759 44.8066C650.234 44.8066 657.663 46.9541 664.114 51.2091L666.316 47.87C659.157 43.1478 650.948 40.8066 641.759 40.8066V44.8066ZM664.122 51.2144C670.667 55.4858 675.477 61.2212 678.58 68.463L682.257 66.8873C678.845 58.9255 673.519 52.5706 666.308 47.8647L664.122 51.2144ZM678.583 68.4694C681.672 75.607 683.306 87.1013 683.306 103.186H687.306C687.306 86.9816 685.682 74.8019 682.254 66.8809L678.583 68.4694ZM683.306 103.186V164H687.306V103.186H683.306ZM685.306 162H670.102V166H685.306V162ZM672.102 164V107.639H668.102V164H672.102ZM672.102 107.639C672.102 94.0626 671.568 84.7434 670.419 79.9177L666.528 80.8441C667.551 85.1405 668.102 93.993 668.102 107.639H672.102ZM670.418 79.9128C668.458 71.7747 664.826 65.4682 659.389 61.2133L656.924 64.3633C661.478 67.9273 664.723 73.3492 666.529 80.849L670.418 79.9128ZM659.414 61.2333C654.049 56.8933 647.086 54.8155 638.718 54.8155V58.8155C646.422 58.8155 652.418 60.7195 656.899 64.3433L659.414 61.2333ZM638.718 54.8155C629.039 54.8155 620.337 58.0309 612.679 64.3999L615.237 67.4753C622.203 61.6815 630.008 58.8155 638.718 58.8155V54.8155ZM612.671 64.4062C605.12 70.7497 600.11 78.6369 597.687 88.0259L601.56 89.0254C603.77 80.4597 608.317 73.2883 615.244 67.469L612.671 64.4062ZM597.683 88.0405C596.167 94.1023 595.451 105.05 595.451 120.67H599.451C599.451 105.015 600.183 94.5325 601.563 89.0107L597.683 88.0405ZM595.451 120.67V164H599.451V120.67H595.451ZM597.451 162H582.248V166H597.451V162ZM584.248 164V0.236866H580.248V164H584.248ZM835.711 45.8473H837.711V43.8473H835.711V45.8473ZM835.711 164V166H837.711V164H835.711ZM820.725 164H818.725V166H820.725V164ZM820.725 143.693H822.725V138.112L819.18 142.422L820.725 143.693ZM799.223 161.176L798.342 159.381L798.335 159.384L799.223 161.176ZM730.373 148.905L728.938 150.298L728.946 150.306L730.373 148.905ZM730.59 60.9422L729.168 59.5365L730.59 60.9422ZM799.983 48.9966L799.05 50.7654L799.056 50.7689L799.983 48.9966ZM820.725 67.5665L819.102 68.7344L822.725 73.7721V67.5665H820.725ZM820.725 45.8473V43.8473H818.725V45.8473H820.725ZM751.441 63.7657L752.439 65.4989L752.445 65.4951L752.452 65.4913L751.441 63.7657ZM734.283 81.2497L732.543 80.2628L732.539 80.2691L732.536 80.2755L734.283 81.2497ZM751.549 146.842L750.525 148.56L750.536 148.566L750.546 148.572L751.549 146.842ZM798.463 146.842L797.482 145.099L798.463 146.842ZM815.621 129.792L813.88 128.807L813.877 128.814L813.873 128.821L815.621 129.792ZM808.128 71.2588L806.697 72.656L806.703 72.6618L808.128 71.2588ZM833.711 45.8473V164H837.711V45.8473H833.711ZM835.711 162H820.725V166H835.711V162ZM822.725 164V143.693H818.725V164H822.725ZM819.18 142.422C812.967 149.977 806.018 155.613 798.342 159.381L800.104 162.972C808.356 158.921 815.741 152.901 822.27 144.963L819.18 142.422ZM798.335 159.384C790.739 163.148 782.394 165.041 773.269 165.041V169.041C782.967 169.041 791.925 167.024 800.111 162.969L798.335 159.384ZM773.269 165.041C757.089 165.041 743.303 159.217 731.8 147.504L728.946 150.306C741.19 162.774 756 169.041 773.269 169.041V165.041ZM731.808 147.512C720.38 135.733 714.672 121.468 714.672 104.598H710.672C710.672 122.479 716.765 137.751 728.938 150.298L731.808 147.512ZM714.672 104.598C714.672 88.1101 720.438 74.0634 732.013 62.3478L729.168 59.5365C716.852 72.0017 710.672 87.0588 710.672 104.598H714.672ZM732.013 62.3478C743.588 50.6326 757.448 44.8066 773.703 44.8066V40.8066C756.365 40.8066 741.484 47.0709 729.168 59.5365L732.013 62.3478ZM773.703 44.8066C783.111 44.8066 791.546 46.8049 799.05 50.7653L800.917 47.2278C792.783 42.9349 783.697 40.8066 773.703 40.8066V44.8066ZM799.056 50.7689C806.635 54.7319 813.321 60.6981 819.102 68.7344L822.349 66.3987C816.256 57.9284 809.114 51.5146 800.91 47.2243L799.056 50.7689ZM822.725 67.5665V45.8473H818.725V67.5665H822.725ZM820.725 47.8473H835.711V43.8473H820.725V47.8473ZM774.898 55.4671C766.079 55.4671 757.91 57.6576 750.43 62.04L752.452 65.4913C759.306 61.4756 766.775 59.4671 774.898 59.4671V55.4671ZM750.443 62.0324C742.951 66.3457 736.982 72.4381 732.543 80.2628L736.022 82.2365C740.126 75.0026 745.595 69.439 752.439 65.4989L750.443 62.0324ZM732.536 80.2755C728.175 88.0944 725.984 96.3924 725.984 105.141H729.984C729.984 97.093 731.992 89.4636 736.029 82.2238L732.536 80.2755ZM725.984 105.141C725.984 113.826 728.216 122.126 732.648 130.012L736.135 128.052C732.023 120.735 729.984 113.107 729.984 105.141H725.984ZM732.648 130.012C737.082 137.904 743.044 144.101 750.525 148.56L752.573 145.124C745.72 141.039 740.243 135.364 736.135 128.052L732.648 130.012ZM750.546 148.572C758.086 152.945 766.178 155.14 774.789 155.14V151.14C766.893 151.14 759.492 149.137 752.553 145.112L750.546 148.572ZM774.789 155.14C783.468 155.14 791.696 152.947 799.444 148.584L797.482 145.099C790.315 149.134 782.761 151.14 774.789 151.14V155.14ZM799.444 148.584C807.208 144.212 813.2 138.268 817.369 130.763L813.873 128.821C810.078 135.651 804.631 141.073 797.482 145.099L799.444 148.584ZM817.362 130.777C821.601 123.282 823.702 114.866 823.702 105.575H819.702C819.702 114.239 817.75 121.967 813.88 128.807L817.362 130.777ZM823.702 105.575C823.702 91.4024 818.995 79.4488 809.553 69.8559L806.703 72.6618C815.36 81.4577 819.702 92.3818 819.702 105.575H823.702ZM809.559 69.8616C800.195 60.2708 788.597 55.4671 774.898 55.4671V59.4671C787.55 59.4671 798.107 63.8579 806.697 72.656L809.559 69.8616ZM864.272 45.8473V43.8473H862.272V45.8473H864.272ZM879.802 45.8473H881.802V43.8473H879.802V45.8473ZM879.802 63.1141H877.802V69.6053L881.455 64.2397L879.802 63.1141ZM894.462 47.9106L895.55 49.5891L895.558 49.5838L895.566 49.5783L894.462 47.9106ZM924 46.8247L925.701 47.8769L926.8 46.1012L924.978 45.0801L924 46.8247ZM916.073 59.639L915.28 61.4751L916.865 62.1597L917.774 60.6912L916.073 59.639ZM893.376 63.8743L894.695 65.378L894.701 65.3723L894.708 65.3665L893.376 63.8743ZM882.625 83.2044L880.7 82.6634L880.699 82.6659L882.625 83.2044ZM879.802 164V166H881.802V164H879.802ZM864.272 164H862.272V166H864.272V164ZM864.272 47.8473H879.802V43.8473H864.272V47.8473ZM877.802 45.8473V63.1141H881.802V45.8473H877.802ZM881.455 64.2397C885.987 57.583 890.695 52.734 895.55 49.5891L893.375 46.2321C887.948 49.7478 882.883 55.0345 878.148 61.9885L881.455 64.2397ZM895.566 49.5783C900.415 46.3685 905.393 44.8066 910.534 44.8066V40.8066C904.526 40.8066 898.79 42.6473 893.358 46.2429L895.566 49.5783ZM910.534 44.8066C914.302 44.8066 918.454 46.0084 923.022 48.5692L924.978 45.0801C919.99 42.2835 915.165 40.8066 910.534 40.8066V44.8066ZM922.299 45.7724L914.372 58.5868L917.774 60.6912L925.701 47.8769L922.299 45.7724ZM916.866 57.8029C913.562 56.3764 910.596 55.5757 908.037 55.5757V59.5757C909.821 59.5757 912.212 60.1505 915.28 61.4751L916.866 57.8029ZM908.037 55.5757C902.366 55.5757 897.024 57.9391 892.044 62.382L894.708 65.3665C899.14 61.4113 903.572 59.5757 908.037 59.5757V55.5757ZM892.057 62.3705C886.956 66.8438 883.221 73.6907 880.7 82.6634L884.55 83.7454C886.952 75.1979 890.384 69.1581 894.695 65.378L892.057 62.3705ZM880.699 82.6659C878.731 89.7057 877.802 103.591 877.802 124.037H881.802C881.802 103.505 882.755 90.1691 884.551 83.7429L880.699 82.6659ZM877.802 124.037V164H881.802V124.037H877.802ZM879.802 162H864.272V166H879.802V162ZM866.272 164V45.8473H862.272V164H866.272ZM934.968 45.8473V43.8473H932.968V45.8473H934.968ZM950.28 45.8473H952.28V43.8473H950.28V45.8473ZM952.452 128.815L950.529 129.364L950.533 129.377L950.537 129.39L952.452 128.815ZM964.832 145.973L963.696 147.619L963.705 147.625L964.832 145.973ZM1008.27 146.19L1009.41 147.835L1009.41 147.832L1008.27 146.19ZM1020.54 130.009L1022.44 130.648L1022.44 130.642L1020.54 130.009ZM1022.82 45.8473V43.8473H1020.82V45.8473H1022.82ZM1038.35 45.8473H1040.35V43.8473H1038.35V45.8473ZM1032.6 140.652L1030.78 139.809L1030.78 139.815L1030.78 139.822L1032.6 140.652ZM1015.44 160.091L1016.48 161.798L1016.48 161.796L1015.44 160.091ZM957.882 160.091L956.837 161.796L956.846 161.801L956.856 161.807L957.882 160.091ZM940.615 140.543L938.79 141.361L938.795 141.371L938.799 141.38L940.615 140.543ZM934.968 47.8473H950.28V43.8473H934.968V47.8473ZM948.28 45.8473V101.014H952.28V45.8473H948.28ZM948.28 101.014C948.28 114.465 948.995 123.994 950.529 129.364L954.375 128.265C953.014 123.5 952.28 114.495 952.28 101.014H948.28ZM950.537 129.39C952.836 137.054 957.232 143.155 963.696 147.619L965.969 144.327C960.27 140.393 956.413 135.055 954.368 128.24L950.537 129.39ZM963.705 147.625C970.235 152.081 977.953 154.272 986.769 154.272V150.272C978.644 150.272 971.737 148.263 965.96 144.321L963.705 147.625ZM986.769 154.272C995.568 154.272 1003.15 152.161 1009.41 147.835L1007.13 144.545C1001.66 148.327 994.911 150.272 986.769 150.272V154.272ZM1009.41 147.832C1015.69 143.468 1020.05 137.728 1022.44 130.648L1018.65 129.371C1016.54 135.612 1012.72 140.659 1007.13 144.548L1009.41 147.832ZM1022.44 130.642C1023.28 128.12 1023.86 124.362 1024.25 119.497C1024.63 114.592 1024.82 108.427 1024.82 101.014H1020.82C1020.82 108.37 1020.63 114.422 1020.26 119.183C1019.88 123.982 1019.32 127.338 1018.64 129.377L1022.44 130.642ZM1024.82 101.014V45.8473H1020.82V101.014H1024.82ZM1022.82 47.8473H1038.35V43.8473H1022.82V47.8473ZM1036.35 45.8473V103.838H1040.35V45.8473H1036.35ZM1036.35 103.838C1036.35 120.031 1034.44 131.952 1030.78 139.809L1034.41 141.495C1038.43 132.845 1040.35 120.224 1040.35 103.838H1036.35ZM1030.78 139.822C1027.18 147.716 1021.72 153.89 1014.39 158.386L1016.48 161.796C1024.5 156.88 1030.49 150.094 1034.42 141.482L1030.78 139.822ZM1014.4 158.383C1007.19 162.777 998.018 165.041 986.769 165.041V169.041C998.542 169.041 1008.48 166.671 1016.48 161.798L1014.4 158.383ZM986.769 165.041C975.521 165.041 966.271 162.777 958.909 158.374L956.856 161.807C964.987 166.671 974.994 169.041 986.769 169.041V165.041ZM958.928 158.386C951.597 153.89 946.107 147.68 942.432 139.706L938.799 141.38C942.798 150.058 948.819 156.879 956.837 161.796L958.928 158.386ZM942.44 139.725C938.85 131.717 936.968 119.461 936.968 102.752H932.968C932.968 119.635 934.851 132.573 938.79 141.361L942.44 139.725ZM936.968 102.752V45.8473H932.968V102.752H936.968ZM1201.68 4.25493L1203.49 3.40963L1202.95 2.25493H1201.68V4.25493ZM1276.18 164V166H1279.32L1277.99 163.155L1276.18 164ZM1259.02 164L1257.21 164.861L1257.76 166H1259.02V164ZM1233.93 111.439L1235.74 110.578L1235.2 109.439H1233.93V111.439ZM1165.08 111.439V109.439H1163.82L1163.28 110.581L1165.08 111.439ZM1140.11 164V166H1141.37L1141.91 164.858L1140.11 164ZM1122.3 164L1120.49 163.146L1119.14 166H1122.3V164ZM1197.77 4.25493V2.25493H1196.5L1195.96 3.40055L1197.77 4.25493ZM1199.73 38.137L1201.54 37.2877L1199.74 33.4502L1197.92 37.2793L1199.73 38.137ZM1172.25 96.0188L1170.44 95.1611L1169.09 98.0188H1172.25V96.0188ZM1226.88 96.0188V98.0188H1230.02L1228.69 95.1694L1226.88 96.0188ZM1199.87 5.10023L1274.37 164.845L1277.99 163.155L1203.49 3.40963L1199.87 5.10023ZM1276.18 162H1259.02V166H1276.18V162ZM1260.82 163.139L1235.74 110.578L1232.13 112.301L1257.21 164.861L1260.82 163.139ZM1233.93 109.439H1165.08V113.439H1233.93V109.439ZM1163.28 110.581L1138.3 163.142L1141.91 164.858L1166.89 112.298L1163.28 110.581ZM1140.11 162H1122.3V166H1140.11V162ZM1124.11 164.854L1199.58 5.1093L1195.96 3.40055L1120.49 163.146L1124.11 164.854ZM1197.77 6.25493H1201.68V2.25493H1197.77V6.25493ZM1197.92 37.2793L1170.44 95.1611L1174.06 96.8764L1201.53 38.9946L1197.92 37.2793ZM1172.25 98.0188H1226.88V94.0188H1172.25V98.0188ZM1228.69 95.1694L1201.54 37.2877L1197.92 38.9863L1225.06 96.8681L1228.69 95.1694ZM1437.88 24.4538L1436.47 25.8743L1437.88 24.4538ZM1437.88 143.584L1436.46 142.17L1436.46 142.173L1437.88 143.584ZM1305.17 42.155L1303.43 41.1658L1303.43 41.1731L1305.17 42.155ZM1335.58 11.4223L1336.58 13.1552L1336.59 13.1509L1335.58 11.4223ZM1344.38 25.1054L1343.37 23.377L1344.38 25.1054ZM1330.37 132.941L1328.95 134.356L1328.96 134.363L1330.37 132.941ZM1412.25 143.475L1411.26 141.737L1411.26 141.74L1412.25 143.475ZM1436.9 118.824L1435.16 117.834L1435.16 117.843L1436.9 118.824ZM1436.9 49.7568L1435.16 50.7477L1435.17 50.755L1435.17 50.7622L1436.9 49.7568ZM1412.03 25.1054L1411.04 26.8397L1412.03 25.1054ZM1377.17 2.23687C1400.86 2.23687 1420.58 10.1227 1436.47 25.8743L1439.29 23.0333C1422.6 6.49565 1401.85 -1.76313 1377.17 -1.76313V2.23687ZM1436.47 25.8743C1452.37 41.6313 1460.31 60.9877 1460.31 84.0732H1464.31C1464.31 59.9554 1455.97 39.5656 1439.29 23.0333L1436.47 25.8743ZM1460.31 84.0732C1460.31 106.936 1452.37 126.262 1436.46 142.17L1439.29 144.998C1455.96 128.327 1464.31 107.979 1464.31 84.0732H1460.31ZM1436.46 142.173C1420.63 158.078 1401.34 166.018 1378.48 166.018V170.018C1402.38 170.018 1422.7 161.669 1439.29 144.995L1436.46 142.173ZM1378.48 166.018C1355.31 166.018 1335.84 158.107 1319.94 142.275L1317.12 145.11C1333.8 161.712 1354.29 170.018 1378.48 170.018V166.018ZM1319.94 142.275C1304.03 126.434 1296.1 107.325 1296.1 84.8333H1292.1C1292.1 108.387 1300.45 128.517 1317.12 145.11L1319.94 142.275ZM1296.1 84.8333C1296.1 69.8217 1299.7 55.9348 1306.92 43.1369L1303.43 41.1731C1295.87 54.5831 1292.1 69.1484 1292.1 84.8333H1296.1ZM1306.91 43.1442C1314.2 30.3432 1324.08 20.3584 1336.58 13.1551L1334.58 9.68942C1321.45 17.2552 1311.06 27.7589 1303.43 41.1658L1306.91 43.1442ZM1336.59 13.1509C1349.09 5.8728 1362.61 2.23687 1377.17 2.23687V-1.76313C1361.91 -1.76313 1347.7 2.05787 1334.57 9.69366L1336.59 13.1509ZM1377.93 13.8747C1365.76 13.8747 1354.23 17.0521 1343.37 23.377L1345.38 26.8338C1355.66 20.8511 1366.5 17.8747 1377.93 17.8747V13.8747ZM1343.37 23.377C1332.5 29.7046 1323.99 38.2464 1317.88 48.9843L1321.35 50.9636C1327.11 40.851 1335.11 32.8138 1345.38 26.8338L1343.37 23.377ZM1317.88 48.9843C1311.76 59.7316 1308.71 71.6964 1308.71 84.8333H1312.71C1312.71 72.3416 1315.6 61.0667 1321.35 50.9636L1317.88 48.9843ZM1308.71 84.8333C1308.71 104.318 1315.46 120.867 1328.95 134.356L1331.78 131.527C1319.06 118.808 1312.71 103.285 1312.71 84.8333H1308.71ZM1328.96 134.363C1342.51 147.765 1358.87 154.489 1377.93 154.489V150.489C1359.93 150.489 1344.58 144.181 1331.77 131.519L1328.96 134.363ZM1377.93 154.489C1390.65 154.489 1402.43 151.397 1413.24 145.211L1411.26 141.74C1401.07 147.571 1389.97 150.489 1377.93 150.489V154.489ZM1413.24 145.214C1424.12 139.029 1432.6 130.552 1438.64 119.804L1435.16 117.843C1429.47 127.947 1421.52 135.904 1411.26 141.737L1413.24 145.214ZM1438.64 119.814C1444.76 109.068 1447.81 97.1398 1447.81 84.0732H1443.81C1443.81 96.4904 1440.92 107.729 1435.16 117.834L1438.64 119.814ZM1447.81 84.0732C1447.81 71.077 1444.76 59.2869 1438.63 48.7513L1435.17 50.7622C1440.92 60.6427 1443.81 71.7302 1443.81 84.0732H1447.81ZM1438.64 48.7658C1432.59 38.1621 1424.04 29.6941 1413.03 23.3711L1411.04 26.8397C1421.46 32.8243 1429.48 40.7905 1435.16 50.7477L1438.64 48.7658ZM1413.03 23.3711C1402.02 17.0483 1390.31 13.8747 1377.93 13.8747V17.8747C1389.59 17.8747 1400.61 20.8549 1411.04 26.8397L1413.03 23.3711ZM1494.35 4.25493V2.25493H1492.35V4.25493H1494.35ZM1510.64 4.25493H1512.64V2.25493H1510.64V4.25493ZM1510.64 64.2001H1508.64V68.8262L1512.01 65.657L1510.64 64.2001ZM1574.38 4.25493V2.25493H1573.59L1573.01 2.79794L1574.38 4.25493ZM1595.99 4.25493L1597.36 5.7169L1601.07 2.25493H1595.99V4.25493ZM1519.22 75.9284L1517.85 74.4665L1516.38 75.8357L1517.76 77.2979L1519.22 75.9284ZM1601.97 164V166H1606.59L1603.42 162.631L1601.97 164ZM1580.79 164L1579.33 165.371L1579.93 166H1580.79V164ZM1510.64 89.503L1512.09 88.1319L1508.64 84.4618V89.503H1510.64ZM1510.64 164V166H1512.64V164H1510.64ZM1494.35 164H1492.35V166H1494.35V164ZM1494.35 6.25493H1510.64V2.25493H1494.35V6.25493ZM1508.64 4.25493V64.2001H1512.64V4.25493H1508.64ZM1512.01 65.657L1575.75 5.71191L1573.01 2.79794L1509.27 62.7431L1512.01 65.657ZM1574.38 6.25493H1595.99V2.25493H1574.38V6.25493ZM1594.63 2.79295L1517.85 74.4665L1520.58 77.3904L1597.36 5.7169L1594.63 2.79295ZM1517.76 77.2979L1600.51 165.369L1603.42 162.631L1520.67 74.559L1517.76 77.2979ZM1601.97 162H1580.79V166H1601.97V162ZM1582.25 162.629L1512.09 88.1319L1509.18 90.8741L1579.33 165.371L1582.25 162.629ZM1508.64 89.503V164H1512.64V89.503H1508.64ZM1510.64 162H1494.35V166H1510.64V162ZM1496.35 164V4.25493H1492.35V164H1496.35ZM1623.47 4.25493V2.25493H1621.47V4.25493H1623.47ZM1639.43 4.25493H1641.43V2.25493H1639.43V4.25493ZM1639.43 164V166H1641.43V164H1639.43ZM1623.47 164H1621.47V166H1623.47V164ZM1623.47 6.25493H1639.43V2.25493H1623.47V6.25493ZM1637.43 4.25493V164H1641.43V4.25493H1637.43ZM1639.43 162H1623.47V166H1639.43V162ZM1625.47 164V4.25493H1621.47V164H1625.47Z" fill="black"/>
</svg>
