<svg width="81" height="8" viewBox="0 0 81 8" fill="none" xmlns="http://www.w3.org/2000/svg">
<path d="M1.74403 4.24267C2.38109 4.25052 3.01517 4.20344 3.65223 4.17598C3.90945 4.16421 4.16966 4.14852 4.42688 4.1289C5.56642 4.05436 6.70596 3.97982 7.84549 3.90527C9.20636 3.81504 10.5702 3.72088 11.9311 3.6228C13.8782 3.48156 15.8223 3.3364 17.7664 3.19516C18.212 3.16378 18.6576 3.14024 19.1033 3.11277C20.2369 3.04216 21.3704 2.97154 22.504 2.90484C23.6375 2.83422 24.7711 2.7636 25.9046 2.69691C26.3473 2.66945 26.7929 2.63414 27.2356 2.61452C29.0451 2.53998 30.8546 2.46544 32.6611 2.39089C33.7737 2.34381 34.8863 2.30066 35.999 2.25358C36.4356 2.23396 36.8693 2.21042 37.306 2.19865C39.0557 2.16727 40.8024 2.12804 42.5521 2.09665C44.2778 2.06134 46.0036 2.02995 47.7293 1.99464C48.184 1.9868 48.6416 1.99072 49.0962 1.9868C50.2238 1.98287 51.3483 1.97503 52.4759 1.9711C54.2286 1.96326 55.9783 1.95541 57.7309 1.94364C58.3022 1.94364 58.8765 1.94756 59.4507 1.95149C60.6501 1.95541 61.8494 1.96326 63.0488 1.96718C63.1475 1.96718 63.2462 1.96718 63.3449 1.96718C60.6441 2.01426 57.9463 2.06134 55.2455 2.11627C54.1179 2.13981 52.9903 2.15942 51.8628 2.18296C51.3753 2.19081 50.8907 2.19473 50.4032 2.21042C48.7732 2.26535 47.1401 2.32812 45.5101 2.38305C43.6258 2.44974 41.7385 2.51644 39.8543 2.58313C39.5372 2.5949 39.2202 2.61844 38.9031 2.63806C37.8982 2.70083 36.8962 2.75968 35.8913 2.81853C33.8545 2.94015 31.8177 3.0657 29.7809 3.18732C29.4788 3.20693 29.1797 3.2344 28.8776 3.26186C27.8846 3.35209 26.8886 3.44233 25.8927 3.53256C24.1101 3.69342 22.3305 3.85427 20.5479 4.01512C20.0574 4.05828 19.5669 4.12498 19.0764 4.17598C17.9368 4.30152 16.7943 4.42707 15.6548 4.55261C14.2042 4.71347 12.7536 4.86647 11.306 5.03517C9.28711 5.26665 7.27124 5.49812 5.25237 5.72959C4.76784 5.78452 4.28331 5.83944 3.80178 5.89437C2.93441 5.99245 2.07004 6.13761 1.20267 6.26315C1.10996 6.27492 1.03219 6.35339 1.03219 6.48678C1.03219 6.62017 1.10996 6.70256 1.20267 6.71041C1.51971 6.73002 1.83675 6.74572 2.15079 6.76533C2.11191 6.87518 2.08798 6.99288 2.08798 7.11058C2.08798 7.53429 2.36913 7.95408 2.7071 7.92662C5.18059 7.72261 7.65408 7.50291 10.1306 7.3499C12.281 7.21651 14.4285 7.08312 16.579 6.9458C18.9567 6.79672 21.3315 6.64763 23.7093 6.49855C24.457 6.45147 25.2048 6.40439 25.9525 6.35731C26.1678 6.34554 26.3832 6.32593 26.6015 6.31808C30.4299 6.18469 34.2583 6.05522 38.0866 5.92183C40.1324 5.85121 42.1782 5.78059 44.224 5.70997C44.9627 5.68643 45.7015 5.6629 46.4402 5.6472C50.3554 5.56874 54.2705 5.48635 58.1886 5.40788C59.8665 5.37257 61.5444 5.33726 63.2223 5.30196C64.6549 5.27057 66.0876 5.2588 67.5202 5.18818C68.7016 5.12933 69.886 5.07048 71.0704 5.01163C71.6596 4.98417 72.2518 4.96455 72.841 4.91355C74.184 4.8037 75.5269 4.68993 76.8698 4.57223C76.8698 4.57223 76.8698 4.57615 76.8668 4.58008C76.792 4.74878 76.7711 4.95671 76.81 5.14502C76.8489 5.32942 76.9416 5.48635 77.0672 5.58443C77.1839 5.67467 77.3663 5.72567 77.4979 5.65897C77.791 5.50597 78.0811 5.34903 78.3712 5.1921C78.3653 5.1921 78.3593 5.19995 78.3533 5.20387L78.4191 5.16856C78.443 5.15679 78.4699 5.1411 78.4939 5.12933C78.4849 5.13326 78.4759 5.1411 78.4669 5.14502C78.6225 5.05871 78.778 4.9724 78.9305 4.88609C79.0921 4.79585 79.2536 4.70954 79.4151 4.61538C79.5915 4.51338 79.759 4.39176 79.9295 4.27406C80.1209 4.14067 80.2376 3.84642 80.2376 3.56787C80.2376 3.41879 80.2077 3.28147 80.1538 3.15593C80.0791 2.98723 79.9325 2.81461 79.783 2.7793C79.6334 2.74399 79.4839 2.72045 79.3313 2.69299C79.2984 2.68906 79.2655 2.68514 79.2296 2.68514C79.1279 2.68514 79.0203 2.70475 78.9246 2.7126C78.6973 2.73222 78.4699 2.7793 78.2426 2.79891C78.0572 2.81853 77.8718 2.83422 77.6833 2.84992C77.1809 2.89699 76.6814 2.94407 76.1819 2.99115C76.0533 3.00292 75.9217 3.01469 75.7931 3.02646C75.8409 2.95584 75.8738 2.87738 75.8948 2.78322C75.9187 2.7126 75.9307 2.63414 75.9336 2.55567C75.9396 2.50075 75.9456 2.44582 75.9516 2.38697C75.9516 2.31243 75.9426 2.24573 75.9247 2.17904C75.9366 2.17119 75.9516 2.16334 75.9636 2.1555C76.0563 2.08096 76.134 1.98287 76.1879 1.86125C76.2447 1.73179 76.2746 1.59447 76.2746 1.44539C76.2746 1.2963 76.2447 1.15899 76.1879 1.02952C76.155 0.974596 76.1221 0.91967 76.0892 0.860821C76.0114 0.758816 75.9187 0.688198 75.811 0.648965C75.6166 0.550883 75.4162 0.527344 75.2098 0.527344C75.0424 0.527344 74.8749 0.543037 74.7074 0.54696C74.4681 0.54696 74.2258 0.554807 73.9866 0.554807C73.6456 0.55873 73.3046 0.566576 72.9637 0.566576C72.0634 0.574423 71.1631 0.578346 70.2629 0.586193C69.4165 0.594039 68.57 0.590116 67.7236 0.590116C66.9549 0.590116 66.1833 0.590116 65.4146 0.590116C62.3459 0.609732 59.2802 0.613656 56.2116 0.656811C53.9115 0.688198 51.6115 0.719584 49.3115 0.747047C48.2826 0.76274 47.2568 0.782356 46.2279 0.809819C43.9219 0.872591 41.6189 0.939286 39.3129 1.00206C38.6549 1.02167 37.9969 1.03737 37.3419 1.05698C36.962 1.06875 36.5792 1.09229 36.1994 1.11191C33.9203 1.22568 31.6442 1.33946 29.3651 1.45323C28.6712 1.48854 27.9743 1.52385 27.2805 1.55916C26.8916 1.57878 26.4998 1.61409 26.111 1.63763C23.8499 1.79848 21.5858 1.95541 19.3246 2.11627C18.1552 2.19865 16.9887 2.28889 15.8223 2.38697C13.8243 2.55175 11.8234 2.72045 9.82548 2.88522C8.09374 3.02646 6.362 3.15201 4.63026 3.2854C4.3551 3.30501 4.07993 3.32855 3.80776 3.34817C3.3651 3.38348 2.91946 3.40702 2.4768 3.43056C2.082 3.4541 1.6872 3.46979 1.2924 3.4541C1.25352 3.32071 1.15183 3.21086 1.03817 3.22263C0.783946 3.25009 0.529718 3.2854 0.27549 3.32071C0.152863 3.3364 0.0451898 3.41879 0.00929887 3.58357C-0.029583 3.76796 0.0571535 3.98374 0.200717 4.02689C0.311381 4.0622 0.422045 4.09751 0.532709 4.13282C0.640382 4.16421 0.757027 4.17598 0.8647 4.18775C1.15482 4.22306 1.44793 4.2309 1.74104 4.2309L1.74403 4.24267ZM71.7344 2.98331C72.1053 2.98331 72.4791 2.98331 72.85 2.98331C72.8829 3.09316 72.9338 3.19124 72.9996 3.2697C72.856 3.28147 72.7124 3.29324 72.5689 3.30109C72.2967 3.31286 72.0275 3.32855 71.7553 3.34032C70.5709 3.39917 69.3895 3.45802 68.2051 3.51687C67.6638 3.54433 67.1224 3.58357 66.5811 3.59534C65.7346 3.61103 64.8882 3.63064 64.0418 3.64634C62.1067 3.68557 60.1745 3.7248 58.2394 3.76796C54.4858 3.84642 50.7292 3.92489 46.9756 4.00336C44.2868 4.05828 41.598 4.16813 38.9121 4.26229C34.8624 4.40353 30.8127 4.54477 26.763 4.686C25.9525 4.71347 25.139 4.78408 24.3284 4.83509C22.0284 4.98025 19.7314 5.12541 17.4314 5.27057C15.1732 5.41181 12.9181 5.55304 10.6599 5.69428C10.4506 5.70605 10.2412 5.72174 10.0319 5.73351C10.639 5.67074 11.2492 5.60405 11.8563 5.5452C13.9799 5.33334 16.1034 5.11756 18.2299 4.90571C18.9717 4.83116 19.7134 4.75662 20.4552 4.68208C20.838 4.64285 21.2209 4.61931 21.6037 4.58792C23.814 4.41137 26.0213 4.23875 28.2316 4.0622C28.6623 4.02689 29.0959 3.98374 29.5266 3.9602C30.1487 3.92881 30.7708 3.89743 31.393 3.86604C33.669 3.74834 35.9481 3.63457 38.2242 3.51687C38.7267 3.49333 39.2262 3.46587 39.7286 3.43841C39.8602 3.43056 39.9918 3.43056 40.1234 3.42664C40.4764 3.41879 40.8263 3.40702 41.1792 3.39917C43.4613 3.3364 45.7434 3.27755 48.0254 3.21478C49.0782 3.18732 50.128 3.15201 51.1808 3.14416C54.5755 3.10885 57.9672 3.06177 61.3619 3.04216C64.8194 3.02254 68.2769 2.99115 71.7344 2.98723V2.98331Z" fill="#F47E2F"/>
</svg>
