<svg width="362" height="22" viewBox="0 0 362 22" fill="none" xmlns="http://www.w3.org/2000/svg">
<path d="M7.86836 11.0448C10.7425 11.0681 13.6032 10.9281 16.4774 10.8465C17.6379 10.8115 18.8118 10.7648 19.9723 10.7065C25.1135 10.4849 30.2546 10.2633 35.3957 10.0417C41.5354 9.7735 47.6886 9.49359 53.8283 9.20202C62.6128 8.78215 71.3837 8.35063 80.1547 7.93076C82.1653 7.83746 84.1759 7.76748 86.1865 7.68584C91.3006 7.47591 96.4148 7.26598 101.529 7.06771C106.643 6.85778 111.757 6.64784 116.871 6.44958C118.868 6.36794 120.879 6.26297 122.876 6.20465C131.04 5.98306 139.204 5.76147 147.354 5.53987C152.374 5.39992 157.393 5.27162 162.413 5.13167C164.383 5.07336 166.34 5.00338 168.31 4.96839C176.204 4.87509 184.084 4.75846 191.978 4.66515C199.764 4.56019 207.55 4.46688 215.336 4.36192C217.387 4.33859 219.451 4.35026 221.502 4.33859C226.59 4.32693 231.663 4.3036 236.75 4.29194C244.658 4.26862 252.552 4.24529 260.459 4.2103C263.036 4.2103 265.627 4.22196 268.218 4.23363C273.629 4.24529 279.04 4.26862 284.451 4.28028C284.896 4.28028 285.342 4.28028 285.787 4.28028C273.602 4.42023 261.431 4.56019 249.246 4.72347C244.159 4.79345 239.071 4.85176 233.984 4.92174C231.785 4.94506 229.599 4.95673 227.399 5.00338C220.045 5.16666 212.677 5.35326 205.323 5.51654C196.822 5.71481 188.308 5.91308 179.807 6.11135C178.376 6.14634 176.946 6.21632 175.516 6.27463C170.982 6.46124 166.461 6.63618 161.927 6.81112C152.738 7.17267 143.549 7.54589 134.359 7.90744C132.996 7.96575 131.647 8.04739 130.284 8.12903C125.804 8.39728 121.311 8.66552 116.817 8.93377C108.775 9.41195 100.746 9.89013 92.704 10.3683C90.491 10.4966 88.278 10.6949 86.065 10.8465C80.9239 11.2197 75.7692 11.5929 70.6281 11.9661C64.0836 12.4443 57.5391 12.8992 51.0081 13.4007C41.8998 14.0888 32.8049 14.7769 23.6966 15.465C21.5106 15.6283 19.3246 15.7915 17.1521 15.9548C13.2389 16.2464 9.33919 16.6779 5.42598 17.0511C5.00768 17.0861 4.65684 17.3194 4.65684 17.7159C4.65684 18.1125 5.00768 18.3574 5.42598 18.3807C6.85633 18.439 8.28667 18.4857 9.70352 18.544C9.5281 18.8705 9.42015 19.2204 9.42015 19.5703C9.42015 20.8299 10.6886 22.0778 12.2134 21.9962C23.3728 21.3897 34.5321 20.7366 45.705 20.2818C55.4071 19.8852 65.0956 19.4887 74.7977 19.0805C85.5253 18.6373 96.2394 18.1941 106.967 17.7509C110.34 17.611 113.714 17.471 117.087 17.331C118.059 17.2961 119.03 17.2377 120.015 17.2144C137.288 16.8179 154.56 16.433 171.832 16.0365C181.061 15.8265 190.291 15.6166 199.521 15.4067C202.854 15.3367 206.187 15.2667 209.52 15.2201C227.183 14.9868 244.847 14.7419 262.524 14.5086C270.094 14.4037 277.664 14.2987 285.234 14.1937C291.697 14.1004 298.161 14.0654 304.624 13.8555C309.954 13.6806 315.298 13.5056 320.641 13.3307C323.3 13.249 325.972 13.1907 328.63 13.0391C334.689 12.7125 340.747 12.3743 346.806 12.0244C346.806 12.0244 346.806 12.0361 346.792 12.0478C346.455 12.5493 346.361 13.1674 346.536 13.7272C346.711 14.2754 347.13 14.7419 347.697 15.0335C348.223 15.3017 349.046 15.4533 349.64 15.2551C350.962 14.8002 352.271 14.3337 353.58 13.8672C353.553 13.8672 353.526 13.8905 353.499 13.9022L353.796 13.7972C353.904 13.7622 354.025 13.7156 354.133 13.6806C354.093 13.6922 354.052 13.7156 354.012 13.7272C354.713 13.4706 355.415 13.214 356.103 12.9575C356.832 12.6892 357.561 12.4326 358.289 12.1527C359.085 11.8495 359.841 11.4879 360.61 11.1381C361.474 10.7415 362 9.8668 362 9.03874C362 8.59555 361.865 8.18735 361.622 7.81413C361.285 7.31263 360.624 6.79946 359.949 6.6945C359.274 6.58953 358.6 6.51955 357.911 6.43791C357.763 6.42625 357.615 6.41459 357.453 6.41459C356.994 6.41459 356.508 6.4729 356.076 6.49623C355.051 6.55454 354.025 6.6945 353 6.75281C352.163 6.81112 351.326 6.85778 350.476 6.90443C348.209 7.04438 345.956 7.18434 343.702 7.32429C343.122 7.35928 342.528 7.39427 341.948 7.42926C342.164 7.21933 342.313 6.98607 342.407 6.70616C342.515 6.49623 342.569 6.26297 342.582 6.02971C342.609 5.86643 342.636 5.70315 342.663 5.52821C342.663 5.30661 342.623 5.10834 342.542 4.91007C342.596 4.88675 342.663 4.86342 342.717 4.8401C343.136 4.6185 343.486 4.32693 343.729 3.96538C343.986 3.58051 344.121 3.1723 344.121 2.72911C344.121 2.28593 343.986 1.87772 343.729 1.49285C343.581 1.32957 343.433 1.16629 343.284 0.991345C342.933 0.68811 342.515 0.478178 342.029 0.361549C341.152 0.0699773 340.248 0 339.317 0C338.561 0 337.806 0.0466515 337.05 0.0583144C335.97 0.0583144 334.877 0.0816402 333.798 0.0816402C332.26 0.0933031 330.721 0.116629 329.183 0.116629C325.121 0.139955 321.06 0.151617 316.998 0.174943C313.179 0.198269 309.361 0.186606 305.542 0.186606C302.074 0.186606 298.593 0.186606 295.125 0.186606C281.28 0.244921 267.449 0.256583 253.604 0.384875C243.227 0.478178 232.851 0.571481 222.474 0.653122C217.832 0.699773 213.204 0.758087 208.562 0.839728C198.158 1.02633 187.768 1.2246 177.364 1.41121C174.396 1.46952 171.427 1.51618 168.472 1.57449C166.758 1.60948 165.031 1.67946 163.317 1.73777C153.035 2.07599 142.766 2.41422 132.484 2.75244C129.353 2.85741 126.209 2.96237 123.079 3.06734C121.324 3.12565 119.557 3.23062 117.802 3.3006C107.601 3.77877 97.3863 4.24529 87.185 4.72347C81.9089 4.96839 76.6463 5.23664 71.3837 5.52821C62.3699 6.01805 53.3425 6.51955 44.3286 7.00939C36.5157 7.42926 28.7028 7.80247 20.8899 8.19901C19.6485 8.25732 18.407 8.3273 17.1791 8.38561C15.182 8.49058 13.1714 8.56056 11.1743 8.63053C9.39317 8.70051 7.61198 8.74716 5.8308 8.70051C5.65538 8.30397 5.19659 7.97741 4.68382 8.0124C3.53685 8.09404 2.38988 8.19901 1.2429 8.30397C0.689656 8.35063 0.203879 8.59555 0.0419528 9.08539C-0.133467 9.63354 0.257854 10.275 0.905557 10.4033C1.40483 10.5083 1.9041 10.6132 2.40337 10.7182C2.88915 10.8115 3.41541 10.8465 3.90118 10.8815C5.21008 10.9864 6.53248 11.0098 7.85487 11.0098L7.86836 11.0448ZM323.637 7.30097C325.31 7.30097 326.997 7.30097 328.67 7.30097C328.819 7.62753 329.048 7.9191 329.345 8.15236C328.697 8.18734 328.05 8.22233 327.402 8.24566C326.174 8.28065 324.959 8.3273 323.732 8.36229C318.388 8.53723 313.058 8.71217 307.714 8.88712C305.272 8.96876 302.83 9.08539 300.387 9.12038C296.569 9.16703 292.75 9.22534 288.931 9.27199C280.201 9.38862 271.484 9.50525 262.753 9.63354C245.818 9.8668 228.87 10.1001 211.935 10.3333C199.804 10.4966 187.673 10.8232 175.556 11.1031C157.285 11.5229 139.015 11.9428 120.744 12.3627C117.087 12.4443 113.417 12.6542 109.76 12.8058C99.3834 13.2374 89.0202 13.6689 78.6434 14.1004C68.4556 14.5203 58.2813 14.9402 48.0934 15.36C47.1489 15.395 46.2043 15.4417 45.2597 15.4766C47.999 15.29 50.7517 15.0918 53.4909 14.9168C63.0716 14.287 72.6522 13.6456 82.2463 13.0158C85.5927 12.7942 88.9392 12.5726 92.2857 12.351C94.0129 12.2344 95.7401 12.1644 97.4673 12.0711C107.439 11.5463 117.398 11.0331 127.37 10.5083C129.313 10.4033 131.269 10.275 133.212 10.205C136.019 10.1117 138.826 10.0184 141.633 9.92512C151.901 9.57523 162.184 9.237 172.452 8.88712C174.719 8.81714 176.973 8.7355 179.24 8.65386C179.834 8.63053 180.427 8.63053 181.021 8.61887C182.613 8.59555 184.192 8.56056 185.784 8.53723C196.08 8.35063 206.376 8.17568 216.672 7.98908C221.421 7.90744 226.158 7.80247 230.908 7.77914C246.223 7.67418 261.525 7.53422 276.841 7.47591C292.439 7.41759 308.038 7.32429 323.637 7.31263V7.30097Z" fill="#F47E2F"/>
</svg>
