<svg width="116" height="8" viewBox="0 0 116 8" fill="none" xmlns="http://www.w3.org/2000/svg">
<path d="M2.50598 3.60524C3.42138 3.61267 4.33247 3.56807 5.24787 3.54205C5.61746 3.5309 5.99136 3.51603 6.36095 3.49745C7.99835 3.42683 9.63574 3.35621 11.2731 3.28559C13.2286 3.20011 15.1883 3.1109 17.1437 3.01799C19.9414 2.88418 22.7349 2.74666 25.5284 2.61286C26.1687 2.58312 26.809 2.56082 27.4494 2.5348C29.0782 2.4679 30.707 2.401 32.3358 2.33782C33.9646 2.27091 35.5934 2.20401 37.2222 2.14083C37.8582 2.11481 38.4986 2.08136 39.1346 2.06277C41.7347 1.99216 44.3348 1.92154 46.9305 1.85092C48.5292 1.80632 50.128 1.76543 51.7267 1.72083C52.3541 1.70225 52.9773 1.67995 53.6047 1.6688C56.1188 1.63906 58.6287 1.60189 61.1428 1.57216C63.6225 1.53871 66.1022 1.50897 68.582 1.47552C69.2352 1.46809 69.8927 1.47181 70.546 1.46809C72.1662 1.46437 73.7821 1.45694 75.4023 1.45322C77.9207 1.44579 80.4348 1.43836 82.9532 1.42721C83.774 1.42721 84.5992 1.43092 85.4243 1.43464C87.1477 1.43836 88.871 1.44579 90.5944 1.44951C90.7362 1.44951 90.878 1.44951 91.0198 1.44951C87.1391 1.49411 83.2626 1.53871 79.3819 1.59074C77.7617 1.61304 76.1415 1.63163 74.5213 1.65393C73.8208 1.66136 73.1245 1.66508 72.424 1.67995C70.0818 1.73198 67.7353 1.79145 65.3931 1.84348C62.6856 1.90667 59.9738 1.96985 57.2663 2.03304C56.8108 2.04419 56.3552 2.06649 55.8997 2.08507C54.4557 2.14454 53.016 2.20029 51.572 2.25605C48.6453 2.37127 45.7186 2.4902 42.7919 2.60542C42.3579 2.62401 41.9281 2.65002 41.494 2.67604C40.0672 2.76153 38.6361 2.84701 37.205 2.9325C34.6436 3.08489 32.0865 3.23728 29.5251 3.38966C28.8203 3.43055 28.1155 3.49373 27.4107 3.54205C25.7733 3.66099 24.1316 3.77992 22.4942 3.89886C20.4099 4.05125 18.3255 4.1962 16.2455 4.35602C13.3446 4.57531 10.448 4.7946 7.5471 5.01389C6.85088 5.06593 6.15467 5.11796 5.46275 5.17C4.21644 5.26292 2.97442 5.40044 1.72811 5.51938C1.59489 5.53053 1.48315 5.60486 1.48315 5.73123C1.48315 5.8576 1.59489 5.93565 1.72811 5.94309C2.18366 5.96167 2.63921 5.97654 3.09046 5.99512C3.03459 6.09919 3.00021 6.2107 3.00021 6.3222C3.00021 6.72361 3.40419 7.12131 3.88982 7.09529C7.44395 6.90202 10.9981 6.69388 14.5565 6.54892C17.6465 6.42255 20.7322 6.29618 23.8222 6.16609C27.2388 6.02486 30.6511 5.88362 34.0677 5.74238C35.1421 5.69778 36.2165 5.65318 37.291 5.60858C37.6004 5.59743 37.9098 5.57884 38.2235 5.57141C43.7245 5.44504 49.2255 5.32239 54.7264 5.19602C57.666 5.12911 60.6056 5.06221 63.5451 4.99531C64.6067 4.97301 65.6682 4.95071 66.7297 4.93584C72.3553 4.86151 77.9809 4.78345 83.6107 4.70912C86.0217 4.67567 88.4327 4.64222 90.8436 4.60877C92.9022 4.57903 94.9608 4.56788 97.0193 4.50098C98.7169 4.44523 100.419 4.38948 102.121 4.33372C102.967 4.30771 103.818 4.28912 104.665 4.2408C106.594 4.13673 108.524 4.02895 110.454 3.91744C110.454 3.91744 110.454 3.92116 110.449 3.92488C110.342 4.0847 110.312 4.28169 110.368 4.46009C110.424 4.63478 110.557 4.78345 110.737 4.87637C110.905 4.96186 111.167 5.01018 111.356 4.94699C111.777 4.80204 112.194 4.65337 112.611 4.5047C112.603 4.5047 112.594 4.51213 112.585 4.51585L112.68 4.4824C112.714 4.47124 112.753 4.45638 112.787 4.44523C112.774 4.44894 112.762 4.45638 112.749 4.46009C112.972 4.37833 113.196 4.29656 113.415 4.21479C113.647 4.1293 113.879 4.04753 114.111 3.95833C114.365 3.86169 114.605 3.74647 114.85 3.63497C115.125 3.5086 115.293 3.22984 115.293 2.96595C115.293 2.82471 115.25 2.69463 115.172 2.57569C115.065 2.41587 114.854 2.25233 114.64 2.21888C114.425 2.18543 114.21 2.16313 113.991 2.13711C113.943 2.13339 113.896 2.12968 113.845 2.12968C113.698 2.12968 113.544 2.14826 113.406 2.15569C113.08 2.17428 112.753 2.21888 112.426 2.23746C112.16 2.25605 111.893 2.27091 111.623 2.28578C110.901 2.33038 110.183 2.37498 109.465 2.41958C109.28 2.43073 109.091 2.44188 108.907 2.45304C108.975 2.38613 109.023 2.3118 109.053 2.2226C109.087 2.15569 109.104 2.08136 109.109 2.00702C109.117 1.95499 109.126 1.90295 109.134 1.8472C109.134 1.77658 109.121 1.7134 109.096 1.65021C109.113 1.64278 109.134 1.63534 109.152 1.62791C109.285 1.55729 109.396 1.46437 109.474 1.34915C109.556 1.2265 109.598 1.09641 109.598 0.955175C109.598 0.813937 109.556 0.68385 109.474 0.561196C109.427 0.509162 109.379 0.457127 109.332 0.401375C109.22 0.304739 109.087 0.237837 108.932 0.200669C108.653 0.10775 108.365 0.0854492 108.069 0.0854492C107.828 0.0854492 107.587 0.100316 107.347 0.104033C107.003 0.104033 106.655 0.111467 106.311 0.111467C105.821 0.115183 105.331 0.122617 104.841 0.122617C103.547 0.130051 102.254 0.133767 100.96 0.141201C99.744 0.148634 98.5278 0.144918 97.3116 0.144918C96.2071 0.144918 95.0983 0.144918 93.9938 0.144918C89.5844 0.163502 85.1794 0.167218 80.77 0.208103C77.4651 0.237837 74.1603 0.267571 70.8554 0.293589C69.377 0.308456 67.9029 0.32704 66.4245 0.353057C63.1111 0.412525 59.8019 0.475711 56.4884 0.535179C55.543 0.553763 54.5975 0.56863 53.6563 0.587214C53.1105 0.598364 52.5604 0.620665 52.0146 0.639249C48.7398 0.747035 45.4693 0.854822 42.1945 0.962608C41.1975 0.996059 40.1961 1.02951 39.1991 1.06296C38.6404 1.08155 38.0774 1.115 37.5187 1.1373C34.2697 1.28968 31.0164 1.43836 27.7674 1.59074C26.087 1.6688 24.411 1.75428 22.7349 1.8472C19.8641 2.00331 16.989 2.16313 14.1182 2.31923C11.6298 2.45304 9.14151 2.57197 6.65319 2.69834C6.25781 2.71693 5.86243 2.73923 5.47134 2.75781C4.8353 2.79126 4.19495 2.81356 3.5589 2.83586C2.99161 2.85816 2.42433 2.87303 1.85704 2.85816C1.80117 2.73179 1.65505 2.62772 1.49174 2.63887C1.12645 2.66489 0.761148 2.69834 0.39585 2.73179C0.219647 2.74666 0.064933 2.82471 0.0133615 2.98082C-0.0425076 3.15551 0.0821235 3.35993 0.288409 3.40081C0.447422 3.43426 0.606434 3.46772 0.765446 3.50117C0.92016 3.5309 1.08777 3.54205 1.24248 3.5532C1.65935 3.58665 2.08052 3.59409 2.50169 3.59409L2.50598 3.60524ZM103.075 2.41215C103.608 2.41215 104.145 2.41215 104.678 2.41215C104.725 2.51622 104.798 2.60914 104.893 2.68348C104.686 2.69463 104.48 2.70578 104.274 2.71321C103.883 2.72436 103.496 2.73923 103.105 2.75038C101.403 2.80613 99.7053 2.86188 98.0035 2.91763C97.2256 2.94365 96.4477 2.98082 95.6699 2.99197C94.4536 3.00683 93.2374 3.02542 92.0212 3.04029C89.2406 3.07745 86.4644 3.11462 83.6838 3.15551C78.2903 3.22984 72.8925 3.30418 67.499 3.37851C63.6354 3.43055 59.7718 3.53462 55.9126 3.62382C50.0936 3.75762 44.2746 3.89143 38.4556 4.02523C37.291 4.05125 36.122 4.11815 34.9573 4.16647C31.6525 4.30399 28.3519 4.44151 25.047 4.57903C21.8023 4.71283 18.5619 4.84664 15.3172 4.98044C15.0164 4.99159 14.7155 5.00646 14.4147 5.01761C15.2871 4.95814 16.1638 4.89496 17.0362 4.83921C20.0876 4.6385 23.1389 4.43408 26.1945 4.23337C27.2603 4.16275 28.3261 4.09213 29.3919 4.02151C29.942 3.98435 30.4921 3.96205 31.0422 3.93231C34.2182 3.76506 37.3898 3.60152 40.5657 3.43426C41.1846 3.40081 41.8078 3.35993 42.4266 3.33763C43.3205 3.30789 44.2144 3.27816 45.1083 3.24843C48.3788 3.13692 51.6536 3.02914 54.9241 2.91763C55.6461 2.89533 56.3638 2.86931 57.0858 2.8433C57.2749 2.83586 57.464 2.83586 57.6531 2.83215C58.1602 2.82471 58.663 2.81356 59.1702 2.80613C62.4492 2.74666 65.7283 2.69091 69.0074 2.63144C70.5202 2.60542 72.0286 2.57197 73.5414 2.56454C78.4192 2.53109 83.2927 2.48649 88.1705 2.4679C93.1386 2.44932 98.1066 2.41958 103.075 2.41587V2.41215Z" fill="#F47E2F"/>
</svg>
