<svg width="296" height="18" viewBox="0 0 296 18" fill="none" xmlns="http://www.w3.org/2000/svg">
<path d="M6.4338 9.03662C8.78396 9.0557 11.1231 8.94119 13.4732 8.8744C14.4221 8.84577 15.3821 8.8076 16.331 8.75989C20.5348 8.57858 24.7386 8.39728 28.9424 8.21597C33.9627 7.9965 38.994 7.76748 44.0143 7.52892C51.1972 7.1854 58.369 6.83233 65.5409 6.48881C67.1849 6.41247 68.8289 6.35521 70.4729 6.28842C74.6546 6.11665 78.8364 5.94489 83.0181 5.78267C87.1999 5.61091 91.3816 5.43915 95.5633 5.27693C97.1963 5.21013 98.8403 5.12425 100.473 5.07654C107.149 4.89523 113.824 4.71393 120.488 4.53262C124.593 4.41811 128.697 4.31315 132.802 4.19864C134.413 4.15093 136.013 4.09367 137.623 4.06505C144.078 3.98871 150.522 3.89328 156.976 3.81694C163.343 3.73106 169.709 3.65472 176.076 3.56884C177.753 3.54976 179.441 3.5593 181.118 3.54976C185.278 3.54022 189.426 3.52113 193.586 3.51159C200.052 3.4925 206.506 3.47342 212.972 3.44479C215.079 3.44479 217.198 3.45433 219.316 3.46388C223.741 3.47342 228.165 3.4925 232.59 3.50205C232.954 3.50205 233.318 3.50205 233.682 3.50205C223.719 3.61655 213.766 3.73106 203.803 3.86466C199.643 3.92191 195.484 3.96962 191.324 4.02688C189.526 4.04596 187.738 4.0555 185.94 4.09367C179.926 4.22727 173.902 4.37994 167.889 4.51354C160.938 4.67576 153.975 4.83798 147.024 5.0002C145.855 5.02882 144.685 5.08608 143.515 5.13379C139.808 5.28647 136.112 5.4296 132.405 5.57274C124.891 5.86855 117.377 6.17391 109.863 6.46972C108.749 6.51743 107.645 6.58423 106.531 6.65103C102.868 6.8705 99.1934 7.08997 95.5192 7.30945C88.9432 7.70069 82.3782 8.09192 75.8021 8.48316C73.9926 8.58813 72.1831 8.75035 70.3736 8.8744C66.1698 9.17975 61.955 9.48511 57.7511 9.79046C52.3998 10.1817 47.0485 10.5539 41.7083 10.9642C34.2606 11.5272 26.8239 12.0902 19.3762 12.6532C17.5888 12.7868 15.8013 12.9204 14.0249 13.054C10.8252 13.2925 7.63646 13.6456 4.43672 13.9509C4.09467 13.9796 3.8078 14.1704 3.8078 14.4948C3.8078 14.8193 4.09467 15.0197 4.43672 15.0388C5.60628 15.0865 6.77584 15.1246 7.93437 15.1724C7.79093 15.4395 7.70267 15.7258 7.70267 16.0121C7.70267 17.0427 8.73983 18.0637 9.98662 17.9969C19.1114 17.5007 28.2362 16.9663 37.3721 16.5942C45.3052 16.2697 53.2274 15.9453 61.1605 15.6113C69.9323 15.2487 78.6929 14.8861 87.4647 14.5235C90.2231 14.409 92.9815 14.2945 95.7399 14.1799C96.5343 14.1513 97.3287 14.1036 98.1342 14.0845C112.257 13.7601 126.38 13.4452 140.503 13.1207C148.05 12.949 155.597 12.7772 163.144 12.6055C165.87 12.5482 168.595 12.491 171.32 12.4528C185.763 12.2619 200.206 12.0615 214.66 11.8707C220.85 11.7848 227.04 11.6989 233.23 11.6131C238.515 11.5367 243.8 11.5081 249.085 11.3363C253.443 11.1932 257.813 11.0501 262.182 10.9069C264.356 10.8401 266.54 10.7924 268.714 10.6684C273.668 10.4012 278.622 10.1244 283.576 9.83817C283.576 9.83817 283.576 9.84772 283.565 9.85726C283.289 10.2676 283.212 10.7733 283.355 11.2314C283.499 11.6799 283.841 12.0615 284.304 12.3001C284.735 12.5196 285.408 12.6436 285.893 12.4814C286.974 12.1093 288.045 11.7276 289.115 11.3459C289.093 11.3459 289.071 11.365 289.049 11.3745L289.292 11.2886C289.38 11.26 289.479 11.2218 289.567 11.1932C289.534 11.2027 289.501 11.2218 289.468 11.2314C290.042 11.0214 290.616 10.8115 291.178 10.6016C291.774 10.3821 292.37 10.1722 292.966 9.94314C293.617 9.69504 294.235 9.39923 294.864 9.11295C295.57 8.78851 296 8.07284 296 7.39533C296 7.03272 295.89 6.69874 295.691 6.39338C295.415 5.98306 294.875 5.5632 294.323 5.47731C293.771 5.39143 293.22 5.33418 292.657 5.26738C292.535 5.25784 292.414 5.2483 292.282 5.2483C291.907 5.2483 291.509 5.29601 291.156 5.3151C290.318 5.36281 289.479 5.47732 288.641 5.52503C287.956 5.57274 287.272 5.61091 286.577 5.64908C284.724 5.76359 282.881 5.87809 281.038 5.9926C280.564 6.02123 280.078 6.04986 279.604 6.07848C279.781 5.90672 279.902 5.71587 279.979 5.48686C280.067 5.3151 280.112 5.12425 280.123 4.9334C280.145 4.79981 280.167 4.66621 280.189 4.52308C280.189 4.34177 280.156 4.17955 280.09 4.01733C280.134 3.99825 280.189 3.97916 280.233 3.96008C280.575 3.77878 280.862 3.54022 281.06 3.2444C281.27 2.9295 281.38 2.59552 281.38 2.23291C281.38 1.8703 281.27 1.53632 281.06 1.22142C280.939 1.08783 280.818 0.954236 280.696 0.811101C280.409 0.562999 280.067 0.391237 279.67 0.295813C278.953 0.0572542 278.214 0 277.452 0C276.835 0 276.217 0.0381694 275.599 0.0477118C274.716 0.0477118 273.822 0.0667965 272.94 0.0667965C271.682 0.0763389 270.424 0.0954236 269.166 0.0954236C265.845 0.114508 262.524 0.124051 259.203 0.143135C256.08 0.16222 252.958 0.152678 249.835 0.152678C247 0.152678 244.153 0.152678 241.317 0.152678C229.997 0.20039 218.687 0.209932 207.367 0.314898C198.882 0.391237 190.397 0.467576 181.912 0.534372C178.117 0.572542 174.332 0.620253 170.537 0.68705C162.03 0.839728 153.534 1.00195 145.027 1.15463C142.6 1.20234 140.172 1.24051 137.756 1.28822C136.355 1.31685 134.942 1.3741 133.541 1.42181C125.133 1.69854 116.737 1.97527 108.329 2.252C105.769 2.33788 103.199 2.42376 100.639 2.50964C99.2044 2.55735 97.759 2.64323 96.3247 2.70049C87.9833 3.09172 79.6308 3.47342 71.2894 3.86466C66.9752 4.06505 62.6721 4.28452 58.369 4.52308C50.9986 4.92386 43.6171 5.33418 36.2466 5.73496C29.8582 6.07848 23.4697 6.38384 17.0812 6.70828C16.0661 6.75599 15.0511 6.81325 14.047 6.86096C12.414 6.94684 10.77 7.00409 9.13704 7.06135C7.6806 7.1186 6.22416 7.15677 4.76772 7.1186C4.62429 6.79416 4.24914 6.52697 3.82987 6.5556C2.89201 6.6224 1.95415 6.70828 1.0163 6.79416C0.563917 6.83233 0.166707 7.03272 0.034304 7.4335C-0.109133 7.88199 0.210842 8.40682 0.740455 8.51179C1.1487 8.59767 1.55694 8.68355 1.96519 8.76943C2.3624 8.84577 2.79271 8.8744 3.18992 8.90302C4.26018 8.9889 5.34147 9.00799 6.42277 9.00799L6.4338 9.03662ZM264.631 5.97352C266 5.97352 267.379 5.97352 268.747 5.97352C268.868 6.2407 269.056 6.47926 269.299 6.67011C268.769 6.69874 268.239 6.72736 267.71 6.74645C266.706 6.77508 265.713 6.81325 264.709 6.84187C260.339 6.98501 255.981 7.12814 251.612 7.27128C249.615 7.33808 247.618 7.4335 245.621 7.46213C242.498 7.5003 239.375 7.54801 236.253 7.58618C229.114 7.6816 221.987 7.77702 214.848 7.88199C201.001 8.07284 187.142 8.26369 173.295 8.45453C163.376 8.58813 153.457 8.85531 143.549 9.08433C128.609 9.42785 113.67 9.77138 98.73 10.1149C95.7399 10.1817 92.7387 10.3535 89.7486 10.4775C81.2638 10.8306 72.79 11.1836 64.3051 11.5367C55.9747 11.8802 47.6554 12.2238 39.325 12.5673C38.5527 12.5959 37.7803 12.6341 37.0079 12.6627C39.2478 12.51 41.4986 12.3478 43.7385 12.2047C51.5723 11.6894 59.4062 11.1646 67.2511 10.6493C69.9874 10.468 72.7238 10.2867 75.4601 10.1054C76.8724 10.0099 78.2847 9.95268 79.697 9.87634C87.8508 9.44694 95.9937 9.02707 104.147 8.59767C105.736 8.51179 107.336 8.40682 108.925 8.34957C111.22 8.27323 113.515 8.19689 115.81 8.12055C124.207 7.83428 132.614 7.55755 141.011 7.27128C142.864 7.21402 144.707 7.14723 146.561 7.08043C147.046 7.06135 147.532 7.06135 148.017 7.0518C149.319 7.03272 150.61 7.00409 151.912 6.98501C160.331 6.83233 168.749 6.68919 177.168 6.53652C181.052 6.46972 184.925 6.38384 188.808 6.36475C201.332 6.27887 213.844 6.16436 226.367 6.11665C239.122 6.06894 251.877 5.9926 264.631 5.98306V5.97352Z" fill="#F47E2F"/>
</svg>
