<svg width="138" height="8" viewBox="0 0 138 8" fill="none" xmlns="http://www.w3.org/2000/svg">
<path d="M2.99954 4.01627C4.09522 4.02476 5.18576 3.97386 6.28145 3.94418C6.72383 3.93145 7.17137 3.91449 7.61376 3.89328C9.57364 3.8127 11.5335 3.73212 13.4934 3.65154C15.8339 3.554 18.1796 3.45221 20.5202 3.34619C23.869 3.19351 27.2126 3.03659 30.5562 2.88391C31.3227 2.84999 32.0891 2.82454 32.8556 2.79485C34.8052 2.71851 36.7548 2.64217 38.7044 2.57008C40.654 2.49374 42.6036 2.4174 44.5532 2.3453C45.3145 2.31561 46.081 2.27744 46.8423 2.25624C49.9544 2.17566 53.0666 2.09508 56.1736 2.0145C58.0872 1.96361 60.0008 1.91695 61.9143 1.86606C62.6654 1.84486 63.4113 1.81941 64.1623 1.80669C67.1716 1.77276 70.1757 1.73035 73.185 1.69642C76.1531 1.65825 79.1212 1.62432 82.0893 1.58615C82.8712 1.57767 83.6582 1.58191 84.4401 1.57767C86.3795 1.57343 88.3136 1.56495 90.2529 1.56071C93.2673 1.55222 96.2766 1.54374 99.291 1.53102C100.274 1.53102 101.261 1.53526 102.249 1.5395C104.312 1.54374 106.374 1.55222 108.437 1.55647C108.607 1.55647 108.777 1.55647 108.946 1.55647C104.301 1.60736 99.6614 1.65825 95.0163 1.71763C93.077 1.74307 91.1377 1.76428 89.1984 1.78972C88.3599 1.7982 87.5266 1.80245 86.6881 1.81941C83.8846 1.87878 81.0759 1.94664 78.2724 2.00602C75.0317 2.07811 71.7858 2.15021 68.545 2.22231C67.9998 2.23503 67.4545 2.26048 66.9092 2.28168C65.1808 2.34954 63.4576 2.41316 61.7292 2.47677C58.2261 2.60825 54.723 2.74396 51.2199 2.87543C50.7003 2.89664 50.1859 2.92632 49.6664 2.95601C47.9585 3.05356 46.2456 3.1511 44.5326 3.24864C41.4667 3.42253 38.406 3.59641 35.3402 3.77029C34.4966 3.81694 33.6529 3.88904 32.8093 3.94418C30.8494 4.07989 28.8844 4.2156 26.9245 4.35132C24.4297 4.5252 21.9348 4.6906 19.4451 4.87297C15.9728 5.12319 12.5057 5.37341 9.03351 5.62363C8.20018 5.68301 7.36684 5.74238 6.53865 5.80176C5.04687 5.90778 3.56024 6.0647 2.06847 6.20041C1.909 6.21314 1.77526 6.29796 1.77526 6.44215C1.77526 6.58635 1.909 6.67541 2.06847 6.68389C2.61374 6.7051 3.15901 6.72206 3.69913 6.74327C3.63226 6.86202 3.59111 6.98925 3.59111 7.11648C3.59111 7.57451 4.07465 8.02831 4.65593 7.99862C8.91006 7.77808 13.1642 7.54059 17.4235 7.37519C21.122 7.23099 24.8155 7.08679 28.514 6.93836C32.6035 6.7772 36.6879 6.61604 40.7774 6.45488C42.0635 6.40398 43.3495 6.35309 44.6355 6.3022C45.0059 6.28948 45.3762 6.26827 45.7517 6.25979C52.3361 6.11559 58.9205 5.97564 65.5049 5.83144C69.0234 5.7551 72.542 5.67877 76.0605 5.60243C77.3311 5.57698 78.6016 5.55153 79.8722 5.53457C86.6058 5.44975 93.3393 5.36069 100.078 5.27587C102.964 5.2377 105.85 5.19953 108.735 5.16136C111.199 5.12743 113.663 5.11471 116.127 5.03837C118.159 4.97475 120.196 4.91114 122.233 4.84752C123.247 4.81783 124.265 4.79663 125.279 4.74149C127.588 4.62274 129.898 4.49975 132.208 4.37252C132.208 4.37252 132.208 4.37676 132.203 4.381C132.074 4.56337 132.038 4.78814 132.105 4.99172C132.172 5.19104 132.331 5.36069 132.547 5.46671C132.748 5.56426 133.062 5.61939 133.288 5.54729C133.792 5.38189 134.291 5.21225 134.79 5.04261C134.78 5.04261 134.77 5.05109 134.759 5.05533L134.872 5.01716C134.914 5.00444 134.96 4.98747 135.001 4.97475C134.986 4.97899 134.97 4.98747 134.955 4.99172C135.222 4.89841 135.49 4.80511 135.752 4.71181C136.03 4.61426 136.308 4.52096 136.585 4.41917C136.889 4.30891 137.177 4.17743 137.47 4.0502C137.799 3.90601 138 3.58793 138 3.28681C138 3.12565 137.949 2.97722 137.856 2.8415C137.727 2.65914 137.475 2.47253 137.218 2.43436C136.961 2.39619 136.704 2.37075 136.441 2.34106C136.385 2.33682 136.328 2.33258 136.266 2.33258C136.092 2.33258 135.906 2.35378 135.742 2.36226C135.351 2.38347 134.96 2.43436 134.569 2.45557C134.25 2.47677 133.931 2.49374 133.607 2.5107C132.743 2.56159 131.884 2.61249 131.025 2.66338C130.803 2.6761 130.577 2.68883 130.356 2.70155C130.438 2.62521 130.495 2.54039 130.531 2.4386C130.572 2.36226 130.593 2.27744 130.598 2.19262C130.608 2.13325 130.618 2.07387 130.629 2.01026C130.629 1.92968 130.613 1.85758 130.582 1.78548C130.603 1.777 130.629 1.76852 130.649 1.76004C130.809 1.67946 130.942 1.57343 131.035 1.44196C131.133 1.302 131.184 1.15357 131.184 0.992405C131.184 0.831246 131.133 0.682809 131.035 0.542854C130.978 0.48348 130.922 0.424105 130.865 0.360489C130.731 0.250222 130.572 0.173883 130.387 0.131473C130.052 0.0254463 129.708 0 129.353 0C129.065 0 128.777 0.0169642 128.489 0.0212052C128.077 0.0212052 127.66 0.0296873 127.249 0.0296873C126.663 0.0339284 126.076 0.0424105 125.49 0.0424105C123.941 0.0508926 122.393 0.0551336 120.845 0.0636157C119.389 0.0720978 117.933 0.0678568 116.477 0.0678568C115.155 0.0678568 113.828 0.0678568 112.506 0.0678568C107.228 0.089062 101.956 0.0933031 96.6778 0.139955C92.7221 0.173883 88.7663 0.207811 84.8105 0.237499C83.041 0.254463 81.2766 0.275668 79.507 0.305356C75.5409 0.373212 71.58 0.44531 67.614 0.513167C66.4823 0.534372 65.3506 0.551336 64.224 0.572542C63.5707 0.585265 62.9123 0.610711 62.259 0.631916C58.3392 0.754907 54.4246 0.877897 50.5048 1.00089C49.3114 1.03906 48.1129 1.07723 46.9194 1.1154C46.2507 1.1366 45.5768 1.17477 44.9081 1.20022C41.0192 1.3741 37.1252 1.54374 33.2363 1.71763C31.2249 1.80669 29.2188 1.90423 27.2126 2.01026C23.7764 2.18838 20.335 2.37075 16.8988 2.54887C13.9204 2.70155 10.942 2.83726 7.96355 2.98146C7.4903 3.00266 7.01705 3.02811 6.54894 3.04931C5.78762 3.08748 5.02115 3.11293 4.25983 3.13838C3.58082 3.16382 2.90181 3.18079 2.22279 3.16382C2.15592 3.01963 1.98102 2.90088 1.78555 2.9136C1.3483 2.94329 0.911058 2.98146 0.473814 3.01963C0.262907 3.03659 0.0777217 3.12565 0.0159931 3.30378C-0.0508796 3.50311 0.0982979 3.73636 0.345212 3.78302C0.535542 3.82119 0.725872 3.85936 0.916202 3.89752C1.10139 3.93145 1.30201 3.94418 1.48719 3.9569C1.98616 3.99507 2.49028 4.00355 2.9944 4.00355L2.99954 4.01627ZM123.375 2.6549C124.013 2.6549 124.656 2.6549 125.294 2.6549C125.351 2.77365 125.438 2.87967 125.551 2.96449C125.304 2.97722 125.058 2.98994 124.811 2.99842C124.343 3.01115 123.88 3.02811 123.411 3.04083C121.374 3.10445 119.343 3.16806 117.305 3.23168C116.374 3.26137 115.443 3.30378 114.512 3.3165C113.056 3.33346 111.601 3.35467 110.145 3.37163C106.817 3.41404 103.494 3.45646 100.166 3.50311C93.7097 3.58793 87.2488 3.67275 80.793 3.75757C76.1685 3.81694 71.544 3.93569 66.9247 4.03748C59.9596 4.19016 52.9946 4.34283 46.0295 4.49551C44.6355 4.5252 43.2363 4.60154 41.8423 4.65667C37.8865 4.81359 33.9359 4.97051 29.9801 5.12743C26.0963 5.28011 22.2177 5.43278 18.334 5.58546C17.9739 5.59819 17.6138 5.61515 17.2537 5.62787C18.2979 5.56002 19.3473 5.48792 20.3916 5.4243C24.0439 5.19529 27.6961 4.96203 31.3535 4.73301C32.6293 4.65243 33.905 4.57185 35.1807 4.49127C35.8392 4.44886 36.4976 4.42341 37.156 4.38949C40.9575 4.19864 44.7538 4.01203 48.5552 3.82119C49.296 3.78302 50.0419 3.73636 50.7826 3.71092C51.8526 3.67699 52.9225 3.64306 53.9925 3.60913C57.9071 3.4819 61.8269 3.35891 65.7415 3.23168C66.6057 3.20623 67.4648 3.17655 68.329 3.14686C68.5553 3.13838 68.7817 3.13838 69.008 3.13414C69.615 3.12565 70.2168 3.11293 70.8238 3.10445C74.7488 3.03659 78.6737 2.97298 82.5986 2.90512C84.4093 2.87543 86.2148 2.83726 88.0255 2.82878C93.864 2.79061 99.6974 2.73972 105.536 2.71851C111.482 2.69731 117.429 2.66338 123.375 2.65914V2.6549Z" fill="#F47E2F"/>
</svg>
