<svg width="300" height="19" viewBox="0 0 300 19" fill="none" xmlns="http://www.w3.org/2000/svg">
<path d="M6.52074 9.53865C8.90266 9.5588 11.2734 9.43793 13.6553 9.36742C14.617 9.3372 15.5899 9.29691 16.5516 9.24655C20.8123 9.05517 25.0729 8.86379 29.3335 8.67242C34.4216 8.44075 39.5209 8.19901 44.6091 7.9472C51.889 7.58459 59.1578 7.2119 66.4266 6.84929C68.0928 6.76872 69.759 6.70828 71.4252 6.63777C75.6635 6.45647 79.9017 6.27516 84.14 6.10393C88.3782 5.92263 92.6165 5.74132 96.8547 5.57009C98.5098 5.49958 100.176 5.40893 101.831 5.35857C108.597 5.16719 115.362 4.97581 122.117 4.78443C126.276 4.66356 130.436 4.55277 134.596 4.4319C136.229 4.38153 137.851 4.3211 139.483 4.29088C146.025 4.2103 152.556 4.10958 159.098 4.029C165.55 3.93834 172.003 3.85776 178.455 3.76711C180.155 3.74697 181.866 3.75704 183.566 3.74697C187.781 3.73689 191.986 3.71675 196.202 3.70668C202.755 3.68653 209.297 3.66639 215.85 3.63617C217.986 3.63617 220.133 3.64624 222.28 3.65631C226.764 3.66639 231.249 3.68653 235.733 3.6966C236.102 3.6966 236.471 3.6966 236.84 3.6966C226.742 3.81747 216.655 3.93834 206.557 4.07936C202.341 4.13979 198.125 4.19016 193.91 4.25059C192.087 4.27074 190.275 4.28081 188.452 4.3211C182.358 4.46211 176.252 4.62327 170.157 4.76429C163.112 4.93552 156.056 5.10675 149.011 5.27799C147.826 5.3082 146.64 5.36864 145.455 5.419C141.697 5.58016 137.951 5.73125 134.194 5.88234C126.578 6.19458 118.963 6.5169 111.348 6.82915C110.218 6.87951 109.1 6.95002 107.97 7.02053C104.258 7.25219 100.534 7.48386 96.81 7.71553C90.1451 8.1285 83.4914 8.54147 76.8265 8.95445C74.9925 9.06524 73.1586 9.23648 71.3246 9.36742C67.064 9.68974 62.7922 10.0121 58.5316 10.3344C53.1079 10.7473 47.6843 11.1402 42.2719 11.5733C34.7236 12.1676 27.1864 12.7618 19.6381 13.3561C17.8265 13.4971 16.0149 13.6382 14.2145 13.7792C10.9715 14.031 7.73966 14.4037 4.49667 14.726C4.15001 14.7562 3.85926 14.9577 3.85926 15.3001C3.85926 15.6426 4.15001 15.8541 4.49667 15.8742C5.68204 15.9246 6.86741 15.9649 8.04159 16.0153C7.89622 16.2973 7.80676 16.5995 7.80676 16.9016C7.80676 17.9895 8.85793 19.0672 10.1216 18.9967C19.3697 18.473 28.6178 17.9089 37.8771 17.5161C45.9175 17.1736 53.9466 16.8311 61.987 16.4786C70.8773 16.0958 79.7564 15.7131 88.6466 15.3303C91.4423 15.2095 94.238 15.0886 97.0337 14.9677C97.8388 14.9375 98.644 14.8871 99.4603 14.867C113.774 14.5245 128.088 14.1921 142.402 13.8497C150.051 13.6684 157.7 13.4871 165.349 13.3058C168.111 13.2453 170.873 13.1849 173.635 13.1446C188.273 12.9432 202.912 12.7316 217.561 12.5302C223.835 12.4395 230.108 12.3489 236.382 12.2582C241.738 12.1776 247.095 12.1474 252.451 11.9661C256.868 11.815 261.297 11.6639 265.725 11.5129C267.928 11.4424 270.142 11.392 272.345 11.261C277.366 10.979 282.387 10.6869 287.408 10.3847C287.408 10.3847 287.408 10.3948 287.397 10.4049C287.117 10.838 287.039 11.3718 287.185 11.8553C287.33 12.3287 287.677 12.7316 288.146 12.9834C288.582 13.2151 289.265 13.3461 289.757 13.1748C290.853 12.782 291.937 12.3791 293.022 11.9762C293 11.9762 292.977 11.9963 292.955 12.0064L293.201 11.9158C293.29 11.8855 293.391 11.8453 293.48 11.815C293.447 11.8251 293.413 11.8453 293.38 11.8553C293.961 11.6337 294.543 11.4121 295.113 11.1905C295.717 10.9589 296.321 10.7373 296.925 10.4955C297.585 10.2337 298.211 9.92141 298.848 9.61923C299.564 9.27677 300 8.52133 300 7.80618C300 7.42343 299.888 7.07089 299.687 6.74857C299.407 6.31545 298.859 5.87226 298.3 5.78161C297.741 5.69096 297.182 5.63052 296.612 5.56002C296.489 5.54994 296.366 5.53987 296.231 5.53987C295.851 5.53987 295.449 5.59023 295.091 5.61038C294.241 5.66074 293.391 5.78161 292.541 5.83197C291.848 5.88234 291.154 5.92263 290.45 5.96292C288.571 6.08379 286.704 6.20466 284.836 6.32553C284.355 6.35574 283.863 6.38596 283.382 6.41618C283.561 6.23487 283.684 6.03342 283.763 5.79168C283.852 5.61038 283.897 5.40893 283.908 5.20748C283.93 5.06646 283.953 4.92545 283.975 4.77436C283.975 4.58298 283.942 4.41175 283.875 4.24052C283.919 4.22037 283.975 4.20023 284.02 4.18008C284.367 3.98871 284.657 3.73689 284.859 3.42465C285.071 3.09226 285.183 2.73972 285.183 2.35696C285.183 1.97421 285.071 1.62167 284.859 1.28928C284.736 1.14826 284.613 1.00725 284.49 0.856162C284.199 0.594277 283.852 0.412972 283.45 0.312247C282.723 0.060435 281.973 0 281.202 0C280.576 0 279.949 0.04029 279.323 0.0503625C278.429 0.0503625 277.523 0.0705074 276.628 0.0705074C275.353 0.0805799 274.078 0.100725 272.804 0.100725C269.438 0.12087 266.072 0.130942 262.706 0.151087C259.541 0.171232 256.376 0.16116 253.212 0.16116C250.338 0.16116 247.452 0.16116 244.578 0.16116C233.105 0.211522 221.643 0.221595 210.169 0.332392C201.57 0.412972 192.97 0.493552 184.371 0.56406C180.524 0.60435 176.688 0.654712 172.841 0.725219C164.219 0.886379 155.609 1.05761 146.987 1.21877C144.527 1.26913 142.066 1.30942 139.617 1.35979C138.197 1.39 136.766 1.45044 135.346 1.5008C126.824 1.7929 118.314 2.08501 109.793 2.37711C107.199 2.46776 104.593 2.55841 101.999 2.64907C100.545 2.69943 99.0801 2.79008 97.6264 2.85052C89.1722 3.26349 80.7069 3.66639 72.2528 4.07936C67.8803 4.29088 63.5191 4.52255 59.1578 4.77436C51.6877 5.19741 44.2065 5.63052 36.7364 6.05357C30.2617 6.41618 23.7869 6.7385 17.3121 7.08096C16.2833 7.13132 15.2544 7.19176 14.2368 7.24212C12.5818 7.33277 10.9156 7.39321 9.26051 7.45364C7.78439 7.51408 6.30827 7.55437 4.83215 7.51408C4.68678 7.17161 4.30657 6.88958 3.88162 6.9198C2.93109 6.99031 1.98056 7.08096 1.03003 7.17161C0.571538 7.2119 0.16896 7.42343 0.0347675 7.84647C-0.110608 8.31988 0.213691 8.87387 0.750462 8.98466C1.16422 9.07532 1.57798 9.16597 1.99174 9.25662C2.39432 9.3372 2.83045 9.36742 3.23303 9.39764C4.31775 9.48829 5.41365 9.50843 6.50956 9.50843L6.52074 9.53865ZM268.208 6.30538C269.594 6.30538 270.992 6.30538 272.379 6.30538C272.502 6.58741 272.692 6.83922 272.938 7.04067C272.401 7.07089 271.864 7.10111 271.328 7.12125C270.31 7.15147 269.303 7.19176 268.286 7.22198C263.857 7.37306 259.44 7.52415 255.012 7.67524C252.988 7.74575 250.964 7.84647 248.94 7.87669C245.775 7.91698 242.61 7.96734 239.446 8.00763C232.21 8.10836 224.986 8.20908 217.751 8.31988C203.717 8.52133 189.671 8.72278 175.637 8.92423C165.584 9.06524 155.53 9.34727 145.488 9.58901C130.347 9.95162 115.206 10.3142 100.064 10.6768C97.0337 10.7473 93.992 10.9287 90.9615 11.0596C82.3619 11.4323 73.7736 11.805 65.1741 12.1776C56.7311 12.5403 48.2994 12.9029 39.8564 13.2655C39.0736 13.2957 38.2908 13.336 37.5081 13.3662C39.7781 13.205 42.0594 13.0338 44.3295 12.8827C52.2692 12.3388 60.209 11.7848 68.1599 11.2409C70.9332 11.0495 73.7065 10.8581 76.4798 10.6668C77.9112 10.566 79.3426 10.5056 80.774 10.425C89.038 9.97177 97.2909 9.52858 105.555 9.07532C107.165 8.98466 108.787 8.87387 110.397 8.81343C112.723 8.73285 115.049 8.65227 117.375 8.57169C125.885 8.26952 134.406 7.97741 142.916 7.67524C144.795 7.6148 146.663 7.5443 148.541 7.47379C149.033 7.45364 149.525 7.45364 150.017 7.44357C151.337 7.42343 152.645 7.39321 153.965 7.37306C162.497 7.2119 171.03 7.06082 179.562 6.89966C183.498 6.82915 187.424 6.7385 191.36 6.71835C204.052 6.6277 216.733 6.50683 229.426 6.45647C242.353 6.4061 255.28 6.32553 268.208 6.31545V6.30538Z" fill="#F47E2F"/>
</svg>
