<svg width="206" height="19" viewBox="0 0 206 19" fill="none" xmlns="http://www.w3.org/2000/svg">
<path d="M4.47758 9.53865C6.11316 9.5588 7.74107 9.43793 9.37665 9.36742C10.037 9.3372 10.7051 9.29691 11.3655 9.24655C14.2911 9.05517 17.2167 8.86379 20.1423 8.67242C23.6362 8.44075 27.1377 8.19901 30.6316 7.9472C35.6305 7.58459 40.6217 7.2119 45.6129 6.84929C46.757 6.76872 47.9012 6.70828 49.0453 6.63777C51.9556 6.45647 54.8659 6.27516 57.7761 6.10393C60.6864 5.92263 63.5967 5.74132 66.5069 5.57009C67.6434 5.49958 68.7875 5.40893 69.924 5.35857C74.5697 5.16719 79.2153 4.97581 83.8533 4.78443C86.7098 4.66356 89.5664 4.55277 92.4229 4.4319C93.544 4.38153 94.6574 4.3211 95.7785 4.29088C100.271 4.2103 104.755 4.10958 109.247 4.029C113.678 3.93834 118.108 3.85776 122.539 3.76711C123.706 3.74697 124.881 3.75704 126.048 3.74697C128.943 3.73689 131.83 3.71675 134.725 3.70668C139.225 3.68653 143.717 3.66639 148.217 3.63617C149.684 3.63617 151.158 3.64624 152.632 3.65631C155.712 3.66639 158.791 3.68653 161.87 3.6966C162.123 3.6966 162.377 3.6966 162.63 3.6966C155.696 3.81747 148.77 3.93834 141.836 4.07936C138.941 4.13979 136.046 4.19016 133.151 4.25059C131.9 4.27074 130.656 4.28081 129.404 4.3211C125.219 4.46211 121.026 4.62327 116.841 4.76429C112.004 4.93552 107.158 5.10675 102.321 5.27799C101.507 5.3082 100.693 5.36864 99.879 5.419C97.2989 5.58016 94.7265 5.73125 92.1464 5.88234C86.9172 6.19458 81.6879 6.5169 76.4586 6.82915C75.6831 6.87951 74.9152 6.95002 74.1397 7.02053C71.5903 7.25219 69.0332 7.48386 66.4762 7.71553C61.8996 8.1285 57.3308 8.54147 52.7542 8.95445C51.4949 9.06524 50.2355 9.23648 48.9762 9.36742C46.0506 9.68974 43.1173 10.0121 40.1917 10.3344C36.4675 10.7473 32.7432 11.1402 29.0267 11.5733C23.8435 12.1676 18.668 12.7618 13.4848 13.3561C12.2408 13.4971 10.9969 13.6382 9.76059 13.7792C7.53374 14.031 5.31457 14.4037 3.08771 14.726C2.84967 14.7562 2.65002 14.9577 2.65002 15.3001C2.65002 15.6426 2.84967 15.8541 3.08771 15.8742C3.90167 15.9246 4.71562 15.9649 5.52189 16.0153C5.42207 16.2973 5.36064 16.5995 5.36064 16.9016C5.36064 17.9895 6.08245 19.0672 6.95015 18.9967C13.3005 18.473 19.6509 17.9089 26.0089 17.5161C31.53 17.1736 37.0434 16.8311 42.5644 16.4786C48.6691 16.0958 54.766 15.7131 60.8707 15.3303C62.7904 15.2095 64.7101 15.0886 66.6298 14.9677C67.1827 14.9375 67.7355 14.8871 68.2961 14.867C78.1249 14.5245 87.9538 14.1921 97.7827 13.8497C103.035 13.6684 108.287 13.4871 113.54 13.3058C115.436 13.2453 117.333 13.1849 119.23 13.1446C129.281 12.9432 139.333 12.7316 149.392 12.5302C153.7 12.4395 158.007 12.3489 162.315 12.2582C165.993 12.1776 169.672 12.1474 173.35 11.9661C176.383 11.815 179.424 11.6639 182.464 11.5129C183.977 11.4424 185.498 11.392 187.01 11.261C190.458 10.979 193.906 10.6869 197.354 10.3847C197.354 10.3847 197.354 10.3948 197.346 10.4049C197.154 10.838 197.1 11.3718 197.2 11.8553C197.3 12.3287 197.538 12.7316 197.86 12.9834C198.16 13.2151 198.628 13.3461 198.966 13.1748C199.719 12.782 200.464 12.3791 201.208 11.9762C201.193 11.9762 201.178 11.9963 201.162 12.0064L201.331 11.9158C201.393 11.8855 201.462 11.8453 201.523 11.815C201.5 11.8251 201.477 11.8453 201.454 11.8553C201.853 11.6337 202.253 11.4121 202.644 11.1905C203.059 10.9589 203.474 10.7373 203.888 10.4955C204.341 10.2337 204.771 9.92141 205.209 9.61923C205.701 9.27677 206 8.52133 206 7.80618C206 7.42343 205.923 7.07089 205.785 6.74857C205.593 6.31545 205.217 5.87226 204.833 5.78161C204.449 5.69096 204.065 5.63052 203.673 5.56002C203.589 5.54994 203.504 5.53987 203.412 5.53987C203.151 5.53987 202.875 5.59023 202.629 5.61038C202.045 5.66074 201.462 5.78161 200.878 5.83197C200.402 5.88234 199.926 5.92263 199.442 5.96292C198.152 6.08379 196.87 6.20466 195.588 6.32553C195.257 6.35574 194.919 6.38596 194.589 6.41618C194.712 6.23487 194.797 6.03342 194.85 5.79168C194.912 5.61038 194.943 5.40893 194.95 5.20748C194.966 5.06646 194.981 4.92545 194.996 4.77436C194.996 4.58298 194.973 4.41175 194.927 4.24052C194.958 4.22037 194.996 4.20023 195.027 4.18008C195.265 3.98871 195.465 3.73689 195.603 3.42465C195.749 3.09226 195.826 2.73972 195.826 2.35696C195.826 1.97421 195.749 1.62167 195.603 1.28928C195.518 1.14826 195.434 1.00725 195.35 0.856162C195.15 0.594277 194.912 0.412972 194.635 0.312247C194.136 0.060435 193.622 0 193.092 0C192.662 0 192.232 0.04029 191.802 0.0503625C191.188 0.0503625 190.566 0.0705074 189.951 0.0705074C189.076 0.0805799 188.201 0.100725 187.325 0.100725C185.014 0.12087 182.703 0.130942 180.391 0.151087C178.218 0.171232 176.045 0.16116 173.872 0.16116C171.898 0.16116 169.917 0.16116 167.944 0.16116C160.065 0.211522 152.195 0.221595 144.316 0.332392C138.411 0.412972 132.506 0.493552 126.601 0.56406C123.96 0.60435 121.326 0.654712 118.684 0.725219C112.764 0.886379 106.851 1.05761 100.931 1.21877C99.2416 1.26913 97.5523 1.30942 95.8706 1.35979C94.8954 1.39 93.9126 1.45044 92.9373 1.5008C87.0861 1.7929 81.2425 2.08501 75.3913 2.37711C73.6098 2.46776 71.8206 2.55841 70.0392 2.64907C69.0409 2.69943 68.035 2.79008 67.0368 2.85052C61.2316 3.26349 55.4187 3.66639 49.6136 4.07936C46.6112 4.29088 43.6164 4.52255 40.6217 4.77436C35.4922 5.19741 30.3551 5.63052 25.2257 6.05357C20.7797 6.41618 16.3336 6.7385 11.8876 7.08096C11.1812 7.13132 10.4747 7.19176 9.77595 7.24212C8.63949 7.33277 7.49535 7.39321 6.35888 7.45364C5.34528 7.51408 4.33168 7.55437 3.31808 7.51408C3.21825 7.17161 2.95718 6.88958 2.66538 6.9198C2.01268 6.99031 1.35998 7.08096 0.707287 7.17161C0.392456 7.2119 0.116019 7.42343 0.0238737 7.84647C-0.0759507 8.31988 0.146735 8.87387 0.515317 8.98466C0.799432 9.07532 1.08355 9.16597 1.36766 9.25662C1.6441 9.3372 1.94357 9.36742 2.22001 9.39764C2.96485 9.48829 3.71738 9.50843 4.4699 9.50843L4.47758 9.53865ZM184.169 6.30538C185.121 6.30538 186.081 6.30538 187.033 6.30538C187.118 6.58741 187.248 6.83922 187.417 7.04067C187.049 7.07089 186.68 7.10111 186.312 7.12125C185.613 7.15147 184.922 7.19176 184.223 7.22198C181.182 7.37306 178.149 7.52415 175.108 7.67524C173.718 7.74575 172.328 7.84647 170.939 7.87669C168.766 7.91698 166.592 7.96734 164.419 8.00763C159.451 8.10836 154.491 8.20908 149.522 8.31988C139.886 8.52133 130.241 8.72278 120.604 8.92423C113.701 9.06524 106.798 9.34727 99.902 9.58901C89.5049 9.95162 79.1078 10.3142 68.7107 10.6768C66.6298 10.7473 64.5412 10.9287 62.4602 11.0596C56.5552 11.4323 50.6579 11.805 44.7529 12.1776C38.9554 12.5403 33.1656 12.9029 27.3681 13.2655C26.8306 13.2957 26.293 13.336 25.7555 13.3662C27.3143 13.205 28.8808 13.0338 30.4396 12.8827C35.8915 12.3388 41.3435 11.7848 46.8031 11.2409C48.7075 11.0495 50.6118 10.8581 52.5161 10.6668C53.499 10.566 54.4819 10.5056 55.4648 10.425C61.1394 9.97177 66.8064 9.52858 72.481 9.07532C73.5868 8.98466 74.7002 8.87387 75.8059 8.81343C77.4031 8.73285 79.0003 8.65227 80.5975 8.57169C86.4411 8.26952 92.2923 7.97741 98.1359 7.67524C99.4259 7.6148 100.708 7.5443 101.998 7.47379C102.336 7.45364 102.674 7.45364 103.012 7.44357C103.918 7.42343 104.816 7.39321 105.723 7.37306C111.581 7.2119 117.44 7.06082 123.299 6.89966C126.002 6.82915 128.698 6.7385 131.4 6.71835C140.116 6.6277 148.824 6.50683 157.539 6.45647C166.416 6.4061 175.292 6.32553 184.169 6.31545V6.30538Z" fill="#F47E2F"/>
</svg>
