<svg width="141" height="10" viewBox="0 0 141 10" fill="none" xmlns="http://www.w3.org/2000/svg">
<path d="M3.06475 4.83004C4.18425 4.83912 5.2985 4.78461 6.418 4.75281C6.87 4.73918 7.32727 4.72101 7.77927 4.6983C9.78176 4.61199 11.7843 4.52568 13.7867 4.43936C16.1782 4.33488 18.5748 4.22586 20.9663 4.11229C24.3878 3.94875 27.8042 3.78067 31.2205 3.61713C32.0036 3.58079 32.7867 3.55353 33.5699 3.52173C35.5618 3.43996 37.5538 3.35819 39.5458 3.28097C41.5378 3.1992 43.5298 3.11743 45.5217 3.0402C46.2996 3.0084 47.0827 2.96752 47.8606 2.94481C51.0404 2.85849 54.2202 2.77218 57.3948 2.68587C59.3499 2.63136 61.3051 2.58139 63.2603 2.52688C64.0277 2.50416 64.7898 2.47691 65.5571 2.46328C68.6318 2.42694 71.7012 2.38151 74.7759 2.34517C77.8086 2.30428 80.8412 2.26794 83.8739 2.22706C84.6728 2.21797 85.4769 2.22251 86.2758 2.21797C88.2573 2.21343 90.2335 2.20434 92.2149 2.1998C95.2949 2.19071 98.3696 2.18163 101.45 2.168C102.453 2.168 103.463 2.17254 104.472 2.17709C106.579 2.18163 108.687 2.19071 110.794 2.19526C110.968 2.19526 111.141 2.19526 111.315 2.19526C106.569 2.24977 101.828 2.30428 97.0819 2.36788C95.1004 2.39514 93.1189 2.41785 91.1375 2.44511C90.2808 2.45419 89.4293 2.45873 88.5726 2.47691C85.7082 2.5405 82.8385 2.61319 79.974 2.67679C76.6628 2.75401 73.3463 2.83124 70.0351 2.90846C69.478 2.92209 68.9209 2.94935 68.3638 2.97206C66.5978 3.04475 64.8371 3.11289 63.0711 3.18103C59.4918 3.32185 55.9126 3.46722 52.3333 3.60804C51.8025 3.63076 51.2769 3.66256 50.7461 3.69436C49.0011 3.79884 47.2509 3.90332 45.5007 4.0078C42.3682 4.19406 39.241 4.38031 36.1085 4.56656C35.2465 4.61653 34.3845 4.69376 33.5226 4.75281C31.5201 4.89818 29.5123 5.04355 27.5098 5.18891C24.9607 5.37516 22.4116 5.55233 19.8678 5.74767C16.3201 6.01569 12.7776 6.28371 9.22989 6.55173C8.37844 6.61533 7.52699 6.67893 6.68079 6.74253C5.15659 6.85609 3.63764 7.02418 2.11344 7.16954C1.9505 7.18317 1.81385 7.27402 1.81385 7.42848C1.81385 7.58293 1.9505 7.67833 2.11344 7.68741C2.67056 7.71013 3.22768 7.7283 3.77955 7.75101C3.71122 7.87821 3.66918 8.01449 3.66918 8.15077C3.66918 8.64139 4.16323 9.12746 4.75714 9.09566C9.10375 8.85944 13.4504 8.60504 17.8022 8.42788C21.5812 8.27343 25.3549 8.11897 29.1339 7.95998C33.3123 7.78735 37.4855 7.61473 41.6639 7.44211C42.9779 7.38759 44.2919 7.33308 45.6058 7.27857C45.9842 7.26494 46.3627 7.24223 46.7463 7.23314C53.4739 7.07869 60.2014 6.92878 66.9289 6.77432C70.5239 6.69256 74.119 6.61079 77.714 6.52902C79.0122 6.50176 80.3104 6.4745 81.6086 6.45633C88.4885 6.36548 95.3685 6.27008 102.254 6.17923C105.202 6.13834 108.151 6.09746 111.099 6.05657C113.617 6.02023 116.134 6.0066 118.652 5.92484C120.728 5.85669 122.809 5.78855 124.891 5.72041C125.926 5.68861 126.967 5.6659 128.002 5.60684C130.362 5.47965 132.722 5.34791 135.082 5.21163C135.082 5.21163 135.082 5.21617 135.077 5.22071C134.945 5.41605 134.908 5.65681 134.977 5.87487C135.045 6.08837 135.208 6.27008 135.429 6.38365C135.634 6.48813 135.954 6.54719 136.186 6.46996C136.701 6.2928 137.21 6.11109 137.72 5.92938C137.71 5.92938 137.699 5.93846 137.689 5.94301L137.804 5.90212C137.846 5.88849 137.894 5.87032 137.936 5.85669C137.92 5.86124 137.904 5.87032 137.889 5.87487C138.162 5.77493 138.435 5.67499 138.703 5.57505C138.987 5.47056 139.271 5.37062 139.555 5.2616C139.865 5.14349 140.159 5.00266 140.459 4.86638C140.795 4.71193 141 4.37122 141 4.04869C141 3.87607 140.947 3.71707 140.853 3.5717C140.721 3.37637 140.464 3.17649 140.201 3.1356C139.938 3.09472 139.676 3.06746 139.407 3.03566C139.35 3.03112 139.292 3.02658 139.229 3.02658C139.05 3.02658 138.861 3.04929 138.693 3.05837C138.293 3.08109 137.894 3.1356 137.494 3.15831C137.168 3.18103 136.843 3.1992 136.511 3.21737C135.628 3.27188 134.751 3.3264 133.873 3.38091C133.647 3.39454 133.416 3.40816 133.19 3.42179C133.274 3.34002 133.332 3.24917 133.368 3.14014C133.411 3.05837 133.432 2.96752 133.437 2.87667C133.447 2.81307 133.458 2.74947 133.468 2.68133C133.468 2.59502 133.453 2.51779 133.421 2.44056C133.442 2.43148 133.468 2.42239 133.489 2.41331C133.652 2.327 133.789 2.21343 133.884 2.0726C133.983 1.92269 134.036 1.7637 134.036 1.59107C134.036 1.41845 133.983 1.25946 133.884 1.10955C133.826 1.04595 133.768 0.982349 133.71 0.914208C133.573 0.796097 133.411 0.714328 133.221 0.668901C132.88 0.555333 132.528 0.528076 132.165 0.528076C131.871 0.528076 131.576 0.546247 131.282 0.55079C130.861 0.55079 130.436 0.559875 130.015 0.559875C129.416 0.564418 128.817 0.573503 128.218 0.573503C126.636 0.582589 125.054 0.587132 123.472 0.596217C121.984 0.605303 120.497 0.60076 119.009 0.60076C117.659 0.60076 116.303 0.60076 114.952 0.60076C109.559 0.623473 104.172 0.628016 98.7795 0.677986C94.7378 0.714328 90.696 0.75067 86.6542 0.782469C84.8462 0.80064 83.0434 0.823353 81.2354 0.855152C77.1831 0.927836 73.1361 1.00506 69.0838 1.07775C67.9275 1.10046 66.7712 1.11863 65.6202 1.14134C64.9527 1.15497 64.28 1.18223 63.6125 1.20494C59.6075 1.33668 55.6078 1.46842 51.6028 1.60016C50.3834 1.64104 49.1588 1.68193 47.9394 1.72281C47.2562 1.74553 46.5676 1.78641 45.8844 1.81367C41.9109 1.99992 37.9322 2.18163 33.9588 2.36788C31.9037 2.46328 29.854 2.56776 27.8042 2.68133C24.2932 2.87212 20.7771 3.06746 17.2661 3.25825C14.223 3.42179 11.1798 3.56716 8.13667 3.72161C7.65313 3.74433 7.16959 3.77158 6.69131 3.7943C5.91343 3.83518 5.13031 3.86244 4.35244 3.88969C3.65866 3.91695 2.96489 3.93512 2.27111 3.91695C2.20279 3.7625 2.02409 3.6353 1.82436 3.64893C1.37761 3.68073 0.930863 3.72161 0.484114 3.7625C0.268623 3.78067 0.0794113 3.87607 0.0163407 4.06686C-0.0519857 4.28037 0.100435 4.53022 0.352717 4.58019C0.547184 4.62107 0.741652 4.66196 0.936119 4.70284C1.12533 4.73918 1.33031 4.75281 1.51952 4.76644C2.02934 4.80732 2.54442 4.81641 3.05949 4.81641L3.06475 4.83004ZM126.058 3.37182C126.709 3.37182 127.366 3.37182 128.018 3.37182C128.076 3.49902 128.165 3.61259 128.281 3.70344C128.028 3.71707 127.776 3.7307 127.524 3.73978C127.046 3.75341 126.573 3.77158 126.094 3.78521C124.013 3.85335 121.937 3.92149 119.856 3.98963C118.904 4.02143 117.953 4.06686 117.002 4.08049C115.514 4.09866 114.027 4.12137 112.539 4.13954C109.139 4.18497 105.744 4.2304 102.343 4.28037C95.7469 4.37122 89.1455 4.46208 82.5494 4.55293C77.8244 4.61653 73.0993 4.74373 68.3795 4.85275C61.2631 5.01629 54.1466 5.17983 47.0302 5.34337C45.6058 5.37517 44.1762 5.45693 42.7519 5.51599C38.7101 5.68407 34.6736 5.85215 30.6318 6.02023C26.6636 6.18377 22.7007 6.34731 18.7325 6.51085C18.3646 6.52448 17.9967 6.54265 17.6288 6.55627C18.6957 6.48359 19.7679 6.40636 20.8349 6.33822C24.5665 6.09292 28.2982 5.84307 32.0351 5.59776C33.3386 5.51145 34.6421 5.42514 35.9455 5.33882C36.6183 5.2934 37.291 5.26614 37.9638 5.2298C41.8479 5.02538 45.7267 4.8255 49.6108 4.62107C50.3676 4.58019 51.1297 4.53022 51.8866 4.50296C52.9798 4.46662 54.073 4.43028 55.1663 4.39394C59.166 4.25765 63.171 4.12592 67.1707 3.98963C68.0537 3.96238 68.9314 3.93058 69.8144 3.89878C70.0457 3.88969 70.2769 3.88969 70.5082 3.88515C71.1284 3.87607 71.7433 3.86244 72.3635 3.85335C76.3737 3.78067 80.384 3.71253 84.3942 3.63984C86.2443 3.60804 88.0891 3.56716 89.9391 3.55807C95.9046 3.51719 101.865 3.46268 107.83 3.43996C113.906 3.41725 119.982 3.38091 126.058 3.37637V3.37182Z" fill="#F47E2F"/>
</svg>
