<svg width="82" height="7" viewBox="0 0 82 7" fill="none" xmlns="http://www.w3.org/2000/svg">
<path d="M1.78234 3.98791C2.43339 3.99427 3.0814 3.95611 3.73245 3.93384C3.99532 3.9243 4.26125 3.91157 4.52412 3.89567C5.68868 3.83524 6.85325 3.7748 8.01782 3.71437C9.40858 3.64121 10.8024 3.56487 12.1931 3.48535C14.183 3.37084 16.1698 3.25315 18.1566 3.13864C18.612 3.1132 19.0675 3.09411 19.5229 3.07185C20.6814 3.01459 21.8398 2.95734 22.9983 2.90326C24.1567 2.84601 25.3152 2.78876 26.4736 2.73468C26.926 2.71242 27.3814 2.68379 27.8338 2.66789C29.6831 2.60745 31.5323 2.54702 33.3785 2.48658C34.5156 2.44841 35.6526 2.41342 36.7897 2.37525C37.236 2.35935 37.6792 2.34027 38.1254 2.33072C39.9135 2.30528 41.6986 2.27347 43.4867 2.24802C45.2504 2.2194 47.014 2.19395 48.7777 2.16532C49.2423 2.15896 49.71 2.16214 50.1746 2.15896C51.3269 2.15578 52.4762 2.14942 53.6286 2.14624C55.4197 2.13988 57.2078 2.13351 58.999 2.12397C59.5828 2.12397 60.1697 2.12715 60.7566 2.13033C61.9823 2.13351 63.208 2.13988 64.4337 2.14306C64.5345 2.14306 64.6354 2.14306 64.7363 2.14306C61.9762 2.18123 59.2191 2.2194 56.459 2.26393C55.3066 2.28301 54.1543 2.29892 53.0019 2.318C52.5037 2.32436 52.0085 2.32754 51.5103 2.34027C49.8445 2.3848 48.1756 2.43569 46.5097 2.48022C44.584 2.53429 42.6553 2.58837 40.7297 2.64244C40.4057 2.65198 40.0817 2.67107 39.7577 2.68697C38.7306 2.73786 37.7067 2.78558 36.6796 2.83329C34.5981 2.93189 32.5165 3.03368 30.435 3.13228C30.1263 3.14819 29.8206 3.17045 29.5119 3.19272C28.4971 3.26587 27.4793 3.33903 26.4614 3.41219C24.6397 3.5426 22.821 3.67302 20.9992 3.80343C20.498 3.83842 19.9967 3.89249 19.4954 3.93384C18.3308 4.03563 17.1632 4.13741 15.9986 4.2392C14.5162 4.36961 13.0337 4.49366 11.5543 4.63043C9.49111 4.8181 7.43095 5.00576 5.36774 5.19343C4.87257 5.23796 4.3774 5.28249 3.88528 5.32702C2.99887 5.40654 2.11551 5.52423 1.22909 5.62602C1.13434 5.63556 1.05486 5.69918 1.05486 5.80732C1.05486 5.91547 1.13434 5.98227 1.22909 5.98863C1.55309 6.00453 1.87709 6.01726 2.19804 6.03316C2.1583 6.12222 2.13385 6.21765 2.13385 6.31307C2.13385 6.65659 2.42117 6.99694 2.76656 6.97467C5.29438 6.80927 7.8222 6.63115 10.3531 6.5071C12.5508 6.39895 14.7454 6.2908 16.9431 6.17948C19.3731 6.05861 21.8001 5.93774 24.2301 5.81687C24.9942 5.7787 25.7584 5.74053 26.5225 5.70236C26.7426 5.69282 26.9627 5.67691 27.1858 5.67055C31.0983 5.5624 35.0107 5.45744 38.9232 5.34929C41.0139 5.29204 43.1046 5.23478 45.1954 5.17753C45.9503 5.15844 46.7053 5.13936 47.4603 5.12664C51.4614 5.06302 55.4625 4.99622 59.4667 4.93261C61.1814 4.90398 62.8962 4.87535 64.6109 4.84673C66.0751 4.82128 67.5392 4.81174 69.0033 4.75448C70.2107 4.70677 71.4211 4.65906 72.6315 4.61135C73.2336 4.58908 73.8389 4.57318 74.441 4.53183C75.8134 4.44277 77.1858 4.35052 78.5583 4.2551C78.5583 4.2551 78.5583 4.25828 78.5552 4.26146C78.4788 4.39824 78.4574 4.56682 78.4971 4.71949C78.5368 4.86899 78.6316 4.99622 78.76 5.07574C78.8792 5.1489 79.0657 5.19025 79.2001 5.13618C79.4997 5.01213 79.7962 4.8849 80.0927 4.75766C80.0866 4.75766 80.0804 4.76403 80.0743 4.76721L80.1416 4.73858C80.166 4.72904 80.1935 4.71631 80.218 4.70677C80.2088 4.70995 80.1997 4.71631 80.1905 4.71949C80.3494 4.64952 80.5084 4.57954 80.6643 4.50956C80.8293 4.4364 80.9944 4.36643 81.1594 4.29009C81.3398 4.20739 81.5109 4.10878 81.6852 4.01336C81.8808 3.90521 82 3.66665 82 3.44082C82 3.31995 81.9694 3.20862 81.9144 3.10684C81.838 2.97006 81.6882 2.83011 81.5354 2.80148C81.3826 2.77285 81.2297 2.75377 81.0738 2.7315C81.0402 2.72832 81.0066 2.72514 80.9699 2.72514C80.866 2.72514 80.756 2.74104 80.6581 2.74741C80.4258 2.76331 80.1935 2.80148 79.9612 2.81738C79.7717 2.83329 79.5822 2.84601 79.3896 2.85873C78.8761 2.8969 78.3657 2.93507 77.8552 2.97324C77.7238 2.98278 77.5893 2.99233 77.4579 3.00187C77.5068 2.94462 77.5404 2.881 77.5618 2.80466C77.5863 2.74741 77.5985 2.68379 77.6015 2.62017C77.6077 2.57564 77.6138 2.53111 77.6199 2.4834C77.6199 2.42297 77.6107 2.36889 77.5924 2.31482C77.6046 2.30846 77.6199 2.3021 77.6321 2.29573C77.7269 2.2353 77.8063 2.15578 77.8614 2.05718C77.9194 1.95221 77.95 1.84088 77.95 1.72001C77.95 1.59914 77.9194 1.48781 77.8614 1.38285C77.8277 1.33832 77.7941 1.29379 77.7605 1.24607C77.681 1.16337 77.5863 1.10612 77.4762 1.07431C77.2775 0.994793 77.0727 0.975708 76.8618 0.975708C76.6907 0.975708 76.5195 0.988431 76.3483 0.991612C76.1038 0.991612 75.8562 0.997974 75.6117 0.997974C75.2632 1.00115 74.9148 1.00752 74.5663 1.00752C73.6463 1.01388 72.7262 1.01706 71.8062 1.02342C70.9412 1.02978 70.0762 1.0266 69.2111 1.0266C68.4256 1.0266 67.637 1.0266 66.8514 1.0266C63.7154 1.0425 60.5823 1.04569 57.4463 1.08067C55.0957 1.10612 52.7452 1.13157 50.3947 1.15383C49.3432 1.16656 48.2948 1.18246 47.2433 1.20472C44.8866 1.25562 42.5331 1.30969 40.1764 1.36058C39.504 1.37649 38.8315 1.38921 38.1621 1.40511C37.7739 1.41466 37.3827 1.43374 36.9945 1.44965C34.6653 1.54189 32.3393 1.63413 30.0101 1.72637C29.301 1.755 28.5888 1.78363 27.8797 1.81225C27.4823 1.82816 27.0819 1.85679 26.6845 1.87587C24.3737 2.00628 22.0599 2.13351 19.7491 2.26393C18.554 2.33072 17.3619 2.40388 16.1698 2.4834C14.128 2.61699 12.0831 2.75377 10.0413 2.88736C8.27152 3.00187 6.50174 3.10365 4.73197 3.2118C4.45076 3.22771 4.16955 3.24679 3.8914 3.26269C3.43902 3.29132 2.98358 3.31041 2.53121 3.32949C2.12773 3.34858 1.72426 3.3613 1.32079 3.34858C1.28105 3.24043 1.17713 3.15137 1.06098 3.16091C0.801165 3.18317 0.541353 3.2118 0.281541 3.24043C0.15622 3.25315 0.0461824 3.31995 0.00950313 3.45354C-0.0302328 3.60304 0.0584089 3.77798 0.205126 3.81297C0.318221 3.8416 0.431315 3.87022 0.54441 3.89885C0.654448 3.9243 0.773656 3.93384 0.883694 3.94338C1.18018 3.97201 1.47973 3.97837 1.77928 3.97837L1.78234 3.98791ZM73.3101 2.96688C73.6891 2.96688 74.0712 2.96688 74.4502 2.96688C74.4838 3.05594 74.5358 3.13546 74.603 3.19908C74.4563 3.20862 74.3096 3.21816 74.1628 3.22452C73.8847 3.23407 73.6096 3.24679 73.3315 3.25633C72.121 3.30404 70.9137 3.35176 69.7033 3.39947C69.15 3.42173 68.5968 3.45354 68.0435 3.46308C67.1785 3.47581 66.3135 3.49171 65.4485 3.50443C63.4708 3.53624 61.4963 3.56805 59.5186 3.60304C55.6826 3.66665 51.8435 3.73027 48.0074 3.79389C45.2596 3.83842 42.5117 3.92748 39.7668 4.00382C35.6282 4.11833 31.4895 4.23283 27.3509 4.34734C26.5225 4.36961 25.6911 4.42686 24.8628 4.46821C22.5123 4.5859 20.1648 4.70359 17.8143 4.82128C15.5065 4.93579 13.2018 5.0503 10.8941 5.1648C10.6801 5.17435 10.4662 5.18707 10.2522 5.19661C10.8727 5.14572 11.4962 5.09165 12.1167 5.04393C14.2869 4.87217 16.4571 4.69723 18.6304 4.52547C19.3884 4.46503 20.1464 4.4046 20.9045 4.34416C21.2957 4.31235 21.687 4.29327 22.0782 4.26782C24.3371 4.12469 26.5928 3.98473 28.8517 3.8416C29.2918 3.81297 29.735 3.77798 30.1752 3.7589C30.811 3.73345 31.4467 3.708 32.0825 3.68256C34.4086 3.58713 36.7377 3.49489 39.0638 3.39947C39.5773 3.38038 40.0878 3.35812 40.6013 3.33585C40.7358 3.32949 40.8703 3.32949 41.0048 3.32631C41.3654 3.31995 41.7231 3.31041 42.0837 3.30404C44.4159 3.25315 46.7481 3.20544 49.0803 3.15455C50.1562 3.13228 51.2291 3.10365 52.305 3.09729C55.7743 3.06867 59.2405 3.0305 62.7097 3.01459C66.2432 2.99869 69.7766 2.97324 73.3101 2.97006V2.96688Z" fill="#F47E2F"/>
</svg>
